%TF.GenerationSoftware,KiCad,Pcbnew,9.0.7*%
%TF.CreationDate,2026-03-26T12:42:52-05:00*%
%TF.ProjectId,PCBtoFAB,50434274-6f46-4414-922e-6b696361645f,rev?*%
%TF.SameCoordinates,Original*%
%TF.FileFunction,Legend,Bot*%
%TF.FilePolarity,Positive*%
%FSLAX46Y46*%
G04 Gerber Fmt 4.6, Leading zero omitted, Abs format (unit mm)*
G04 Created by KiCad (PCBNEW 9.0.7) date 2026-03-26 12:42:52*
%MOMM*%
%LPD*%
G01*
G04 APERTURE LIST*
%ADD10C,0.200000*%
%ADD11C,0.150000*%
%ADD12C,0.120000*%
%ADD13C,0.000000*%
G04 APERTURE END LIST*
D10*
G36*
X74481504Y-40397596D02*
G01*
X74183446Y-40298244D01*
X74481504Y-40198891D01*
X74481504Y-40397596D01*
G37*
G36*
X74767219Y-38227018D02*
G01*
X74737414Y-38286627D01*
X74712746Y-38311294D01*
X74653135Y-38341101D01*
X74557492Y-38341101D01*
X74497882Y-38311296D01*
X74478430Y-38291844D01*
X74443409Y-38186779D01*
X74443409Y-37969673D01*
X74767219Y-37969673D01*
X74767219Y-38227018D01*
G37*
G36*
X74243409Y-38179399D02*
G01*
X74213604Y-38239008D01*
X74188935Y-38263676D01*
X74129326Y-38293482D01*
X74081302Y-38293482D01*
X74021692Y-38263677D01*
X73997024Y-38239008D01*
X73967219Y-38179398D01*
X73967219Y-37969673D01*
X74243409Y-37969673D01*
X74243409Y-38179399D01*
G37*
G36*
X74291028Y-36227018D02*
G01*
X74261223Y-36286627D01*
X74236554Y-36311295D01*
X74176945Y-36341101D01*
X74081302Y-36341101D01*
X74021692Y-36311296D01*
X73997024Y-36286627D01*
X73967219Y-36227017D01*
X73967219Y-35969673D01*
X74291028Y-35969673D01*
X74291028Y-36227018D01*
G37*
G36*
X75078330Y-40841903D02*
G01*
X73656108Y-40841903D01*
X73656108Y-40285737D01*
X73768004Y-40285737D01*
X73768892Y-40298244D01*
X73768004Y-40310751D01*
X73770263Y-40317529D01*
X73770770Y-40324657D01*
X73776376Y-40335869D01*
X73780342Y-40347767D01*
X73785025Y-40353166D01*
X73788220Y-40359556D01*
X73797691Y-40367771D01*
X73805907Y-40377243D01*
X73812296Y-40380437D01*
X73817696Y-40385121D01*
X73835596Y-40393112D01*
X74835596Y-40726445D01*
X74854711Y-40730792D01*
X74893631Y-40728026D01*
X74928530Y-40710576D01*
X74954095Y-40681100D01*
X74966434Y-40644084D01*
X74963667Y-40605164D01*
X74946218Y-40570265D01*
X74916742Y-40544700D01*
X74898841Y-40536709D01*
X74681504Y-40464263D01*
X74681504Y-40132224D01*
X74898841Y-40059779D01*
X74916742Y-40051788D01*
X74946218Y-40026223D01*
X74963667Y-39991324D01*
X74966434Y-39952404D01*
X74954095Y-39915388D01*
X74928530Y-39885912D01*
X74893631Y-39868462D01*
X74854711Y-39865696D01*
X74835596Y-39870043D01*
X73835596Y-40203376D01*
X73817696Y-40211367D01*
X73812296Y-40216050D01*
X73805907Y-40219245D01*
X73797691Y-40228716D01*
X73788220Y-40236932D01*
X73785025Y-40243321D01*
X73780342Y-40248721D01*
X73776376Y-40260618D01*
X73770770Y-40271831D01*
X73770263Y-40278958D01*
X73768004Y-40285737D01*
X73656108Y-40285737D01*
X73656108Y-38869673D01*
X74386266Y-38869673D01*
X74386266Y-39631578D01*
X74388187Y-39651087D01*
X74403119Y-39687135D01*
X74430709Y-39714725D01*
X74466757Y-39729657D01*
X74505775Y-39729657D01*
X74541823Y-39714725D01*
X74569413Y-39687135D01*
X74584345Y-39651087D01*
X74586266Y-39631578D01*
X74586266Y-38869673D01*
X74584345Y-38850164D01*
X74569413Y-38814116D01*
X74541823Y-38786526D01*
X74505775Y-38771594D01*
X74466757Y-38771594D01*
X74430709Y-38786526D01*
X74403119Y-38814116D01*
X74388187Y-38850164D01*
X74386266Y-38869673D01*
X73656108Y-38869673D01*
X73656108Y-37869673D01*
X73767219Y-37869673D01*
X73767219Y-38203006D01*
X73769140Y-38222515D01*
X73770515Y-38225835D01*
X73770770Y-38229419D01*
X73777776Y-38247727D01*
X73825395Y-38342965D01*
X73830680Y-38351361D01*
X73831691Y-38353801D01*
X73833944Y-38356547D01*
X73835838Y-38359555D01*
X73837832Y-38361284D01*
X73844127Y-38368955D01*
X73891746Y-38416573D01*
X73899412Y-38422865D01*
X73901145Y-38424863D01*
X73904153Y-38426756D01*
X73906899Y-38429010D01*
X73909339Y-38430020D01*
X73917736Y-38435306D01*
X74012973Y-38482925D01*
X74031282Y-38489931D01*
X74034865Y-38490185D01*
X74038186Y-38491561D01*
X74057695Y-38493482D01*
X74152933Y-38493482D01*
X74172442Y-38491561D01*
X74175762Y-38490185D01*
X74179346Y-38489931D01*
X74197654Y-38482925D01*
X74292892Y-38435306D01*
X74301288Y-38430020D01*
X74303728Y-38429010D01*
X74306474Y-38426756D01*
X74309482Y-38424863D01*
X74311211Y-38422868D01*
X74318882Y-38416574D01*
X74319670Y-38415785D01*
X74320317Y-38416574D01*
X74367936Y-38464192D01*
X74375602Y-38470484D01*
X74377335Y-38472482D01*
X74380343Y-38474375D01*
X74383089Y-38476629D01*
X74385529Y-38477639D01*
X74393926Y-38482925D01*
X74489163Y-38530544D01*
X74507472Y-38537550D01*
X74511055Y-38537804D01*
X74514376Y-38539180D01*
X74533885Y-38541101D01*
X74676742Y-38541101D01*
X74696251Y-38539180D01*
X74699571Y-38537804D01*
X74703155Y-38537550D01*
X74721463Y-38530544D01*
X74816701Y-38482925D01*
X74825093Y-38477641D01*
X74827537Y-38476630D01*
X74830286Y-38474373D01*
X74833291Y-38472482D01*
X74835020Y-38470487D01*
X74842690Y-38464193D01*
X74890310Y-38416575D01*
X74896603Y-38408906D01*
X74898600Y-38407175D01*
X74900493Y-38404166D01*
X74902747Y-38401421D01*
X74903757Y-38398980D01*
X74909043Y-38390584D01*
X74956662Y-38295347D01*
X74963668Y-38277038D01*
X74963922Y-38273454D01*
X74965298Y-38270134D01*
X74967219Y-38250625D01*
X74967219Y-37869673D01*
X74965298Y-37850164D01*
X74950366Y-37814116D01*
X74922776Y-37786526D01*
X74886728Y-37771594D01*
X74867219Y-37769673D01*
X73867219Y-37769673D01*
X73847710Y-37771594D01*
X73811662Y-37786526D01*
X73784072Y-37814116D01*
X73769140Y-37850164D01*
X73767219Y-37869673D01*
X73656108Y-37869673D01*
X73656108Y-37155387D01*
X73767219Y-37155387D01*
X73767219Y-37250625D01*
X73768191Y-37260498D01*
X73768004Y-37263132D01*
X73768791Y-37266595D01*
X73769140Y-37270134D01*
X73770151Y-37272576D01*
X73772351Y-37282248D01*
X73819970Y-37425104D01*
X73827961Y-37443005D01*
X73830316Y-37445720D01*
X73831691Y-37449039D01*
X73844127Y-37464193D01*
X73891746Y-37511811D01*
X73906899Y-37524248D01*
X73942948Y-37539179D01*
X73981966Y-37539179D01*
X74018014Y-37524248D01*
X74045604Y-37496658D01*
X74060535Y-37460610D01*
X74060535Y-37421592D01*
X74045604Y-37385543D01*
X74033167Y-37370390D01*
X74002240Y-37339463D01*
X73967219Y-37234398D01*
X73967219Y-37171614D01*
X74002240Y-37066549D01*
X74069313Y-36999477D01*
X74140218Y-36964024D01*
X74308099Y-36922054D01*
X74426337Y-36922054D01*
X74594218Y-36964024D01*
X74665127Y-36999478D01*
X74732197Y-37066548D01*
X74767219Y-37171613D01*
X74767219Y-37234398D01*
X74732197Y-37339463D01*
X74701270Y-37370390D01*
X74688833Y-37385543D01*
X74673902Y-37421591D01*
X74673901Y-37460609D01*
X74688832Y-37496658D01*
X74716422Y-37524248D01*
X74752470Y-37539179D01*
X74791488Y-37539180D01*
X74827537Y-37524249D01*
X74842690Y-37511812D01*
X74890310Y-37464194D01*
X74902747Y-37449040D01*
X74904122Y-37445720D01*
X74906477Y-37443005D01*
X74914468Y-37425105D01*
X74962087Y-37282248D01*
X74964286Y-37272575D01*
X74965298Y-37270134D01*
X74965646Y-37266596D01*
X74966434Y-37263133D01*
X74966246Y-37260498D01*
X74967219Y-37250625D01*
X74967219Y-37155387D01*
X74966246Y-37145513D01*
X74966434Y-37142879D01*
X74965646Y-37139415D01*
X74965298Y-37135878D01*
X74964286Y-37133436D01*
X74962087Y-37123764D01*
X74914468Y-36980907D01*
X74906477Y-36963007D01*
X74904122Y-36960291D01*
X74902747Y-36956972D01*
X74890311Y-36941819D01*
X74795071Y-36846581D01*
X74787401Y-36840286D01*
X74785672Y-36838292D01*
X74782667Y-36836400D01*
X74779918Y-36834144D01*
X74777474Y-36833131D01*
X74769082Y-36827849D01*
X74673844Y-36780230D01*
X74672417Y-36779684D01*
X74671837Y-36779254D01*
X74663660Y-36776332D01*
X74655536Y-36773224D01*
X74654813Y-36773172D01*
X74653376Y-36772659D01*
X74462901Y-36725040D01*
X74459519Y-36724539D01*
X74458156Y-36723975D01*
X74450805Y-36723251D01*
X74443508Y-36722172D01*
X74442049Y-36722389D01*
X74438647Y-36722054D01*
X74295790Y-36722054D01*
X74292387Y-36722389D01*
X74290929Y-36722172D01*
X74283631Y-36723251D01*
X74276281Y-36723975D01*
X74274917Y-36724539D01*
X74271536Y-36725040D01*
X74081060Y-36772659D01*
X74079621Y-36773172D01*
X74078901Y-36773224D01*
X74070776Y-36776332D01*
X74062600Y-36779254D01*
X74062020Y-36779683D01*
X74060592Y-36780230D01*
X73965355Y-36827849D01*
X73956956Y-36833135D01*
X73954519Y-36834145D01*
X73951775Y-36836396D01*
X73948764Y-36838292D01*
X73947031Y-36840289D01*
X73939365Y-36846581D01*
X73844127Y-36941819D01*
X73831691Y-36956973D01*
X73830316Y-36960291D01*
X73827961Y-36963007D01*
X73819970Y-36980908D01*
X73772351Y-37123764D01*
X73770151Y-37133435D01*
X73769140Y-37135878D01*
X73768791Y-37139416D01*
X73768004Y-37142880D01*
X73768191Y-37145513D01*
X73767219Y-37155387D01*
X73656108Y-37155387D01*
X73656108Y-35869673D01*
X73767219Y-35869673D01*
X73767219Y-36250625D01*
X73769140Y-36270134D01*
X73770515Y-36273454D01*
X73770770Y-36277038D01*
X73777776Y-36295346D01*
X73825395Y-36390584D01*
X73830680Y-36398980D01*
X73831691Y-36401420D01*
X73833944Y-36404166D01*
X73835838Y-36407174D01*
X73837832Y-36408903D01*
X73844127Y-36416574D01*
X73891746Y-36464192D01*
X73899412Y-36470484D01*
X73901145Y-36472482D01*
X73904153Y-36474375D01*
X73906899Y-36476629D01*
X73909339Y-36477639D01*
X73917736Y-36482925D01*
X74012973Y-36530544D01*
X74031282Y-36537550D01*
X74034865Y-36537804D01*
X74038186Y-36539180D01*
X74057695Y-36541101D01*
X74200552Y-36541101D01*
X74220061Y-36539180D01*
X74223381Y-36537804D01*
X74226965Y-36537550D01*
X74245273Y-36530544D01*
X74340511Y-36482925D01*
X74348907Y-36477639D01*
X74351347Y-36476629D01*
X74354093Y-36474375D01*
X74357101Y-36472482D01*
X74358830Y-36470487D01*
X74366501Y-36464193D01*
X74414119Y-36416574D01*
X74420411Y-36408907D01*
X74422409Y-36407175D01*
X74424302Y-36404166D01*
X74426556Y-36401421D01*
X74427566Y-36398980D01*
X74432852Y-36390584D01*
X74480471Y-36295347D01*
X74487477Y-36277038D01*
X74487731Y-36273454D01*
X74489107Y-36270134D01*
X74491028Y-36250625D01*
X74491028Y-35969673D01*
X74867219Y-35969673D01*
X74886728Y-35967752D01*
X74922776Y-35952820D01*
X74950366Y-35925230D01*
X74965298Y-35889182D01*
X74965298Y-35850164D01*
X74950366Y-35814116D01*
X74922776Y-35786526D01*
X74886728Y-35771594D01*
X74867219Y-35769673D01*
X73867219Y-35769673D01*
X73847710Y-35771594D01*
X73811662Y-35786526D01*
X73784072Y-35814116D01*
X73769140Y-35850164D01*
X73767219Y-35869673D01*
X73656108Y-35869673D01*
X73656108Y-35658562D01*
X75078330Y-35658562D01*
X75078330Y-40841903D01*
G37*
X64364935Y-77243161D02*
X64222078Y-77290780D01*
X64222078Y-77290780D02*
X64174459Y-77338399D01*
X64174459Y-77338399D02*
X64126840Y-77433637D01*
X64126840Y-77433637D02*
X64126840Y-77576494D01*
X64126840Y-77576494D02*
X64174459Y-77671732D01*
X64174459Y-77671732D02*
X64222078Y-77719352D01*
X64222078Y-77719352D02*
X64317316Y-77766971D01*
X64317316Y-77766971D02*
X64698268Y-77766971D01*
X64698268Y-77766971D02*
X64698268Y-76766971D01*
X64698268Y-76766971D02*
X64364935Y-76766971D01*
X64364935Y-76766971D02*
X64269697Y-76814590D01*
X64269697Y-76814590D02*
X64222078Y-76862209D01*
X64222078Y-76862209D02*
X64174459Y-76957447D01*
X64174459Y-76957447D02*
X64174459Y-77052685D01*
X64174459Y-77052685D02*
X64222078Y-77147923D01*
X64222078Y-77147923D02*
X64269697Y-77195542D01*
X64269697Y-77195542D02*
X64364935Y-77243161D01*
X64364935Y-77243161D02*
X64698268Y-77243161D01*
X63698268Y-77766971D02*
X63698268Y-77100304D01*
X63698268Y-77290780D02*
X63650649Y-77195542D01*
X63650649Y-77195542D02*
X63603030Y-77147923D01*
X63603030Y-77147923D02*
X63507792Y-77100304D01*
X63507792Y-77100304D02*
X63412554Y-77100304D01*
X62936363Y-77766971D02*
X63031601Y-77719352D01*
X63031601Y-77719352D02*
X63079220Y-77671732D01*
X63079220Y-77671732D02*
X63126839Y-77576494D01*
X63126839Y-77576494D02*
X63126839Y-77290780D01*
X63126839Y-77290780D02*
X63079220Y-77195542D01*
X63079220Y-77195542D02*
X63031601Y-77147923D01*
X63031601Y-77147923D02*
X62936363Y-77100304D01*
X62936363Y-77100304D02*
X62793506Y-77100304D01*
X62793506Y-77100304D02*
X62698268Y-77147923D01*
X62698268Y-77147923D02*
X62650649Y-77195542D01*
X62650649Y-77195542D02*
X62603030Y-77290780D01*
X62603030Y-77290780D02*
X62603030Y-77576494D01*
X62603030Y-77576494D02*
X62650649Y-77671732D01*
X62650649Y-77671732D02*
X62698268Y-77719352D01*
X62698268Y-77719352D02*
X62793506Y-77766971D01*
X62793506Y-77766971D02*
X62936363Y-77766971D01*
X62269696Y-77100304D02*
X61745887Y-77100304D01*
X61745887Y-77100304D02*
X62269696Y-77766971D01*
X62269696Y-77766971D02*
X61745887Y-77766971D01*
X60936363Y-77100304D02*
X60936363Y-77766971D01*
X61364934Y-77100304D02*
X61364934Y-77624113D01*
X61364934Y-77624113D02*
X61317315Y-77719352D01*
X61317315Y-77719352D02*
X61222077Y-77766971D01*
X61222077Y-77766971D02*
X61079220Y-77766971D01*
X61079220Y-77766971D02*
X60983982Y-77719352D01*
X60983982Y-77719352D02*
X60936363Y-77671732D01*
X59841124Y-76766971D02*
X59269696Y-76766971D01*
X59555410Y-77766971D02*
X59555410Y-76766971D01*
X58555410Y-77719352D02*
X58650648Y-77766971D01*
X58650648Y-77766971D02*
X58841124Y-77766971D01*
X58841124Y-77766971D02*
X58936362Y-77719352D01*
X58936362Y-77719352D02*
X58983981Y-77624113D01*
X58983981Y-77624113D02*
X58983981Y-77243161D01*
X58983981Y-77243161D02*
X58936362Y-77147923D01*
X58936362Y-77147923D02*
X58841124Y-77100304D01*
X58841124Y-77100304D02*
X58650648Y-77100304D01*
X58650648Y-77100304D02*
X58555410Y-77147923D01*
X58555410Y-77147923D02*
X58507791Y-77243161D01*
X58507791Y-77243161D02*
X58507791Y-77338399D01*
X58507791Y-77338399D02*
X58983981Y-77433637D01*
X57650648Y-77719352D02*
X57745886Y-77766971D01*
X57745886Y-77766971D02*
X57936362Y-77766971D01*
X57936362Y-77766971D02*
X58031600Y-77719352D01*
X58031600Y-77719352D02*
X58079219Y-77671732D01*
X58079219Y-77671732D02*
X58126838Y-77576494D01*
X58126838Y-77576494D02*
X58126838Y-77290780D01*
X58126838Y-77290780D02*
X58079219Y-77195542D01*
X58079219Y-77195542D02*
X58031600Y-77147923D01*
X58031600Y-77147923D02*
X57936362Y-77100304D01*
X57936362Y-77100304D02*
X57745886Y-77100304D01*
X57745886Y-77100304D02*
X57650648Y-77147923D01*
X57222076Y-77766971D02*
X57222076Y-76766971D01*
X56793505Y-77766971D02*
X56793505Y-77243161D01*
X56793505Y-77243161D02*
X56841124Y-77147923D01*
X56841124Y-77147923D02*
X56936362Y-77100304D01*
X56936362Y-77100304D02*
X57079219Y-77100304D01*
X57079219Y-77100304D02*
X57174457Y-77147923D01*
X57174457Y-77147923D02*
X57222076Y-77195542D01*
X56412552Y-77100304D02*
X56222076Y-77766971D01*
X56222076Y-77766971D02*
X56031600Y-77290780D01*
X56031600Y-77290780D02*
X55841124Y-77766971D01*
X55841124Y-77766971D02*
X55650648Y-77100304D01*
X55126838Y-77766971D02*
X55222076Y-77719352D01*
X55222076Y-77719352D02*
X55269695Y-77671732D01*
X55269695Y-77671732D02*
X55317314Y-77576494D01*
X55317314Y-77576494D02*
X55317314Y-77290780D01*
X55317314Y-77290780D02*
X55269695Y-77195542D01*
X55269695Y-77195542D02*
X55222076Y-77147923D01*
X55222076Y-77147923D02*
X55126838Y-77100304D01*
X55126838Y-77100304D02*
X54983981Y-77100304D01*
X54983981Y-77100304D02*
X54888743Y-77147923D01*
X54888743Y-77147923D02*
X54841124Y-77195542D01*
X54841124Y-77195542D02*
X54793505Y-77290780D01*
X54793505Y-77290780D02*
X54793505Y-77576494D01*
X54793505Y-77576494D02*
X54841124Y-77671732D01*
X54841124Y-77671732D02*
X54888743Y-77719352D01*
X54888743Y-77719352D02*
X54983981Y-77766971D01*
X54983981Y-77766971D02*
X55126838Y-77766971D01*
X54364933Y-77766971D02*
X54364933Y-77100304D01*
X54364933Y-77290780D02*
X54317314Y-77195542D01*
X54317314Y-77195542D02*
X54269695Y-77147923D01*
X54269695Y-77147923D02*
X54174457Y-77100304D01*
X54174457Y-77100304D02*
X54079219Y-77100304D01*
X53745885Y-77766971D02*
X53745885Y-76766971D01*
X53650647Y-77386018D02*
X53364933Y-77766971D01*
X53364933Y-77100304D02*
X53745885Y-77481256D01*
X52983980Y-77719352D02*
X52888742Y-77766971D01*
X52888742Y-77766971D02*
X52698266Y-77766971D01*
X52698266Y-77766971D02*
X52603028Y-77719352D01*
X52603028Y-77719352D02*
X52555409Y-77624113D01*
X52555409Y-77624113D02*
X52555409Y-77576494D01*
X52555409Y-77576494D02*
X52603028Y-77481256D01*
X52603028Y-77481256D02*
X52698266Y-77433637D01*
X52698266Y-77433637D02*
X52841123Y-77433637D01*
X52841123Y-77433637D02*
X52936361Y-77386018D01*
X52936361Y-77386018D02*
X52983980Y-77290780D01*
X52983980Y-77290780D02*
X52983980Y-77243161D01*
X52983980Y-77243161D02*
X52936361Y-77147923D01*
X52936361Y-77147923D02*
X52841123Y-77100304D01*
X52841123Y-77100304D02*
X52698266Y-77100304D01*
X52698266Y-77100304D02*
X52603028Y-77147923D01*
D11*
X45833333Y-76204819D02*
X45833333Y-76919104D01*
X45833333Y-76919104D02*
X45880952Y-77061961D01*
X45880952Y-77061961D02*
X45976190Y-77157200D01*
X45976190Y-77157200D02*
X46119047Y-77204819D01*
X46119047Y-77204819D02*
X46214285Y-77204819D01*
X45452380Y-76204819D02*
X44833333Y-76204819D01*
X44833333Y-76204819D02*
X45166666Y-76585771D01*
X45166666Y-76585771D02*
X45023809Y-76585771D01*
X45023809Y-76585771D02*
X44928571Y-76633390D01*
X44928571Y-76633390D02*
X44880952Y-76681009D01*
X44880952Y-76681009D02*
X44833333Y-76776247D01*
X44833333Y-76776247D02*
X44833333Y-77014342D01*
X44833333Y-77014342D02*
X44880952Y-77109580D01*
X44880952Y-77109580D02*
X44928571Y-77157200D01*
X44928571Y-77157200D02*
X45023809Y-77204819D01*
X45023809Y-77204819D02*
X45309523Y-77204819D01*
X45309523Y-77204819D02*
X45404761Y-77157200D01*
X45404761Y-77157200D02*
X45452380Y-77109580D01*
D12*
%TO.C,J3*%
X42900000Y-68130000D02*
X42900000Y-68700000D01*
X42900000Y-68700000D02*
X41540000Y-68700000D01*
X42900000Y-70220000D02*
X42900000Y-71240000D01*
X42900000Y-72760000D02*
X42900000Y-73780000D01*
X42900000Y-75300000D02*
X42900000Y-75870000D01*
X48100000Y-68130000D02*
X42900000Y-68130000D01*
X48100000Y-68130000D02*
X48100000Y-68700000D01*
X48100000Y-70220000D02*
X48100000Y-71240000D01*
X48100000Y-72760000D02*
X48100000Y-73780000D01*
X48100000Y-75300000D02*
X48100000Y-75870000D01*
X48100000Y-75870000D02*
X42900000Y-75870000D01*
D13*
%TO.C,G\u002A\u002A\u002A*%
G36*
X55245983Y-34734388D02*
G01*
X55347610Y-34736809D01*
X55411680Y-34742798D01*
X55447790Y-34753959D01*
X55465538Y-34771896D01*
X55474522Y-34798214D01*
X55482481Y-34828440D01*
X55504400Y-34910401D01*
X55538360Y-35036825D01*
X55582794Y-35201897D01*
X55636136Y-35399802D01*
X55696820Y-35624725D01*
X55763278Y-35870851D01*
X55833945Y-36132364D01*
X55895591Y-36361076D01*
X55960948Y-36605116D01*
X56019914Y-36826945D01*
X56071050Y-37021076D01*
X56112922Y-37182020D01*
X56144092Y-37304291D01*
X56163124Y-37382401D01*
X56168582Y-37410862D01*
X56166512Y-37410567D01*
X56130933Y-37390688D01*
X56057108Y-37344291D01*
X55952181Y-37276007D01*
X55823296Y-37190474D01*
X55677596Y-37092324D01*
X55640575Y-37067245D01*
X55498523Y-36971623D01*
X55375222Y-36889570D01*
X55277780Y-36825752D01*
X55213306Y-36784837D01*
X55188906Y-36771490D01*
X55188489Y-36774073D01*
X55190094Y-36816803D01*
X55196100Y-36904688D01*
X55205696Y-37028464D01*
X55218069Y-37178861D01*
X55232404Y-37346615D01*
X55247890Y-37522458D01*
X55263712Y-37697123D01*
X55279059Y-37861344D01*
X55293118Y-38005854D01*
X55305074Y-38121385D01*
X55314116Y-38198672D01*
X55335992Y-38363416D01*
X55457420Y-38251973D01*
X55510513Y-38206551D01*
X55560753Y-38174808D01*
X55578849Y-38182051D01*
X55574778Y-38211466D01*
X55558063Y-38292114D01*
X55530432Y-38412009D01*
X55494053Y-38562069D01*
X55451091Y-38733210D01*
X55403714Y-38916350D01*
X55374573Y-39027343D01*
X55245761Y-38902064D01*
X55196721Y-38853508D01*
X55103918Y-38757965D01*
X55009307Y-38656804D01*
X54919778Y-38557839D01*
X54842220Y-38468883D01*
X54783524Y-38397750D01*
X54750580Y-38352251D01*
X54750277Y-38340201D01*
X54789057Y-38356584D01*
X54866502Y-38390465D01*
X54960935Y-38432489D01*
X55018097Y-38457498D01*
X55083460Y-38481767D01*
X55111496Y-38482371D01*
X55110774Y-38460935D01*
X55110672Y-38460665D01*
X55099387Y-38423290D01*
X55075078Y-38338207D01*
X55039740Y-38212641D01*
X54995370Y-38053816D01*
X54943964Y-37868955D01*
X54887519Y-37665282D01*
X54828032Y-37450021D01*
X54767498Y-37230396D01*
X54707913Y-37013630D01*
X54651275Y-36806948D01*
X54599580Y-36617574D01*
X54554824Y-36452731D01*
X54519004Y-36319642D01*
X54516927Y-36311851D01*
X54490887Y-36209720D01*
X54472294Y-36128850D01*
X54465053Y-36086145D01*
X54468456Y-36084081D01*
X54509614Y-36095013D01*
X54591607Y-36127451D01*
X54707069Y-36178200D01*
X54848631Y-36244067D01*
X55008925Y-36321859D01*
X55066721Y-36350415D01*
X55222696Y-36427196D01*
X55357910Y-36493348D01*
X55464758Y-36545175D01*
X55535633Y-36578981D01*
X55562932Y-36591071D01*
X55555124Y-36569719D01*
X55525910Y-36502075D01*
X55477675Y-36393809D01*
X55413050Y-36250744D01*
X55334666Y-36078698D01*
X55245153Y-35883495D01*
X55147142Y-35670955D01*
X55056836Y-35475452D01*
X54965693Y-35277713D01*
X54885063Y-35102335D01*
X54817647Y-34955215D01*
X54766148Y-34842252D01*
X54733267Y-34769343D01*
X54721706Y-34742384D01*
X54722540Y-34741814D01*
X54758080Y-34738731D01*
X54838279Y-34736226D01*
X54952482Y-34734543D01*
X55090037Y-34733928D01*
X55097200Y-34733928D01*
X55245983Y-34734388D01*
G37*
G36*
X59621572Y-39423978D02*
G01*
X59645904Y-39468224D01*
X59671239Y-39526969D01*
X59690718Y-39659207D01*
X59656025Y-39780129D01*
X59568362Y-39883293D01*
X59568339Y-39883311D01*
X59557673Y-39889933D01*
X59541035Y-39895937D01*
X59515734Y-39901353D01*
X59479076Y-39906212D01*
X59428368Y-39910543D01*
X59360916Y-39914376D01*
X59274028Y-39917742D01*
X59165009Y-39920671D01*
X59031167Y-39923192D01*
X58869808Y-39925336D01*
X58678239Y-39927134D01*
X58453767Y-39928614D01*
X58193698Y-39929807D01*
X57895339Y-39930744D01*
X57555998Y-39931454D01*
X57172980Y-39931968D01*
X56743592Y-39932315D01*
X56265141Y-39932525D01*
X55734934Y-39932629D01*
X55150277Y-39932657D01*
X55148654Y-39932657D01*
X54564145Y-39932629D01*
X54034079Y-39932525D01*
X53555761Y-39932314D01*
X53126500Y-39931966D01*
X52743601Y-39931453D01*
X52404372Y-39930742D01*
X52106118Y-39929805D01*
X51846147Y-39928610D01*
X51621766Y-39927129D01*
X51430281Y-39925331D01*
X51268998Y-39923186D01*
X51135226Y-39920663D01*
X51026269Y-39917734D01*
X50939435Y-39914366D01*
X50872032Y-39910532D01*
X50821364Y-39906200D01*
X50784740Y-39901340D01*
X50759465Y-39895922D01*
X50742848Y-39889916D01*
X50732193Y-39883293D01*
X50713250Y-39866868D01*
X50634635Y-39757852D01*
X50607420Y-39627889D01*
X50607441Y-39623570D01*
X50608161Y-39610196D01*
X50610957Y-39594433D01*
X50617222Y-39573802D01*
X50628353Y-39545825D01*
X50645745Y-39508023D01*
X50670794Y-39457919D01*
X50704894Y-39393033D01*
X50721452Y-39362500D01*
X51372277Y-39362500D01*
X55150277Y-39362500D01*
X58928278Y-39362500D01*
X58886950Y-39298214D01*
X58878579Y-39284593D01*
X58842011Y-39222909D01*
X58782600Y-39121413D01*
X58704153Y-38986649D01*
X58610477Y-38825164D01*
X58505379Y-38643503D01*
X58392664Y-38448214D01*
X58274856Y-38243930D01*
X58123459Y-37981552D01*
X57964804Y-37706730D01*
X57807834Y-37434954D01*
X57661496Y-37181714D01*
X57534734Y-36962500D01*
X57475181Y-36859531D01*
X57349543Y-36642156D01*
X57206143Y-36393901D01*
X57048548Y-36120949D01*
X56880322Y-35829480D01*
X56705028Y-35525676D01*
X56526233Y-35215719D01*
X56347500Y-34905792D01*
X56172395Y-34602074D01*
X56004481Y-34310749D01*
X55847325Y-34037997D01*
X55704490Y-33790001D01*
X55579541Y-33572941D01*
X55476043Y-33393001D01*
X55397560Y-33256361D01*
X55342012Y-33160236D01*
X55269418Y-33036926D01*
X55209920Y-32938613D01*
X55168534Y-32873543D01*
X55150277Y-32849959D01*
X55139024Y-32865363D01*
X55101675Y-32925395D01*
X55041173Y-33026121D01*
X54960425Y-33162597D01*
X54862339Y-33329879D01*
X54749823Y-33523024D01*
X54625786Y-33737087D01*
X54493135Y-33967127D01*
X54444449Y-34051750D01*
X54293598Y-34313899D01*
X54139836Y-34581039D01*
X53988397Y-34844081D01*
X53844514Y-35093939D01*
X53713418Y-35321525D01*
X53600345Y-35517750D01*
X53510526Y-35673528D01*
X53495073Y-35700318D01*
X53375564Y-35907619D01*
X53246864Y-36131029D01*
X53118413Y-36354149D01*
X52999654Y-36560582D01*
X52900027Y-36733928D01*
X52827065Y-36860799D01*
X52726256Y-37035622D01*
X52629062Y-37203701D01*
X52543743Y-37350753D01*
X52478561Y-37462500D01*
X52470972Y-37475462D01*
X52412822Y-37575248D01*
X52332328Y-37713922D01*
X52234718Y-37882448D01*
X52125221Y-38071790D01*
X52009069Y-38272915D01*
X51891489Y-38476785D01*
X51850681Y-38547561D01*
X51742340Y-38735138D01*
X51643012Y-38906655D01*
X51556589Y-39055416D01*
X51486968Y-39174727D01*
X51438042Y-39257891D01*
X51413706Y-39298214D01*
X51372277Y-39362500D01*
X50721452Y-39362500D01*
X50749441Y-39310888D01*
X50805831Y-39209005D01*
X50875458Y-39084906D01*
X50959719Y-38936112D01*
X51060009Y-38760145D01*
X51177722Y-38554528D01*
X51314255Y-38316780D01*
X51471003Y-38044425D01*
X51649361Y-37734983D01*
X51850725Y-37385976D01*
X52076489Y-36994927D01*
X52328051Y-36559356D01*
X52606803Y-36076785D01*
X52726948Y-35868774D01*
X52931907Y-35513804D01*
X53136562Y-35159225D01*
X53337769Y-34810490D01*
X53532385Y-34473052D01*
X53717265Y-34152366D01*
X53889267Y-33853884D01*
X54045245Y-33583060D01*
X54182057Y-33345347D01*
X54296559Y-33146200D01*
X54385607Y-32991071D01*
X54467251Y-32849606D01*
X54581774Y-32654364D01*
X54688166Y-32476604D01*
X54782448Y-32322788D01*
X54860642Y-32199380D01*
X54918768Y-32112844D01*
X54952847Y-32069642D01*
X55008068Y-32027977D01*
X55122528Y-31989430D01*
X55239648Y-32003318D01*
X55346743Y-32069642D01*
X55347576Y-32070441D01*
X55388439Y-32121007D01*
X55450882Y-32211949D01*
X55528945Y-32333957D01*
X55616664Y-32477721D01*
X55708078Y-32633928D01*
X55744795Y-32697968D01*
X55842261Y-32867656D01*
X55963824Y-33078980D01*
X56106415Y-33326621D01*
X56266967Y-33605259D01*
X56442411Y-33909574D01*
X56629680Y-34234247D01*
X56825705Y-34573957D01*
X57027418Y-34923386D01*
X57231752Y-35277214D01*
X57435639Y-35630120D01*
X57636009Y-35976785D01*
X57706448Y-36098639D01*
X57825064Y-36303896D01*
X57942856Y-36507795D01*
X58052879Y-36698308D01*
X58148185Y-36863409D01*
X58221828Y-36991071D01*
X58228867Y-37003278D01*
X58293646Y-37115599D01*
X58381784Y-37268381D01*
X58488721Y-37453718D01*
X58609893Y-37663704D01*
X58740738Y-37890433D01*
X58876695Y-38126000D01*
X59013202Y-38362500D01*
X59060887Y-38445142D01*
X59187080Y-38664155D01*
X59304607Y-38868564D01*
X59410144Y-39052562D01*
X59500367Y-39210337D01*
X59571951Y-39336079D01*
X59586866Y-39362500D01*
X59621572Y-39423978D01*
G37*
G36*
X60529425Y-63663004D02*
G01*
X60646921Y-63714054D01*
X60744898Y-63794903D01*
X60817521Y-63902427D01*
X60839732Y-63962378D01*
X60857287Y-64076384D01*
X60850912Y-64194522D01*
X60820482Y-64300028D01*
X60781526Y-64367406D01*
X60707025Y-64454260D01*
X60618756Y-64525111D01*
X60528550Y-64569059D01*
X60450771Y-64587980D01*
X60323980Y-64593099D01*
X60202265Y-64562069D01*
X60079208Y-64493814D01*
X60041042Y-64464333D01*
X59967439Y-64377934D01*
X59924811Y-64271233D01*
X59911356Y-64140437D01*
X59911963Y-64111741D01*
X59930445Y-63986599D01*
X59977867Y-63879767D01*
X60058558Y-63780662D01*
X60132270Y-63718137D01*
X60227040Y-63670855D01*
X60342238Y-63647655D01*
X60398242Y-63644882D01*
X60529425Y-63663004D01*
G37*
G36*
X55723993Y-72631412D02*
G01*
X55710255Y-72682604D01*
X55688232Y-72760854D01*
X55659464Y-72860966D01*
X55625492Y-72977744D01*
X55587856Y-73105995D01*
X55548097Y-73240523D01*
X55507754Y-73376133D01*
X55468370Y-73507631D01*
X55431483Y-73629820D01*
X55398634Y-73737507D01*
X55371364Y-73825497D01*
X55351214Y-73888594D01*
X55339724Y-73921603D01*
X55333521Y-73930820D01*
X55306213Y-73941537D01*
X55255907Y-73939936D01*
X55178045Y-73925624D01*
X55068070Y-73898209D01*
X55029209Y-73887007D01*
X54978836Y-73866031D01*
X54949754Y-73838385D01*
X54941455Y-73798547D01*
X54953434Y-73740993D01*
X54985185Y-73660203D01*
X55036200Y-73550655D01*
X55071465Y-73478362D01*
X55148517Y-73329875D01*
X55225180Y-73198150D01*
X55309997Y-73069025D01*
X55411506Y-72928340D01*
X55425230Y-72910186D01*
X55487473Y-72833031D01*
X55552127Y-72759775D01*
X55613845Y-72695755D01*
X55667281Y-72646308D01*
X55707088Y-72616772D01*
X55727920Y-72612484D01*
X55723993Y-72631412D01*
G37*
G36*
X60092493Y-73841592D02*
G01*
X60107320Y-73895511D01*
X60128150Y-73995296D01*
X60148052Y-74115989D01*
X60166424Y-74250981D01*
X60182666Y-74393665D01*
X60196175Y-74537435D01*
X60206351Y-74675682D01*
X60212591Y-74801799D01*
X60214295Y-74909180D01*
X60210860Y-74991216D01*
X60201687Y-75041300D01*
X60196160Y-75053336D01*
X60183450Y-75065485D01*
X60159673Y-75069726D01*
X60118080Y-75065823D01*
X60051924Y-75053540D01*
X59954455Y-75032640D01*
X59915602Y-75024156D01*
X59831626Y-75005526D01*
X59777646Y-74991378D01*
X59747774Y-74978348D01*
X59736122Y-74963069D01*
X59736803Y-74942177D01*
X59743929Y-74912305D01*
X59745442Y-74906040D01*
X59759263Y-74852780D01*
X59781337Y-74771199D01*
X59809800Y-74667896D01*
X59842787Y-74549470D01*
X59878432Y-74422520D01*
X59914872Y-74293645D01*
X59950242Y-74169444D01*
X59982677Y-74056516D01*
X60010311Y-73961460D01*
X60031282Y-73890875D01*
X60043723Y-73851361D01*
X60070727Y-73773516D01*
X60092493Y-73841592D01*
G37*
G36*
X60214799Y-64790790D02*
G01*
X60219243Y-64791196D01*
X60268566Y-64800160D01*
X60298164Y-64813162D01*
X60300344Y-64819476D01*
X60301183Y-64858582D01*
X60296658Y-64926349D01*
X60287321Y-65015859D01*
X60273722Y-65120193D01*
X60251720Y-65281695D01*
X60230118Y-65452942D01*
X60209976Y-65624724D01*
X60191972Y-65790504D01*
X60176786Y-65943746D01*
X60165097Y-66077914D01*
X60157586Y-66186472D01*
X60154931Y-66262883D01*
X60154893Y-66284887D01*
X60153305Y-66346803D01*
X60147321Y-66380421D01*
X60134142Y-66394271D01*
X60110970Y-66396883D01*
X60092440Y-66394949D01*
X60040865Y-66386173D01*
X59967938Y-66371991D01*
X59882186Y-66354255D01*
X59792138Y-66334817D01*
X59706319Y-66315530D01*
X59633258Y-66298246D01*
X59581481Y-66284817D01*
X59559515Y-66277095D01*
X59560192Y-66273122D01*
X59571572Y-66239679D01*
X59595461Y-66175494D01*
X59630368Y-66084400D01*
X59674807Y-65970234D01*
X59727286Y-65836833D01*
X59786318Y-65688032D01*
X59850413Y-65527668D01*
X60148223Y-64785206D01*
X60214799Y-64790790D01*
G37*
G36*
X64089455Y-67982919D02*
G01*
X64120218Y-68029007D01*
X64156819Y-68095348D01*
X64194944Y-68173068D01*
X64230275Y-68253295D01*
X64258499Y-68327153D01*
X64275297Y-68385770D01*
X64284812Y-68449258D01*
X64292931Y-68574366D01*
X64293289Y-68722854D01*
X64286494Y-68885747D01*
X64273151Y-69054069D01*
X64253867Y-69218845D01*
X64229248Y-69371100D01*
X64199901Y-69501856D01*
X64193355Y-69525500D01*
X64179060Y-69561452D01*
X64159796Y-69570297D01*
X64125559Y-69559834D01*
X64114717Y-69555692D01*
X64062412Y-69536336D01*
X63989648Y-69509932D01*
X63908691Y-69480941D01*
X63879978Y-69470712D01*
X63802439Y-69442930D01*
X63738535Y-69419817D01*
X63699867Y-69405560D01*
X63654745Y-69388404D01*
X63742685Y-69050421D01*
X63760214Y-68983424D01*
X63798793Y-68838113D01*
X63839343Y-68687809D01*
X63880165Y-68538626D01*
X63919554Y-68396674D01*
X63955809Y-68268066D01*
X63987227Y-68158913D01*
X64012106Y-68075328D01*
X64028744Y-68023421D01*
X64031634Y-68015671D01*
X64052224Y-67978096D01*
X64071308Y-67966357D01*
X64089455Y-67982919D01*
G37*
G36*
X65514353Y-71249312D02*
G01*
X65541559Y-71301283D01*
X65555376Y-71357812D01*
X65565118Y-71473239D01*
X65560997Y-71616382D01*
X65544054Y-71782266D01*
X65515325Y-71965912D01*
X65475847Y-72162345D01*
X65426659Y-72366588D01*
X65368799Y-72573663D01*
X65303303Y-72778594D01*
X65231210Y-72976404D01*
X65153558Y-73162117D01*
X65135857Y-73200767D01*
X65087726Y-73300599D01*
X65037182Y-73399377D01*
X64988854Y-73488462D01*
X64947370Y-73559216D01*
X64917356Y-73603002D01*
X64912304Y-73608036D01*
X64884084Y-73611344D01*
X64853765Y-73585784D01*
X64827611Y-73538792D01*
X64811886Y-73477804D01*
X64810539Y-73444120D01*
X64817109Y-73361430D01*
X64833678Y-73248895D01*
X64859167Y-73111136D01*
X64892498Y-72952776D01*
X64932593Y-72778436D01*
X64978371Y-72592740D01*
X65028754Y-72400308D01*
X65082664Y-72205763D01*
X65139023Y-72013726D01*
X65196750Y-71828821D01*
X65225040Y-71742905D01*
X65288429Y-71564508D01*
X65345707Y-71424630D01*
X65396906Y-71323221D01*
X65442058Y-71260232D01*
X65481196Y-71235612D01*
X65514353Y-71249312D01*
G37*
G36*
X53569144Y-70492643D02*
G01*
X53608080Y-70511448D01*
X53662462Y-70541431D01*
X53763435Y-70599727D01*
X53738050Y-70681851D01*
X53731938Y-70701505D01*
X53712290Y-70764191D01*
X53684967Y-70850987D01*
X53652724Y-70953150D01*
X53618315Y-71061937D01*
X53597121Y-71127803D01*
X53566190Y-71219951D01*
X53539901Y-71293525D01*
X53520523Y-71342261D01*
X53510326Y-71359898D01*
X53502886Y-71358628D01*
X53464261Y-71349008D01*
X53401819Y-71332001D01*
X53324744Y-71310071D01*
X53247334Y-71285404D01*
X53088444Y-71222069D01*
X52935940Y-71145645D01*
X52800649Y-71061852D01*
X52693396Y-70976411D01*
X52583777Y-70873237D01*
X52767600Y-70940882D01*
X52798787Y-70952031D01*
X52906429Y-70986987D01*
X53017078Y-71018689D01*
X53111131Y-71041402D01*
X53120897Y-71043391D01*
X53217842Y-71059116D01*
X53293163Y-71059695D01*
X53351328Y-71041195D01*
X53396809Y-70999687D01*
X53434073Y-70931240D01*
X53467590Y-70831924D01*
X53501829Y-70697808D01*
X53517728Y-70631518D01*
X53535680Y-70559456D01*
X53549008Y-70509248D01*
X53555622Y-70489003D01*
X53569144Y-70492643D01*
G37*
G36*
X58305925Y-69257878D02*
G01*
X58315690Y-69260396D01*
X58361828Y-69271615D01*
X58437154Y-69289543D01*
X58535589Y-69312743D01*
X58651054Y-69339780D01*
X58777470Y-69369220D01*
X58842319Y-69384321D01*
X58959810Y-69411895D01*
X59061030Y-69435932D01*
X59140528Y-69455122D01*
X59192851Y-69468154D01*
X59212548Y-69473721D01*
X59212016Y-69480356D01*
X59200436Y-69513589D01*
X59178785Y-69564335D01*
X59169668Y-69586489D01*
X59148163Y-69659913D01*
X59139360Y-69725643D01*
X59139023Y-69740954D01*
X59131807Y-69783777D01*
X59114508Y-69791748D01*
X59090274Y-69784980D01*
X59033867Y-69770737D01*
X58952093Y-69750734D01*
X58851439Y-69726554D01*
X58738393Y-69699786D01*
X58699160Y-69690558D01*
X58547590Y-69654758D01*
X58428952Y-69626175D01*
X58339070Y-69603435D01*
X58273769Y-69585164D01*
X58228875Y-69569991D01*
X58200211Y-69556542D01*
X58183603Y-69543443D01*
X58174876Y-69529322D01*
X58169854Y-69512806D01*
X58168188Y-69503726D01*
X58175792Y-69442251D01*
X58210940Y-69355283D01*
X58230551Y-69316562D01*
X58257165Y-69273886D01*
X58280037Y-69256634D01*
X58305925Y-69257878D01*
G37*
G36*
X57328466Y-72736990D02*
G01*
X57400855Y-72751150D01*
X57520011Y-72776335D01*
X57621945Y-72800275D01*
X57701341Y-72821601D01*
X57752878Y-72838945D01*
X57771239Y-72850938D01*
X57767769Y-72868521D01*
X57753906Y-72923764D01*
X57729622Y-73015425D01*
X57695092Y-73142863D01*
X57650491Y-73305438D01*
X57595993Y-73502511D01*
X57531774Y-73733442D01*
X57458008Y-73997591D01*
X57452311Y-74017965D01*
X57423453Y-74121500D01*
X57396971Y-74216990D01*
X57375596Y-74294576D01*
X57362053Y-74344398D01*
X57355237Y-74367462D01*
X57337837Y-74410403D01*
X57323186Y-74427437D01*
X57322943Y-74427432D01*
X57297413Y-74422597D01*
X57242247Y-74409976D01*
X57165399Y-74391443D01*
X57074823Y-74368874D01*
X57069718Y-74367584D01*
X56981135Y-74345291D01*
X56908064Y-74327074D01*
X56857961Y-74314781D01*
X56838277Y-74310259D01*
X56835429Y-74308209D01*
X56834431Y-74294721D01*
X56838724Y-74265895D01*
X56849115Y-74218565D01*
X56866409Y-74149560D01*
X56891414Y-74055713D01*
X56924935Y-73933855D01*
X56967780Y-73780819D01*
X57020755Y-73593436D01*
X57055479Y-73470984D01*
X57099000Y-73317484D01*
X57139198Y-73175679D01*
X57174606Y-73050747D01*
X57203755Y-72947869D01*
X57225178Y-72872225D01*
X57237406Y-72828994D01*
X57255059Y-72770573D01*
X57270867Y-72740669D01*
X57292629Y-72732209D01*
X57328466Y-72736990D01*
G37*
G36*
X59287414Y-73268701D02*
G01*
X59341875Y-73280638D01*
X59412157Y-73299553D01*
X59488751Y-73322612D01*
X59562147Y-73346980D01*
X59622837Y-73369823D01*
X59661313Y-73388307D01*
X59667561Y-73398220D01*
X59668140Y-73428229D01*
X59658847Y-73481499D01*
X59638821Y-73562622D01*
X59607198Y-73676191D01*
X59603481Y-73689152D01*
X59572471Y-73798144D01*
X59534593Y-73932421D01*
X59492888Y-74081146D01*
X59450395Y-74233482D01*
X59410155Y-74378591D01*
X59392557Y-74441924D01*
X59358518Y-74562403D01*
X59327761Y-74668686D01*
X59302026Y-74754893D01*
X59283053Y-74815147D01*
X59272580Y-74843568D01*
X59256807Y-74861924D01*
X59220780Y-74868688D01*
X59210965Y-74865989D01*
X59165024Y-74854741D01*
X59096214Y-74838802D01*
X59015356Y-74820699D01*
X58977650Y-74812240D01*
X58906889Y-74795421D01*
X58856212Y-74782060D01*
X58834692Y-74774479D01*
X58833666Y-74764692D01*
X58840242Y-74726107D01*
X58854941Y-74670106D01*
X58871248Y-74613744D01*
X58894779Y-74530674D01*
X58922329Y-74432272D01*
X58950744Y-74329744D01*
X58996593Y-74163544D01*
X59054816Y-73953128D01*
X59104030Y-73776228D01*
X59144948Y-73630358D01*
X59178288Y-73513033D01*
X59204762Y-73421768D01*
X59225087Y-73354077D01*
X59239976Y-73307475D01*
X59250146Y-73279477D01*
X59256312Y-73267598D01*
X59258282Y-73266575D01*
X59287414Y-73268701D01*
G37*
G36*
X58293468Y-72969985D02*
G01*
X58353842Y-72983660D01*
X58430645Y-73002886D01*
X58515405Y-73025503D01*
X58599645Y-73049350D01*
X58674893Y-73072268D01*
X58700731Y-73081436D01*
X58749676Y-73106847D01*
X58767701Y-73131141D01*
X58767554Y-73133557D01*
X58760861Y-73167970D01*
X58745667Y-73230544D01*
X58724002Y-73313234D01*
X58697894Y-73407994D01*
X58685680Y-73451533D01*
X58656673Y-73555852D01*
X58621533Y-73683068D01*
X58582330Y-73825612D01*
X58541135Y-73975914D01*
X58500017Y-74126405D01*
X58461046Y-74269515D01*
X58426292Y-74397674D01*
X58397825Y-74503312D01*
X58377715Y-74578860D01*
X58370926Y-74601801D01*
X58352714Y-74644827D01*
X58336465Y-74661898D01*
X58333982Y-74661691D01*
X58301538Y-74655636D01*
X58240431Y-74642454D01*
X58158337Y-74623839D01*
X58062933Y-74601488D01*
X58041020Y-74596257D01*
X57943050Y-74571883D01*
X57877094Y-74552948D01*
X57837854Y-74537443D01*
X57820032Y-74523358D01*
X57818329Y-74508681D01*
X57820491Y-74501131D01*
X57832546Y-74458283D01*
X57853695Y-74382711D01*
X57882981Y-74277848D01*
X57919447Y-74147127D01*
X57962135Y-73993982D01*
X58010089Y-73821846D01*
X58062352Y-73634152D01*
X58117966Y-73434332D01*
X58175974Y-73225821D01*
X58182847Y-73201170D01*
X58208453Y-73110466D01*
X58229949Y-73036041D01*
X58245254Y-72985027D01*
X58252282Y-72964559D01*
X58257999Y-72964019D01*
X58293468Y-72969985D01*
G37*
G36*
X64766251Y-70951142D02*
G01*
X64782775Y-70954021D01*
X64855214Y-70969563D01*
X64941939Y-70991271D01*
X65032472Y-71016177D01*
X65116337Y-71041309D01*
X65183056Y-71063699D01*
X65222152Y-71080376D01*
X65227260Y-71084757D01*
X65231736Y-71104394D01*
X65223719Y-71141501D01*
X65201590Y-71201924D01*
X65163730Y-71291514D01*
X65118427Y-71400859D01*
X65044045Y-71601071D01*
X64968259Y-71827852D01*
X64893140Y-72073716D01*
X64820762Y-72331177D01*
X64753197Y-72592748D01*
X64692518Y-72850943D01*
X64640797Y-73098276D01*
X64600108Y-73327259D01*
X64599275Y-73332277D01*
X64581168Y-73391688D01*
X64554445Y-73418855D01*
X64512119Y-73423501D01*
X64440838Y-73422696D01*
X64351675Y-73417106D01*
X64255082Y-73407586D01*
X64161513Y-73394990D01*
X64081421Y-73380173D01*
X64064172Y-73376212D01*
X63957482Y-73344971D01*
X63884010Y-73307865D01*
X63838635Y-73261463D01*
X63816238Y-73202330D01*
X63811207Y-73132763D01*
X63817532Y-73025281D01*
X63835388Y-72889878D01*
X63863853Y-72731175D01*
X63902003Y-72553795D01*
X63948915Y-72362361D01*
X64003663Y-72161495D01*
X64065326Y-71955821D01*
X64103999Y-71836994D01*
X64170695Y-71649787D01*
X64239634Y-71476008D01*
X64308580Y-71320580D01*
X64375299Y-71188426D01*
X64437554Y-71084469D01*
X64493111Y-71013630D01*
X64533943Y-70977926D01*
X64593563Y-70949070D01*
X64667417Y-70940962D01*
X64766251Y-70951142D01*
G37*
G36*
X53262866Y-68429811D02*
G01*
X53309641Y-68435591D01*
X53377172Y-68446621D01*
X53455576Y-68460965D01*
X53534966Y-68476690D01*
X53605456Y-68491861D01*
X53657161Y-68504543D01*
X53680195Y-68512803D01*
X53680502Y-68514621D01*
X53676119Y-68543724D01*
X53663774Y-68603512D01*
X53644749Y-68688240D01*
X53620323Y-68792162D01*
X53591777Y-68909536D01*
X53549591Y-69082203D01*
X53502724Y-69280787D01*
X53465047Y-69450553D01*
X53435640Y-69596471D01*
X53413584Y-69723510D01*
X53397958Y-69836640D01*
X53387842Y-69940831D01*
X53382317Y-70041052D01*
X53374258Y-70159813D01*
X53357691Y-70299804D01*
X53334771Y-70443297D01*
X53307425Y-70579653D01*
X53277575Y-70698233D01*
X53247147Y-70788398D01*
X53247119Y-70788465D01*
X53225073Y-70830052D01*
X53195510Y-70848023D01*
X53142785Y-70851898D01*
X53090010Y-70846237D01*
X52999977Y-70824522D01*
X52892931Y-70789527D01*
X52778443Y-70744452D01*
X52666085Y-70692500D01*
X52631026Y-70673896D01*
X52568119Y-70629202D01*
X52532896Y-70577319D01*
X52520387Y-70508331D01*
X52525623Y-70412327D01*
X52529721Y-70377119D01*
X52560142Y-70174052D01*
X52603283Y-69951608D01*
X52656862Y-69718118D01*
X52718596Y-69481913D01*
X52786200Y-69251325D01*
X52857392Y-69034684D01*
X52929887Y-68840322D01*
X53001402Y-68676569D01*
X53017170Y-68644272D01*
X53066009Y-68552338D01*
X53108612Y-68490254D01*
X53150468Y-68452650D01*
X53197064Y-68434151D01*
X53253889Y-68429386D01*
X53262866Y-68429811D01*
G37*
G36*
X56299907Y-72550932D02*
G01*
X56318077Y-72551744D01*
X56340834Y-72552748D01*
X56405372Y-72559114D01*
X56489290Y-72570053D01*
X56580276Y-72584047D01*
X56590897Y-72585822D01*
X56679965Y-72602285D01*
X56736467Y-72616810D01*
X56766150Y-72631271D01*
X56774762Y-72647547D01*
X56774202Y-72651603D01*
X56765869Y-72687208D01*
X56748604Y-72753934D01*
X56723759Y-72846911D01*
X56692687Y-72961265D01*
X56656741Y-73092126D01*
X56617273Y-73234622D01*
X56575637Y-73383879D01*
X56533185Y-73535028D01*
X56491269Y-73683195D01*
X56451243Y-73823509D01*
X56414460Y-73951098D01*
X56382271Y-74061091D01*
X56380652Y-74066544D01*
X56360654Y-74130449D01*
X56344622Y-74175760D01*
X56335899Y-74192975D01*
X56314697Y-74189179D01*
X56263645Y-74177619D01*
X56192611Y-74160588D01*
X56110934Y-74140421D01*
X56027952Y-74119454D01*
X55953002Y-74100023D01*
X55895425Y-74084461D01*
X55864557Y-74075105D01*
X55861322Y-74073902D01*
X55848696Y-74068918D01*
X55839313Y-74061825D01*
X55833917Y-74049075D01*
X55833254Y-74027122D01*
X55838070Y-73992418D01*
X55849112Y-73941415D01*
X55867125Y-73870565D01*
X55892855Y-73776323D01*
X55927048Y-73655139D01*
X55970450Y-73503468D01*
X56023807Y-73317760D01*
X56077564Y-73130383D01*
X56122467Y-72974012D01*
X56158893Y-72848464D01*
X56188133Y-72750384D01*
X56211476Y-72676414D01*
X56230212Y-72623198D01*
X56245629Y-72587378D01*
X56259017Y-72565599D01*
X56271667Y-72554502D01*
X56284867Y-72550732D01*
X56299907Y-72550932D01*
G37*
G36*
X63320162Y-72748715D02*
G01*
X63319007Y-72760707D01*
X63312749Y-72805814D01*
X63302277Y-72874471D01*
X63288981Y-72957378D01*
X63287980Y-72963545D01*
X63267703Y-73160370D01*
X63274836Y-73330523D01*
X63309733Y-73475493D01*
X63372745Y-73596770D01*
X63464228Y-73695843D01*
X63503853Y-73732237D01*
X63540488Y-73774518D01*
X63554624Y-73803532D01*
X63549734Y-73827318D01*
X63532680Y-73885511D01*
X63504809Y-73972623D01*
X63467593Y-74084505D01*
X63422505Y-74217007D01*
X63371018Y-74365982D01*
X63314606Y-74527278D01*
X63254743Y-74696749D01*
X63192901Y-74870243D01*
X63130553Y-75043613D01*
X63069174Y-75212709D01*
X63010236Y-75373381D01*
X62955213Y-75521482D01*
X62905577Y-75652861D01*
X62862802Y-75763370D01*
X62828362Y-75848860D01*
X62821250Y-75865543D01*
X62790583Y-75929109D01*
X62763304Y-75973697D01*
X62744611Y-75990514D01*
X62742606Y-75990114D01*
X62715923Y-75973682D01*
X62667905Y-75937099D01*
X62604822Y-75885788D01*
X62532942Y-75825171D01*
X62458536Y-75760671D01*
X62387874Y-75697710D01*
X62327224Y-75641711D01*
X62282857Y-75598095D01*
X62261041Y-75572286D01*
X62260073Y-75562031D01*
X62266714Y-75515018D01*
X62283960Y-75432590D01*
X62311491Y-75316072D01*
X62348989Y-75166790D01*
X62396135Y-74986072D01*
X62452610Y-74775243D01*
X62493733Y-74623179D01*
X62550111Y-74414268D01*
X62608332Y-74198101D01*
X62665977Y-73983673D01*
X62720632Y-73779975D01*
X62769877Y-73596001D01*
X62811297Y-73440744D01*
X62962096Y-72874129D01*
X63053700Y-72851100D01*
X63078153Y-72844171D01*
X63158609Y-72814519D01*
X63232733Y-72779206D01*
X63266355Y-72761836D01*
X63305080Y-72746860D01*
X63320162Y-72748715D01*
G37*
G36*
X53390521Y-73730807D02*
G01*
X53432067Y-73738399D01*
X53502798Y-73753513D01*
X53597367Y-73774953D01*
X53710422Y-73801525D01*
X53836615Y-73832032D01*
X54125062Y-73902591D01*
X54801781Y-74067405D01*
X55444746Y-74222908D01*
X56056765Y-74369745D01*
X56640648Y-74508565D01*
X57199201Y-74640013D01*
X57735234Y-74764738D01*
X58251555Y-74883387D01*
X58750971Y-74996605D01*
X59236291Y-75105042D01*
X59710324Y-75209342D01*
X60175877Y-75310154D01*
X60635759Y-75408124D01*
X61092777Y-75503900D01*
X61232129Y-75532851D01*
X61419839Y-75571878D01*
X61575131Y-75604391D01*
X61701547Y-75631338D01*
X61802627Y-75653664D01*
X61881914Y-75672314D01*
X61942948Y-75688237D01*
X61989272Y-75702376D01*
X62024427Y-75715679D01*
X62051954Y-75729092D01*
X62075396Y-75743561D01*
X62098293Y-75760032D01*
X62124187Y-75779451D01*
X62133365Y-75786307D01*
X62202542Y-75840120D01*
X62276436Y-75900635D01*
X62349180Y-75962660D01*
X62414906Y-76021003D01*
X62467749Y-76070473D01*
X62501841Y-76105878D01*
X62511316Y-76122026D01*
X62509174Y-76123263D01*
X62478919Y-76130396D01*
X62422189Y-76139138D01*
X62349104Y-76147876D01*
X62348142Y-76147976D01*
X62278329Y-76152471D01*
X62176135Y-76155407D01*
X62048097Y-76156875D01*
X61900752Y-76156969D01*
X61740637Y-76155783D01*
X61574288Y-76153408D01*
X61408245Y-76149937D01*
X61249042Y-76145465D01*
X61103218Y-76140083D01*
X60977310Y-76133884D01*
X60877854Y-76126962D01*
X60579148Y-76097434D01*
X60093320Y-76035135D01*
X59574571Y-75952291D01*
X59022830Y-75848886D01*
X58438026Y-75724910D01*
X57820085Y-75580349D01*
X57450070Y-75488401D01*
X56944913Y-75356970D01*
X56474142Y-75227157D01*
X56038263Y-75099134D01*
X55637782Y-74973078D01*
X55273207Y-74849163D01*
X54945045Y-74727562D01*
X54653802Y-74608451D01*
X54399985Y-74492004D01*
X54184102Y-74378395D01*
X54006658Y-74267798D01*
X53962234Y-74235832D01*
X53889783Y-74180316D01*
X53807566Y-74114532D01*
X53720621Y-74042813D01*
X53633983Y-73969489D01*
X53552692Y-73898894D01*
X53481784Y-73835358D01*
X53426298Y-73783213D01*
X53391270Y-73746792D01*
X53381738Y-73730425D01*
X53390521Y-73730807D01*
G37*
G36*
X64537360Y-70089502D02*
G01*
X64579253Y-70133355D01*
X64624526Y-70191032D01*
X64667699Y-70256207D01*
X64703293Y-70322553D01*
X64719812Y-70363779D01*
X64745268Y-70451808D01*
X64763788Y-70546893D01*
X64772830Y-70634595D01*
X64769850Y-70700475D01*
X64764279Y-70714606D01*
X64737465Y-70730281D01*
X64681537Y-70734776D01*
X64646334Y-70735679D01*
X64546041Y-70750536D01*
X64457493Y-70786308D01*
X64376736Y-70846460D01*
X64299815Y-70934458D01*
X64222775Y-71053768D01*
X64141660Y-71207856D01*
X64078046Y-71347020D01*
X63992605Y-71560856D01*
X63909350Y-71798027D01*
X63831029Y-72049572D01*
X63760391Y-72306531D01*
X63700182Y-72559943D01*
X63653151Y-72800848D01*
X63640302Y-72880133D01*
X63620341Y-73039598D01*
X63614603Y-73168460D01*
X63623687Y-73270990D01*
X63648192Y-73351462D01*
X63688713Y-73414148D01*
X63745851Y-73463321D01*
X63775776Y-73479996D01*
X63858989Y-73511965D01*
X63969736Y-73542466D01*
X64100440Y-73569798D01*
X64243523Y-73592261D01*
X64391407Y-73608156D01*
X64467513Y-73614545D01*
X64540651Y-73622224D01*
X64589306Y-73631185D01*
X64621747Y-73643847D01*
X64646239Y-73662626D01*
X64671052Y-73689942D01*
X64684430Y-73705992D01*
X64713975Y-73745328D01*
X64726137Y-73768014D01*
X64716752Y-73775650D01*
X64675467Y-73781610D01*
X64607777Y-73782680D01*
X64520783Y-73779188D01*
X64421586Y-73771457D01*
X64317285Y-73759815D01*
X64214980Y-73744585D01*
X64198842Y-73741800D01*
X64005973Y-73703409D01*
X63848748Y-73661060D01*
X63724045Y-73613321D01*
X63628742Y-73558763D01*
X63559717Y-73495958D01*
X63513849Y-73423474D01*
X63494483Y-73363411D01*
X63480266Y-73251638D01*
X63480582Y-73112758D01*
X63494512Y-72951745D01*
X63521143Y-72773575D01*
X63559558Y-72583224D01*
X63608842Y-72385667D01*
X63668078Y-72185880D01*
X63736351Y-71988837D01*
X63812745Y-71799514D01*
X63854742Y-71702414D01*
X63949094Y-71479136D01*
X64044670Y-71246598D01*
X64137918Y-71013734D01*
X64225286Y-70789476D01*
X64303222Y-70582759D01*
X64368175Y-70402514D01*
X64392326Y-70333400D01*
X64426260Y-70236470D01*
X64454608Y-70155715D01*
X64474943Y-70098042D01*
X64484838Y-70070360D01*
X64485637Y-70068576D01*
X64504328Y-70065800D01*
X64537360Y-70089502D01*
G37*
G36*
X57555240Y-68764935D02*
G01*
X57528326Y-68874938D01*
X57488722Y-69016825D01*
X57472341Y-69072743D01*
X57400670Y-69303032D01*
X57322962Y-69532374D01*
X57241363Y-69755472D01*
X57158023Y-69967028D01*
X57075087Y-70161747D01*
X56994704Y-70334329D01*
X56919021Y-70479478D01*
X56850185Y-70591898D01*
X56815090Y-70637298D01*
X56770428Y-70671791D01*
X56711107Y-70690285D01*
X56693893Y-70693285D01*
X56641170Y-70697911D01*
X56576512Y-70696895D01*
X56495574Y-70689670D01*
X56394008Y-70675667D01*
X56267468Y-70654321D01*
X56111605Y-70625063D01*
X55922074Y-70587326D01*
X55705924Y-70542392D01*
X55434949Y-70482801D01*
X55182413Y-70423515D01*
X54950836Y-70365256D01*
X54742739Y-70308747D01*
X54560641Y-70254709D01*
X54407064Y-70203864D01*
X54284526Y-70156933D01*
X54195549Y-70114639D01*
X54142653Y-70077703D01*
X54142006Y-70077053D01*
X54118433Y-70044622D01*
X54104052Y-70000842D01*
X54098802Y-69940372D01*
X54102620Y-69857870D01*
X54115445Y-69747997D01*
X54120801Y-69712922D01*
X55602470Y-69712922D01*
X55603804Y-69728143D01*
X55616896Y-69756309D01*
X55648073Y-69782155D01*
X55702352Y-69808374D01*
X55784750Y-69837656D01*
X55900284Y-69872694D01*
X55972903Y-69893150D01*
X56052646Y-69914084D01*
X56113567Y-69928330D01*
X56146371Y-69933591D01*
X56149632Y-69933475D01*
X56193328Y-69915355D01*
X56231127Y-69877135D01*
X56247229Y-69834360D01*
X56247251Y-69833758D01*
X56252461Y-69805740D01*
X56265972Y-69745373D01*
X56286549Y-69657830D01*
X56312962Y-69548285D01*
X56343978Y-69421913D01*
X56378364Y-69283885D01*
X56378648Y-69282754D01*
X56417496Y-69126954D01*
X56447280Y-69004621D01*
X56468793Y-68911442D01*
X56482833Y-68843101D01*
X56490193Y-68795285D01*
X56491671Y-68763677D01*
X56488061Y-68743964D01*
X56480160Y-68731830D01*
X56480038Y-68731710D01*
X56449983Y-68715785D01*
X56390438Y-68694208D01*
X56309968Y-68669796D01*
X56217140Y-68645366D01*
X56151705Y-68629688D01*
X56054276Y-68609529D01*
X55984529Y-68603049D01*
X55936024Y-68612126D01*
X55902318Y-68638642D01*
X55876969Y-68684478D01*
X55853537Y-68751514D01*
X55848862Y-68766548D01*
X55824592Y-68848314D01*
X55795788Y-68949994D01*
X55764117Y-69065192D01*
X55731251Y-69187514D01*
X55698860Y-69310565D01*
X55668613Y-69427949D01*
X55642180Y-69533272D01*
X55621232Y-69620138D01*
X55607439Y-69682154D01*
X55602470Y-69712922D01*
X54120801Y-69712922D01*
X54137216Y-69605412D01*
X54151042Y-69525490D01*
X54178600Y-69382320D01*
X54211924Y-69223318D01*
X54249527Y-69054502D01*
X54289925Y-68881890D01*
X54331633Y-68711499D01*
X54373166Y-68549348D01*
X54413037Y-68401456D01*
X54449764Y-68273839D01*
X54481859Y-68172517D01*
X54507839Y-68103508D01*
X54530223Y-68057645D01*
X54563539Y-68011485D01*
X54606518Y-67982075D01*
X54666411Y-67966644D01*
X54750468Y-67962418D01*
X54865939Y-67966629D01*
X55005721Y-67977505D01*
X55171876Y-67995927D01*
X55355908Y-68020786D01*
X55553779Y-68051219D01*
X55761449Y-68086364D01*
X55974879Y-68125357D01*
X56190032Y-68167337D01*
X56402867Y-68211440D01*
X56609346Y-68256804D01*
X56805429Y-68302567D01*
X56987079Y-68347865D01*
X57150256Y-68391836D01*
X57290920Y-68433618D01*
X57405034Y-68472348D01*
X57488557Y-68507163D01*
X57537452Y-68537201D01*
X57545966Y-68545751D01*
X57564828Y-68577224D01*
X57572994Y-68620978D01*
X57569963Y-68681915D01*
X57555463Y-68763677D01*
X57555240Y-68764935D01*
G37*
G36*
X63617585Y-70038029D02*
G01*
X63650484Y-70073149D01*
X63667199Y-70111037D01*
X63671854Y-70154313D01*
X63671787Y-70157930D01*
X63662626Y-70215783D01*
X63639289Y-70304131D01*
X63603575Y-70418309D01*
X63557284Y-70553653D01*
X63502215Y-70705498D01*
X63440168Y-70869178D01*
X63372942Y-71040030D01*
X63302338Y-71213388D01*
X63230153Y-71384588D01*
X63158188Y-71548965D01*
X63088243Y-71701854D01*
X63022116Y-71838591D01*
X62976313Y-71927994D01*
X62910522Y-72046385D01*
X62853765Y-72133699D01*
X62803613Y-72193528D01*
X62757635Y-72229464D01*
X62742764Y-72236737D01*
X62707292Y-72246821D01*
X62661056Y-72250418D01*
X62600221Y-72246932D01*
X62520957Y-72235762D01*
X62419431Y-72216312D01*
X62291810Y-72187983D01*
X62134263Y-72150176D01*
X61942957Y-72102294D01*
X61878866Y-72085942D01*
X61644855Y-72024624D01*
X61412136Y-71961267D01*
X61184036Y-71896928D01*
X60963881Y-71832667D01*
X60754996Y-71769540D01*
X60560707Y-71708608D01*
X60384342Y-71650927D01*
X60229224Y-71597557D01*
X60098682Y-71549555D01*
X59996040Y-71507980D01*
X59924625Y-71473891D01*
X59887763Y-71448345D01*
X59882957Y-71442620D01*
X59854967Y-71392666D01*
X59836371Y-71322735D01*
X59827155Y-71229833D01*
X59827308Y-71110963D01*
X59835788Y-70979085D01*
X60804338Y-70979085D01*
X60809956Y-71004812D01*
X60822034Y-71020067D01*
X60822942Y-71020707D01*
X60853549Y-71034567D01*
X60912885Y-71056327D01*
X60992787Y-71083129D01*
X61085090Y-71112117D01*
X61093962Y-71114810D01*
X61184698Y-71141800D01*
X61261896Y-71163805D01*
X61317631Y-71178623D01*
X61343974Y-71184052D01*
X61360841Y-71179581D01*
X61398227Y-71151599D01*
X61430641Y-71110817D01*
X61444470Y-71072362D01*
X61448020Y-71051027D01*
X61460402Y-70995627D01*
X61480381Y-70912574D01*
X61506618Y-70807311D01*
X61537775Y-70685282D01*
X61572511Y-70551931D01*
X61601733Y-70438879D01*
X61633077Y-70312764D01*
X61659327Y-70201703D01*
X61679195Y-70111358D01*
X61691391Y-70047393D01*
X61694626Y-70015474D01*
X61682496Y-69980450D01*
X61639854Y-69952140D01*
X61525482Y-69920454D01*
X61377064Y-69881738D01*
X61264686Y-69855957D01*
X61187879Y-69843006D01*
X61146171Y-69842780D01*
X61130441Y-69849035D01*
X61114628Y-69862726D01*
X61098457Y-69887410D01*
X61080553Y-69926914D01*
X61059540Y-69985065D01*
X61034043Y-70065689D01*
X61002687Y-70172613D01*
X60964096Y-70309664D01*
X60916895Y-70480668D01*
X60899103Y-70545740D01*
X60861297Y-70687097D01*
X60833659Y-70796892D01*
X60815448Y-70879343D01*
X60805922Y-70938668D01*
X60804338Y-70979085D01*
X59835788Y-70979085D01*
X59836814Y-70963130D01*
X59855661Y-70783338D01*
X59883836Y-70568591D01*
X59896003Y-70486657D01*
X59927220Y-70304250D01*
X59963724Y-70120897D01*
X60004153Y-69941551D01*
X60047147Y-69771164D01*
X60091341Y-69614688D01*
X60135375Y-69477074D01*
X60177885Y-69363277D01*
X60217510Y-69278247D01*
X60252887Y-69226937D01*
X60260948Y-69219239D01*
X60291958Y-69196654D01*
X60330106Y-69181578D01*
X60379805Y-69174223D01*
X60445466Y-69174801D01*
X60531505Y-69183525D01*
X60642333Y-69200605D01*
X60782363Y-69226253D01*
X60956008Y-69260682D01*
X61232124Y-69319029D01*
X61582843Y-69399384D01*
X61936446Y-69486814D01*
X62284583Y-69579092D01*
X62618904Y-69673989D01*
X62931060Y-69769279D01*
X63212701Y-69862733D01*
X63241649Y-69872852D01*
X63380533Y-69923090D01*
X63486734Y-69965619D01*
X63564376Y-70003059D01*
X63583266Y-70015474D01*
X63617585Y-70038029D01*
G37*
G36*
X56330039Y-65971204D02*
G01*
X56463018Y-65983069D01*
X56628683Y-66002431D01*
X56824252Y-66028819D01*
X57046945Y-66061760D01*
X57293981Y-66100782D01*
X57562581Y-66145413D01*
X57849964Y-66195179D01*
X58153350Y-66249609D01*
X58469958Y-66308230D01*
X58797009Y-66370571D01*
X59131721Y-66436158D01*
X59471314Y-66504519D01*
X59813008Y-66575182D01*
X60268570Y-66672617D01*
X60789669Y-66789503D01*
X61275093Y-66904831D01*
X61726669Y-67019099D01*
X62146221Y-67132804D01*
X62535577Y-67246444D01*
X62896561Y-67360518D01*
X63231001Y-67475524D01*
X63540722Y-67591960D01*
X63555310Y-67597710D01*
X63668073Y-67643474D01*
X63748827Y-67681488D01*
X63801766Y-67716952D01*
X63831081Y-67755064D01*
X63840966Y-67801023D01*
X63835612Y-67860025D01*
X63819211Y-67937270D01*
X63812440Y-67965243D01*
X63794488Y-68035802D01*
X63769634Y-68130901D01*
X63739293Y-68245348D01*
X63704877Y-68373952D01*
X63667799Y-68511520D01*
X63629474Y-68652862D01*
X63591315Y-68792785D01*
X63554735Y-68926098D01*
X63521147Y-69047609D01*
X63491965Y-69152127D01*
X63468603Y-69234460D01*
X63452473Y-69289417D01*
X63444990Y-69311805D01*
X63443948Y-69312963D01*
X63418405Y-69315400D01*
X63373629Y-69306161D01*
X63350385Y-69299240D01*
X63033168Y-69206663D01*
X62713902Y-69116840D01*
X62396154Y-69030612D01*
X62083490Y-68948822D01*
X61779478Y-68872311D01*
X61487682Y-68801922D01*
X61211671Y-68738497D01*
X60955010Y-68682877D01*
X60721267Y-68635906D01*
X60514008Y-68598423D01*
X60336799Y-68571273D01*
X60193207Y-68555297D01*
X60107686Y-68550611D01*
X59990290Y-68556013D01*
X59895275Y-68580925D01*
X59817178Y-68629196D01*
X59750541Y-68704678D01*
X59689901Y-68811224D01*
X59629799Y-68952683D01*
X59613793Y-68993963D01*
X59570846Y-69099125D01*
X59534869Y-69173846D01*
X59501904Y-69223173D01*
X59467988Y-69252155D01*
X59429163Y-69265842D01*
X59381469Y-69269283D01*
X59368757Y-69268620D01*
X59312006Y-69260897D01*
X59227107Y-69245708D01*
X59120707Y-69224564D01*
X58999453Y-69198974D01*
X58869993Y-69170446D01*
X58738974Y-69140492D01*
X58613043Y-69110619D01*
X58498848Y-69082339D01*
X58403036Y-69057159D01*
X58332254Y-69036590D01*
X58293150Y-69022142D01*
X58292029Y-69021560D01*
X58246526Y-68991230D01*
X58219537Y-68952970D01*
X58209705Y-68899556D01*
X58215674Y-68823767D01*
X58236087Y-68718381D01*
X58236358Y-68717159D01*
X58262205Y-68597994D01*
X58279584Y-68509461D01*
X58289296Y-68444297D01*
X58292143Y-68395238D01*
X58288926Y-68355022D01*
X58280448Y-68316386D01*
X58273441Y-68293947D01*
X58244718Y-68236270D01*
X58199725Y-68182734D01*
X58135672Y-68132052D01*
X58049769Y-68082938D01*
X57939226Y-68034105D01*
X57801253Y-67984268D01*
X57633060Y-67932139D01*
X57431857Y-67876433D01*
X57194854Y-67815863D01*
X57159952Y-67807265D01*
X56962265Y-67760276D01*
X56746029Y-67711352D01*
X56519305Y-67662149D01*
X56290150Y-67614321D01*
X56066625Y-67569524D01*
X55856788Y-67529414D01*
X55668699Y-67495646D01*
X55510417Y-67469875D01*
X55486992Y-67466235D01*
X55413179Y-67453301D01*
X55356664Y-67441214D01*
X55328159Y-67432190D01*
X55326324Y-67414838D01*
X55339211Y-67363104D01*
X55368345Y-67277080D01*
X55413849Y-67156407D01*
X55475844Y-67000724D01*
X55477207Y-66997365D01*
X55563680Y-66787919D01*
X55644333Y-66599875D01*
X55717946Y-66435799D01*
X55783300Y-66298259D01*
X55839176Y-66189821D01*
X55884355Y-66113052D01*
X55917617Y-66070520D01*
X55934401Y-66056631D01*
X56019071Y-66010035D01*
X56123968Y-65978737D01*
X56235042Y-65967307D01*
X56330039Y-65971204D01*
G37*
G36*
X58016088Y-68616078D02*
G01*
X57981493Y-68750017D01*
X57935547Y-68906646D01*
X57879867Y-69081590D01*
X57816067Y-69270476D01*
X57745765Y-69468931D01*
X57670577Y-69672581D01*
X57592119Y-69877053D01*
X57512007Y-70077973D01*
X57431858Y-70270968D01*
X57353287Y-70451665D01*
X57277912Y-70615689D01*
X57207347Y-70758667D01*
X57143211Y-70876227D01*
X57122413Y-70910900D01*
X57076581Y-70976912D01*
X57033026Y-71020118D01*
X56982894Y-71050123D01*
X56962657Y-71059170D01*
X56919109Y-71073553D01*
X56869082Y-71080748D01*
X56801777Y-71081843D01*
X56706393Y-71077923D01*
X56648490Y-71073838D01*
X56529180Y-71061683D01*
X56402040Y-71045101D01*
X56286316Y-71026452D01*
X56214360Y-71012892D01*
X56061811Y-70982301D01*
X55883932Y-70944836D01*
X55688729Y-70902298D01*
X55484207Y-70856490D01*
X55278369Y-70809215D01*
X55079221Y-70762276D01*
X54894766Y-70717476D01*
X54733008Y-70676617D01*
X54596030Y-70640745D01*
X54387784Y-70584229D01*
X54212825Y-70533625D01*
X54067982Y-70487758D01*
X53950081Y-70445454D01*
X53855950Y-70405536D01*
X53782416Y-70366832D01*
X53726306Y-70328165D01*
X53684447Y-70288362D01*
X53623630Y-70219095D01*
X53635300Y-70012843D01*
X53636980Y-69991055D01*
X53867922Y-69991055D01*
X53871661Y-70087745D01*
X53888263Y-70159057D01*
X53921543Y-70213065D01*
X53975313Y-70257842D01*
X54053386Y-70301463D01*
X54114731Y-70329371D01*
X54235816Y-70375948D01*
X54387807Y-70427154D01*
X54566144Y-70481785D01*
X54766266Y-70538641D01*
X54983612Y-70596518D01*
X55213622Y-70654215D01*
X55451734Y-70710530D01*
X55693390Y-70764260D01*
X55934027Y-70814203D01*
X56169085Y-70859157D01*
X56226042Y-70869387D01*
X56409866Y-70899232D01*
X56561938Y-70916765D01*
X56686843Y-70920662D01*
X56789170Y-70909595D01*
X56873505Y-70882237D01*
X56944437Y-70837262D01*
X57006552Y-70773344D01*
X57064437Y-70689154D01*
X57122680Y-70583368D01*
X57135722Y-70557654D01*
X57207751Y-70407450D01*
X57282784Y-70238632D01*
X57359086Y-70056131D01*
X57434921Y-69864877D01*
X57508556Y-69669799D01*
X57578255Y-69475827D01*
X57642284Y-69287891D01*
X57698907Y-69110921D01*
X57746390Y-68949848D01*
X57782998Y-68809599D01*
X57806996Y-68695107D01*
X57816649Y-68611300D01*
X57816796Y-68605388D01*
X57810534Y-68512728D01*
X57783317Y-68441887D01*
X57729300Y-68383334D01*
X57642642Y-68327541D01*
X57576011Y-68296667D01*
X57465531Y-68256419D01*
X57324523Y-68212746D01*
X57157429Y-68166545D01*
X56968689Y-68118711D01*
X56762743Y-68070140D01*
X56544032Y-68021727D01*
X56316996Y-67974367D01*
X56086075Y-67928957D01*
X55855711Y-67886392D01*
X55630344Y-67847568D01*
X55414413Y-67813379D01*
X55212361Y-67784722D01*
X55028626Y-67762492D01*
X54867650Y-67747585D01*
X54733874Y-67740897D01*
X54702575Y-67740642D01*
X54571730Y-67750359D01*
X54470014Y-67780663D01*
X54392234Y-67834903D01*
X54333193Y-67916429D01*
X54287697Y-68028591D01*
X54268761Y-68089780D01*
X54214116Y-68276683D01*
X54159371Y-68477916D01*
X54105798Y-68687734D01*
X54054668Y-68900389D01*
X54007253Y-69110134D01*
X53964826Y-69311221D01*
X53928658Y-69497904D01*
X53900021Y-69664434D01*
X53880187Y-69805066D01*
X53870428Y-69914052D01*
X53867922Y-69991055D01*
X53636980Y-69991055D01*
X53639280Y-69961217D01*
X53655480Y-69828572D01*
X53681611Y-69665087D01*
X53716722Y-69475182D01*
X53759860Y-69263282D01*
X53810074Y-69033806D01*
X53866410Y-68791177D01*
X53927916Y-68539817D01*
X53993641Y-68284147D01*
X54062631Y-68028591D01*
X54078959Y-67970055D01*
X54116040Y-67843270D01*
X54148057Y-67747770D01*
X54177858Y-67678698D01*
X54208293Y-67631196D01*
X54242210Y-67600408D01*
X54282457Y-67581476D01*
X54331885Y-67569544D01*
X54331909Y-67569539D01*
X54415408Y-67562264D01*
X54533323Y-67563874D01*
X54682153Y-67573812D01*
X54858395Y-67591523D01*
X55058549Y-67616451D01*
X55279112Y-67648040D01*
X55516583Y-67685735D01*
X55767459Y-67728979D01*
X56028239Y-67777217D01*
X56295421Y-67829892D01*
X56565504Y-67886450D01*
X56834985Y-67946334D01*
X57100363Y-68008988D01*
X57283983Y-68054632D01*
X57472930Y-68104352D01*
X57628540Y-68149005D01*
X57753629Y-68189517D01*
X57851015Y-68226811D01*
X57923518Y-68261811D01*
X57973953Y-68295441D01*
X57975983Y-68297118D01*
X58020162Y-68339423D01*
X58040114Y-68379990D01*
X58044777Y-68436641D01*
X58037715Y-68509201D01*
X58018251Y-68605388D01*
X58016088Y-68616078D01*
G37*
G36*
X64178939Y-70206349D02*
G01*
X64135020Y-70341800D01*
X64081657Y-70496717D01*
X64020414Y-70666912D01*
X63952852Y-70848199D01*
X63880535Y-71036389D01*
X63805026Y-71227296D01*
X63727887Y-71416731D01*
X63650680Y-71600509D01*
X63574970Y-71774441D01*
X63502318Y-71934341D01*
X63469938Y-72003346D01*
X63388377Y-72171663D01*
X63317539Y-72307980D01*
X63255207Y-72415667D01*
X63199166Y-72498096D01*
X63147199Y-72558637D01*
X63097090Y-72600661D01*
X63046624Y-72627539D01*
X62991568Y-72640824D01*
X62896263Y-72646891D01*
X62776229Y-72642247D01*
X62638417Y-72627208D01*
X62489777Y-72602092D01*
X62481561Y-72600451D01*
X62369585Y-72576187D01*
X62226538Y-72542504D01*
X62058290Y-72500953D01*
X61870714Y-72453088D01*
X61669683Y-72400463D01*
X61461067Y-72344631D01*
X61250740Y-72287144D01*
X61044574Y-72229556D01*
X60848440Y-72173420D01*
X60668211Y-72120289D01*
X60576568Y-72092673D01*
X60347028Y-72022138D01*
X60151410Y-71959510D01*
X59986812Y-71903514D01*
X59850334Y-71852881D01*
X59739072Y-71806337D01*
X59650126Y-71762611D01*
X59580593Y-71720431D01*
X59527573Y-71678524D01*
X59488162Y-71635620D01*
X59459460Y-71590445D01*
X59444998Y-71547773D01*
X59433070Y-71459995D01*
X59429463Y-71341332D01*
X59432290Y-71244425D01*
X59606170Y-71244425D01*
X59610581Y-71370603D01*
X59623813Y-71467236D01*
X59646296Y-71530168D01*
X59677494Y-71571332D01*
X59743934Y-71627871D01*
X59839625Y-71683283D01*
X59969316Y-71740663D01*
X59977716Y-71744009D01*
X60106292Y-71791916D01*
X60266804Y-71846849D01*
X60453547Y-71907186D01*
X60660818Y-71971300D01*
X60882912Y-72037569D01*
X61114124Y-72104367D01*
X61348751Y-72170070D01*
X61581088Y-72233054D01*
X61805431Y-72291694D01*
X62016076Y-72344366D01*
X62207319Y-72389445D01*
X62373455Y-72425307D01*
X62375421Y-72425705D01*
X62539255Y-72454630D01*
X62672128Y-72467887D01*
X62779075Y-72464884D01*
X62865132Y-72445030D01*
X62935336Y-72407734D01*
X62994725Y-72352405D01*
X63000693Y-72345200D01*
X63044362Y-72280919D01*
X63099196Y-72184634D01*
X63163355Y-72060417D01*
X63234997Y-71912337D01*
X63312282Y-71744465D01*
X63393371Y-71560872D01*
X63476421Y-71365627D01*
X63559594Y-71162802D01*
X63641048Y-70956467D01*
X63718943Y-70750693D01*
X63748630Y-70670086D01*
X63805709Y-70512176D01*
X63849840Y-70384623D01*
X63882193Y-70283354D01*
X63903936Y-70204292D01*
X63916238Y-70143366D01*
X63920267Y-70096500D01*
X63917192Y-70059620D01*
X63911945Y-70038205D01*
X63868293Y-69954576D01*
X63791925Y-69876968D01*
X63687914Y-69810882D01*
X63601380Y-69771773D01*
X63472666Y-69721804D01*
X63313951Y-69666144D01*
X63129589Y-69605960D01*
X62923934Y-69542421D01*
X62701339Y-69476694D01*
X62466157Y-69409948D01*
X62222742Y-69343349D01*
X61975448Y-69278067D01*
X61728627Y-69215268D01*
X61486632Y-69156122D01*
X61253818Y-69101794D01*
X61034538Y-69053455D01*
X60833145Y-69012271D01*
X60653992Y-68979410D01*
X60501433Y-68956040D01*
X60432587Y-68948309D01*
X60310547Y-68944947D01*
X60213947Y-68960354D01*
X60136027Y-68996061D01*
X60070023Y-69053595D01*
X60057915Y-69067566D01*
X60021968Y-69117607D01*
X59988506Y-69180063D01*
X59955552Y-69260127D01*
X59921131Y-69362988D01*
X59883266Y-69493838D01*
X59839982Y-69657868D01*
X59836826Y-69670251D01*
X59786152Y-69883129D01*
X59740858Y-70099720D01*
X59701375Y-70315866D01*
X59668132Y-70527410D01*
X59641561Y-70730195D01*
X59622090Y-70920064D01*
X59610149Y-71092859D01*
X59606170Y-71244425D01*
X59432290Y-71244425D01*
X59433706Y-71195871D01*
X59445328Y-71027695D01*
X59463859Y-70840890D01*
X59488827Y-70639541D01*
X59519762Y-70427734D01*
X59556193Y-70209553D01*
X59597649Y-69989084D01*
X59643659Y-69770412D01*
X59693753Y-69557622D01*
X59700937Y-69528951D01*
X59755314Y-69322556D01*
X59805341Y-69152968D01*
X59851664Y-69018469D01*
X59894927Y-68917337D01*
X59935778Y-68847852D01*
X59974861Y-68808293D01*
X59998624Y-68794922D01*
X60048856Y-68777564D01*
X60112860Y-68768264D01*
X60194057Y-68767334D01*
X60295867Y-68775081D01*
X60421711Y-68791816D01*
X60575009Y-68817849D01*
X60759181Y-68853488D01*
X60977649Y-68899043D01*
X61119207Y-68929945D01*
X61355100Y-68983871D01*
X61602381Y-69043049D01*
X61857241Y-69106405D01*
X62115874Y-69172865D01*
X62374475Y-69241356D01*
X62629238Y-69310804D01*
X62876355Y-69380136D01*
X63112021Y-69448278D01*
X63332430Y-69514155D01*
X63533775Y-69576696D01*
X63712250Y-69634825D01*
X63864048Y-69687469D01*
X63985365Y-69733555D01*
X64072393Y-69772008D01*
X64114181Y-69793442D01*
X64178567Y-69831988D01*
X64216295Y-69867817D01*
X64234038Y-69908558D01*
X64238470Y-69961838D01*
X64232197Y-70010593D01*
X64211853Y-70094550D01*
X64211279Y-70096500D01*
X64178939Y-70206349D01*
G37*
G36*
X58067718Y-69769074D02*
G01*
X58135640Y-69780047D01*
X58227658Y-69798196D01*
X58348482Y-69823825D01*
X58502826Y-69857239D01*
X58647066Y-69889010D01*
X58847231Y-69935435D01*
X59010846Y-69976765D01*
X59139208Y-70013382D01*
X59233615Y-70045666D01*
X59295362Y-70073998D01*
X59325747Y-70098758D01*
X59328032Y-70102400D01*
X59336945Y-70123114D01*
X59341236Y-70152130D01*
X59340579Y-70195504D01*
X59334648Y-70259288D01*
X59323118Y-70349538D01*
X59305664Y-70472307D01*
X59288709Y-70591124D01*
X59261291Y-70798295D01*
X59241032Y-70977001D01*
X59227320Y-71133706D01*
X59219542Y-71274877D01*
X59217085Y-71406978D01*
X59217451Y-71467350D01*
X59220566Y-71546119D01*
X59228458Y-71603997D01*
X59243026Y-71652432D01*
X59266169Y-71702870D01*
X59336276Y-71802186D01*
X59444084Y-71894293D01*
X59589292Y-71977641D01*
X59651047Y-72005139D01*
X59767842Y-72050821D01*
X59915093Y-72103284D01*
X60088357Y-72161254D01*
X60283194Y-72223452D01*
X60495162Y-72288603D01*
X60719820Y-72355430D01*
X60952726Y-72422657D01*
X61189438Y-72489007D01*
X61425516Y-72553203D01*
X61656517Y-72613970D01*
X61878001Y-72670030D01*
X62085526Y-72720108D01*
X62274650Y-72762926D01*
X62440931Y-72797209D01*
X62487469Y-72806237D01*
X62581798Y-72824871D01*
X62658465Y-72840475D01*
X62710560Y-72851627D01*
X62731175Y-72856906D01*
X62730982Y-72866146D01*
X62722585Y-72909010D01*
X62705273Y-72983283D01*
X62680069Y-73085206D01*
X62647994Y-73211020D01*
X62610070Y-73356968D01*
X62567319Y-73519290D01*
X62520763Y-73694229D01*
X62471423Y-73878025D01*
X62420322Y-74066920D01*
X62368480Y-74257156D01*
X62316921Y-74444974D01*
X62266666Y-74626616D01*
X62218736Y-74798323D01*
X62174153Y-74956337D01*
X62133940Y-75096899D01*
X62099118Y-75216251D01*
X62070709Y-75310635D01*
X62049734Y-75376291D01*
X62037215Y-75409462D01*
X62033815Y-75415943D01*
X62004491Y-75450770D01*
X61966509Y-75454550D01*
X61959713Y-75453197D01*
X61907216Y-75443728D01*
X61845008Y-75433513D01*
X61802034Y-75425838D01*
X61728830Y-75411572D01*
X61631367Y-75391937D01*
X61514857Y-75368039D01*
X61384510Y-75340980D01*
X61245537Y-75311867D01*
X61103150Y-75281803D01*
X60962559Y-75251892D01*
X60828975Y-75223240D01*
X60707610Y-75196952D01*
X60603673Y-75174130D01*
X60522377Y-75155881D01*
X60468932Y-75143308D01*
X60448549Y-75137516D01*
X60447151Y-75132196D01*
X60443486Y-75094803D01*
X60439190Y-75026685D01*
X60434558Y-74933545D01*
X60429889Y-74821083D01*
X60425480Y-74695003D01*
X60416120Y-74477276D01*
X60398336Y-74236500D01*
X60373295Y-74028996D01*
X60340426Y-73851812D01*
X60299159Y-73701997D01*
X60248923Y-73576598D01*
X60189147Y-73472665D01*
X60187317Y-73470009D01*
X60140046Y-73406475D01*
X60089259Y-73350058D01*
X60031152Y-73298848D01*
X59961919Y-73250933D01*
X59877757Y-73204405D01*
X59774861Y-73157351D01*
X59649427Y-73107863D01*
X59497651Y-73054030D01*
X59315728Y-72993942D01*
X59099854Y-72925687D01*
X58833673Y-72844991D01*
X58456088Y-72737692D01*
X58074310Y-72637016D01*
X57694992Y-72544501D01*
X57324786Y-72461684D01*
X56970343Y-72390102D01*
X56638316Y-72331293D01*
X56335356Y-72286793D01*
X56259312Y-72277597D01*
X56101326Y-72263926D01*
X55970648Y-72262324D01*
X55860169Y-72273308D01*
X55762782Y-72297397D01*
X55671377Y-72335106D01*
X55551699Y-72409192D01*
X55417825Y-72526291D01*
X55283552Y-72678457D01*
X55150332Y-72863653D01*
X55019617Y-73079842D01*
X54892859Y-73324988D01*
X54771511Y-73597052D01*
X54739451Y-73671499D01*
X54704366Y-73742366D01*
X54676406Y-73783099D01*
X54653120Y-73797860D01*
X54635127Y-73796080D01*
X54582402Y-73786086D01*
X54501523Y-73768653D01*
X54397950Y-73745120D01*
X54277140Y-73716829D01*
X54144554Y-73685119D01*
X54005651Y-73651332D01*
X53865888Y-73616808D01*
X53730726Y-73582887D01*
X53605622Y-73550910D01*
X53496037Y-73522218D01*
X53407429Y-73498151D01*
X53345257Y-73480050D01*
X53314980Y-73469255D01*
X53303674Y-73462223D01*
X53288767Y-73445199D01*
X53281161Y-73417883D01*
X53281039Y-73374693D01*
X53288589Y-73310048D01*
X53303995Y-73218366D01*
X53327442Y-73094064D01*
X53329334Y-73084311D01*
X53360660Y-72931157D01*
X53397991Y-72761580D01*
X53440327Y-72579209D01*
X53486665Y-72387675D01*
X53536001Y-72190606D01*
X53587334Y-71991631D01*
X53639661Y-71794382D01*
X53691980Y-71602485D01*
X53743288Y-71419573D01*
X53792582Y-71249273D01*
X53838860Y-71095215D01*
X53881120Y-70961029D01*
X53918359Y-70850344D01*
X53949574Y-70766789D01*
X53973763Y-70713995D01*
X53989924Y-70695591D01*
X53997050Y-70696451D01*
X54036899Y-70705314D01*
X54100217Y-70721730D01*
X54177007Y-70743157D01*
X54351742Y-70791754D01*
X54567654Y-70848604D01*
X54806221Y-70908796D01*
X55059302Y-70970413D01*
X55318756Y-71031540D01*
X55576442Y-71090261D01*
X55824218Y-71144659D01*
X56053945Y-71192819D01*
X56257481Y-71232823D01*
X56378280Y-71253171D01*
X56514797Y-71272129D01*
X56646720Y-71286927D01*
X56757261Y-71295461D01*
X56809607Y-71297968D01*
X56893701Y-71300678D01*
X56953900Y-71299097D01*
X57000375Y-71292057D01*
X57043298Y-71278390D01*
X57092840Y-71256929D01*
X57127903Y-71239427D01*
X57183424Y-71202979D01*
X57233920Y-71155107D01*
X57283033Y-71090739D01*
X57334407Y-71004803D01*
X57391686Y-70892228D01*
X57458514Y-70747942D01*
X57537945Y-70572794D01*
X57629541Y-70374782D01*
X57711098Y-70203155D01*
X57781651Y-70059862D01*
X57840235Y-69946856D01*
X57885886Y-69866086D01*
X57917638Y-69819506D01*
X57924621Y-69811226D01*
X57942744Y-69790873D01*
X57961404Y-69776178D01*
X57985312Y-69767443D01*
X58019179Y-69764974D01*
X58067718Y-69769074D01*
G37*
%TD*%
M02*
