%TF.GenerationSoftware,KiCad,Pcbnew,9.0.7*%
%TF.CreationDate,2026-03-26T12:42:53-05:00*%
%TF.ProjectId,PCBtoFAB,50434274-6f46-4414-922e-6b696361645f,rev?*%
%TF.SameCoordinates,Original*%
%TF.FileFunction,Profile,NP*%
%FSLAX46Y46*%
G04 Gerber Fmt 4.6, Leading zero omitted, Abs format (unit mm)*
G04 Created by KiCad (PCBNEW 9.0.7) date 2026-03-26 12:42:53*
%MOMM*%
%LPD*%
G01*
G04 APERTURE LIST*
%TA.AperFunction,Profile*%
%ADD10C,0.050000*%
%TD*%
G04 APERTURE END LIST*
D10*
X37500000Y-48250000D02*
G75*
G02*
X36500000Y-47250000I0J1000000D01*
G01*
X34500000Y-41750000D02*
G75*
G02*
X35500000Y-40750000I1000000J0D01*
G01*
X43500000Y-49250000D02*
X43500000Y-41750000D01*
X26600000Y-78600000D02*
X74650000Y-78600000D01*
X76000000Y-31000000D02*
X70000000Y-25000000D01*
X40500000Y-48250000D02*
X37500000Y-48250000D01*
X31250000Y-25000000D02*
X70000000Y-25000000D01*
X76000000Y-77250000D02*
X74650000Y-78600000D01*
X42500000Y-40750000D02*
G75*
G02*
X43500000Y-41750000I0J-1000000D01*
G01*
X41500000Y-47250000D02*
G75*
G02*
X40500000Y-48250000I-1000000J0D01*
G01*
X43500000Y-49250000D02*
G75*
G02*
X42500000Y-50250000I-1000000J0D01*
G01*
X25250000Y-77250000D02*
X26600000Y-78600000D01*
X25250000Y-77250000D02*
X25250000Y-31000000D01*
X34500000Y-44000000D02*
X34500000Y-49250000D01*
X35500000Y-50250000D02*
X42500000Y-50250000D01*
X25250000Y-31000000D02*
X31250000Y-25000000D01*
X35500000Y-50250000D02*
G75*
G02*
X34500000Y-49250000I0J1000000D01*
G01*
X41500000Y-41750000D02*
G75*
G02*
X42500000Y-40750000I1000000J0D01*
G01*
X41500000Y-41750000D02*
X41500000Y-47250000D01*
X35500000Y-40750000D02*
G75*
G02*
X36500000Y-41750000I0J-1000000D01*
G01*
X36500000Y-47250000D02*
X36500000Y-41750000D01*
X34500000Y-41750000D02*
X34500000Y-44000000D01*
X76000000Y-77250000D02*
X76000000Y-31000000D01*
M02*
