%TF.GenerationSoftware,KiCad,Pcbnew,9.0.7*%
%TF.CreationDate,2026-03-26T12:42:52-05:00*%
%TF.ProjectId,PCBtoFAB,50434274-6f46-4414-922e-6b696361645f,rev?*%
%TF.SameCoordinates,Original*%
%TF.FileFunction,Copper,L1,Top*%
%TF.FilePolarity,Positive*%
%FSLAX46Y46*%
G04 Gerber Fmt 4.6, Leading zero omitted, Abs format (unit mm)*
G04 Created by KiCad (PCBNEW 9.0.7) date 2026-03-26 12:42:52*
%MOMM*%
%LPD*%
G01*
G04 APERTURE LIST*
G04 Aperture macros list*
%AMRoundRect*
0 Rectangle with rounded corners*
0 $1 Rounding radius*
0 $2 $3 $4 $5 $6 $7 $8 $9 X,Y pos of 4 corners*
0 Add a 4 corners polygon primitive as box body*
4,1,4,$2,$3,$4,$5,$6,$7,$8,$9,$2,$3,0*
0 Add four circle primitives for the rounded corners*
1,1,$1+$1,$2,$3*
1,1,$1+$1,$4,$5*
1,1,$1+$1,$6,$7*
1,1,$1+$1,$8,$9*
0 Add four rect primitives between the rounded corners*
20,1,$1+$1,$2,$3,$4,$5,0*
20,1,$1+$1,$4,$5,$6,$7,0*
20,1,$1+$1,$6,$7,$8,$9,0*
20,1,$1+$1,$8,$9,$2,$3,0*%
G04 Aperture macros list end*
%TA.AperFunction,ComponentPad*%
%ADD10RoundRect,0.250000X1.050000X1.050000X-1.050000X1.050000X-1.050000X-1.050000X1.050000X-1.050000X0*%
%TD*%
%TA.AperFunction,ComponentPad*%
%ADD11C,2.600000*%
%TD*%
%TA.AperFunction,ComponentPad*%
%ADD12C,2.000000*%
%TD*%
%TA.AperFunction,SMDPad,CuDef*%
%ADD13RoundRect,0.250000X-0.550000X1.500000X-0.550000X-1.500000X0.550000X-1.500000X0.550000X1.500000X0*%
%TD*%
%TA.AperFunction,SMDPad,CuDef*%
%ADD14RoundRect,0.150000X-0.587500X-0.150000X0.587500X-0.150000X0.587500X0.150000X-0.587500X0.150000X0*%
%TD*%
%TA.AperFunction,SMDPad,CuDef*%
%ADD15RoundRect,0.225000X0.375000X-0.225000X0.375000X0.225000X-0.375000X0.225000X-0.375000X-0.225000X0*%
%TD*%
%TA.AperFunction,ComponentPad*%
%ADD16C,1.800000*%
%TD*%
%TA.AperFunction,SMDPad,CuDef*%
%ADD17RoundRect,0.250000X-0.350000X-0.450000X0.350000X-0.450000X0.350000X0.450000X-0.350000X0.450000X0*%
%TD*%
%TA.AperFunction,SMDPad,CuDef*%
%ADD18RoundRect,0.250001X0.462499X0.624999X-0.462499X0.624999X-0.462499X-0.624999X0.462499X-0.624999X0*%
%TD*%
%TA.AperFunction,SMDPad,CuDef*%
%ADD19RoundRect,0.250000X-0.450000X0.350000X-0.450000X-0.350000X0.450000X-0.350000X0.450000X0.350000X0*%
%TD*%
%TA.AperFunction,ComponentPad*%
%ADD20C,2.500000*%
%TD*%
%TA.AperFunction,ComponentPad*%
%ADD21RoundRect,0.250000X1.000000X-1.000000X1.000000X1.000000X-1.000000X1.000000X-1.000000X-1.000000X0*%
%TD*%
%TA.AperFunction,ComponentPad*%
%ADD22RoundRect,0.250000X0.600000X0.750000X-0.600000X0.750000X-0.600000X-0.750000X0.600000X-0.750000X0*%
%TD*%
%TA.AperFunction,ComponentPad*%
%ADD23O,1.700000X2.000000*%
%TD*%
%TA.AperFunction,SMDPad,CuDef*%
%ADD24RoundRect,0.250000X0.450000X-0.350000X0.450000X0.350000X-0.450000X0.350000X-0.450000X-0.350000X0*%
%TD*%
%TA.AperFunction,ViaPad*%
%ADD25C,0.600000*%
%TD*%
%TA.AperFunction,Conductor*%
%ADD26C,0.800000*%
%TD*%
%TA.AperFunction,Conductor*%
%ADD27C,0.300000*%
%TD*%
%TA.AperFunction,Conductor*%
%ADD28C,0.500000*%
%TD*%
G04 APERTURE END LIST*
D10*
%TO.P,J1,1,Pin_1*%
%TO.N,LINE*%
X62830000Y-31962500D03*
D11*
%TO.P,J1,2,Pin_2*%
%TO.N,NEUT*%
X57750000Y-31962500D03*
%TO.P,J1,3,Pin_3*%
%TO.N,/R-L1*%
X52670000Y-31962500D03*
%TD*%
D12*
%TO.P,F1,1*%
%TO.N,LINE*%
X67500000Y-38960000D03*
%TO.P,F1,2*%
%TO.N,/AC{slash}L*%
X67490000Y-44040000D03*
%TD*%
D13*
%TO.P,C2,1*%
%TO.N,+5V-A*%
X29361722Y-55694552D03*
%TO.P,C2,2*%
%TO.N,GND-A*%
X29361722Y-61294552D03*
%TD*%
D14*
%TO.P,Q1,1,G*%
%TO.N,/MOS-G*%
X27375000Y-40050000D03*
%TO.P,Q1,2,S*%
%TO.N,GND-A*%
X27375000Y-41950000D03*
%TO.P,Q1,3,D*%
%TO.N,/R-A1*%
X29250000Y-41000000D03*
%TD*%
D15*
%TO.P,D2,1,K*%
%TO.N,+5V-A*%
X29250000Y-47462500D03*
%TO.P,D2,2,A*%
%TO.N,/R-A1*%
X29250000Y-44162500D03*
%TD*%
D16*
%TO.P,RV1,1*%
%TO.N,/AC{slash}L*%
X54000000Y-49000000D03*
%TO.P,RV1,2*%
%TO.N,NEUT*%
X55900000Y-41500000D03*
%TD*%
D17*
%TO.P,R1,1*%
%TO.N,/D1-AN*%
X27250000Y-50895698D03*
%TO.P,R1,2*%
%TO.N,+5V-A*%
X29250000Y-50895698D03*
%TD*%
D12*
%TO.P,C1,1*%
%TO.N,/AC{slash}L*%
X61000000Y-49000000D03*
%TO.P,C1,2*%
%TO.N,NEUT*%
X61000000Y-39000000D03*
%TD*%
D18*
%TO.P,D1,1,K*%
%TO.N,GND-A*%
X30225000Y-67000000D03*
%TO.P,D1,2,A*%
%TO.N,/D1-AN*%
X27250000Y-67000000D03*
%TD*%
D19*
%TO.P,R2,1*%
%TO.N,/GPIO5{slash}Relay-A*%
X29250000Y-36000000D03*
%TO.P,R2,2*%
%TO.N,/MOS-G*%
X29250000Y-38000000D03*
%TD*%
D20*
%TO.P,K1,11*%
%TO.N,LINE*%
X39000000Y-46162500D03*
%TO.P,K1,12*%
%TO.N,unconnected-(K1-Pad12)*%
X33000000Y-31962500D03*
%TO.P,K1,14*%
%TO.N,/R-L1*%
X45000000Y-31962500D03*
D21*
%TO.P,K1,A1*%
%TO.N,/R-A1*%
X33000000Y-44162500D03*
D20*
%TO.P,K1,A2*%
%TO.N,+5V-A*%
X45000000Y-44162500D03*
%TD*%
D22*
%TO.P,PS1,1,AC/L*%
%TO.N,/AC{slash}L*%
X70600000Y-68500000D03*
D23*
%TO.P,PS1,2,AC/N*%
%TO.N,NEUT*%
X70600000Y-62500000D03*
%TO.P,PS1,3,-Vout*%
%TO.N,GND-A*%
X37000000Y-74500000D03*
%TO.P,PS1,4,+Vout*%
%TO.N,+5V-A*%
X37000000Y-56500000D03*
%TD*%
D24*
%TO.P,R3,1*%
%TO.N,/GPIO5{slash}Relay-A*%
X27000000Y-36000000D03*
%TO.P,R3,2*%
%TO.N,GND-A*%
X27000000Y-34000000D03*
%TD*%
D25*
%TO.N,+5V-A*%
X41600000Y-66850000D03*
X45008211Y-68490620D03*
X46948846Y-70336333D03*
X45000000Y-66850000D03*
X41401160Y-70294146D03*
X48600000Y-66850000D03*
X51400000Y-66850000D03*
X51154134Y-70334977D03*
X50500000Y-68750000D03*
%TO.N,GND-A*%
X26000000Y-72500000D03*
X30434005Y-42755533D03*
X39884998Y-59088669D03*
X26845299Y-68522651D03*
X28113680Y-29487494D03*
X32895698Y-70658015D03*
X40043202Y-61635753D03*
X35664267Y-72683025D03*
X32784955Y-75214289D03*
X28766575Y-72445719D03*
X48462968Y-75910386D03*
X42925829Y-75768003D03*
X26000000Y-70250000D03*
X32291208Y-64831473D03*
X30581662Y-37724647D03*
X32148824Y-61461729D03*
X30486739Y-32915247D03*
X26544334Y-65287138D03*
X26490620Y-52521919D03*
X26500000Y-37250000D03*
X27421841Y-77808834D03*
X34996496Y-64878934D03*
X39682648Y-75166828D03*
X30465645Y-30267967D03*
X26482889Y-54909717D03*
X35012316Y-59025388D03*
X27856254Y-42871874D03*
X32069722Y-58993747D03*
X35154700Y-68429899D03*
X32848237Y-72825409D03*
X34933214Y-61540831D03*
X29968925Y-70531452D03*
X39840852Y-72572283D03*
X30250000Y-68500000D03*
X32753315Y-77729732D03*
X26148435Y-31521093D03*
X27000000Y-32750000D03*
X45536195Y-74233424D03*
X26529447Y-62871786D03*
X42451217Y-77666450D03*
X37654322Y-64863114D03*
X45457093Y-71717981D03*
X30250000Y-65500000D03*
X30634396Y-40245363D03*
X26630877Y-47684561D03*
X37575220Y-61509190D03*
X48209841Y-73284200D03*
X30222051Y-77777193D03*
X39979920Y-65037138D03*
X26005095Y-75296289D03*
X27679458Y-49629686D03*
X35458602Y-75277570D03*
X38511939Y-70642194D03*
X45330529Y-77634809D03*
X37337914Y-59072849D03*
X51326459Y-75293391D03*
X28155077Y-58866016D03*
X26490620Y-60178991D03*
X51247357Y-77745552D03*
X38496118Y-77618989D03*
X26564106Y-57704192D03*
X30539474Y-45371172D03*
X26564449Y-45212897D03*
X51358100Y-71670520D03*
X37543579Y-68382438D03*
X26899999Y-42868749D03*
X30550021Y-35288306D03*
X25971759Y-35138271D03*
X27940033Y-45245930D03*
X28091049Y-38805624D03*
X28328130Y-33978130D03*
X39964100Y-69173458D03*
X30604702Y-26791927D03*
X42989111Y-73110176D03*
X35332039Y-77666450D03*
X35569345Y-70404888D03*
X32465232Y-68398258D03*
X48035817Y-77856295D03*
%TO.N,/GPIO5{slash}Relay-A*%
X38000000Y-69750000D03*
%TD*%
D26*
%TO.N,+5V-A*%
X41750000Y-56500000D02*
X37000000Y-56500000D01*
X45000000Y-44162500D02*
X45000000Y-53250000D01*
X45000000Y-53250000D02*
X41750000Y-56500000D01*
D27*
%TO.N,/D1-AN*%
X27250000Y-50895698D02*
X27250000Y-67000000D01*
D28*
%TO.N,/R-A1*%
X29250000Y-44162500D02*
X29250000Y-41000000D01*
X29250000Y-44162500D02*
X30837500Y-44162500D01*
D26*
X30837500Y-44162500D02*
X33000000Y-44162500D01*
D27*
%TO.N,/GPIO5{slash}Relay-A*%
X26000000Y-36000000D02*
X27000000Y-36000000D01*
X27000000Y-36000000D02*
X29250000Y-36000000D01*
X25832889Y-36167111D02*
X26000000Y-36000000D01*
X25832889Y-68582889D02*
X25832889Y-36167111D01*
X38000000Y-69750000D02*
X27000000Y-69750000D01*
X27000000Y-69750000D02*
X25832889Y-68582889D01*
%TO.N,/MOS-G*%
X27375000Y-38375000D02*
X27750000Y-38000000D01*
X27750000Y-38000000D02*
X29250000Y-38000000D01*
X27375000Y-40050000D02*
X27375000Y-38375000D01*
%TD*%
%TA.AperFunction,Conductor*%
%TO.N,GND-A*%
G36*
X28184529Y-58141392D02*
G01*
X28249063Y-58177490D01*
X28316102Y-58197175D01*
X28374000Y-58205500D01*
X40670500Y-58205500D01*
X40737539Y-58225185D01*
X40783294Y-58277989D01*
X40794500Y-58329500D01*
X40794500Y-70526007D01*
X40799197Y-70569686D01*
X40810397Y-70621174D01*
X40812890Y-70631372D01*
X40812891Y-70631375D01*
X40855899Y-70712083D01*
X40855901Y-70712086D01*
X40901660Y-70764895D01*
X40919242Y-70782839D01*
X40919246Y-70782843D01*
X40919247Y-70782844D01*
X40919249Y-70782845D01*
X40956359Y-70803603D01*
X40999063Y-70827490D01*
X41066102Y-70847175D01*
X41124000Y-70855500D01*
X41124004Y-70855500D01*
X51675991Y-70855500D01*
X51676000Y-70855500D01*
X51719684Y-70850803D01*
X51748875Y-70844452D01*
X51771174Y-70839602D01*
X51771190Y-70839598D01*
X51771195Y-70839597D01*
X51781373Y-70837110D01*
X51817685Y-70817759D01*
X51886104Y-70803603D01*
X51951317Y-70828685D01*
X51992617Y-70885042D01*
X52000000Y-70927191D01*
X52000000Y-78095500D01*
X51980315Y-78162539D01*
X51927511Y-78208294D01*
X51876000Y-78219500D01*
X26808971Y-78219500D01*
X26741932Y-78199815D01*
X26721290Y-78183181D01*
X25666819Y-77128710D01*
X25633334Y-77067387D01*
X25630500Y-77041029D01*
X25630500Y-74618872D01*
X26999500Y-74618872D01*
X26999500Y-74881127D01*
X27010665Y-74965925D01*
X27033730Y-75141116D01*
X27101602Y-75394418D01*
X27101605Y-75394428D01*
X27201953Y-75636690D01*
X27201958Y-75636700D01*
X27333075Y-75863803D01*
X27492718Y-76071851D01*
X27492726Y-76071860D01*
X27678140Y-76257274D01*
X27678148Y-76257281D01*
X27886196Y-76416924D01*
X28113299Y-76548041D01*
X28113309Y-76548046D01*
X28355571Y-76648394D01*
X28355581Y-76648398D01*
X28608884Y-76716270D01*
X28868880Y-76750500D01*
X28868887Y-76750500D01*
X29131113Y-76750500D01*
X29131120Y-76750500D01*
X29391116Y-76716270D01*
X29644419Y-76648398D01*
X29886697Y-76548043D01*
X30113803Y-76416924D01*
X30321851Y-76257282D01*
X30321855Y-76257277D01*
X30321860Y-76257274D01*
X30507274Y-76071860D01*
X30507277Y-76071855D01*
X30507282Y-76071851D01*
X30666924Y-75863803D01*
X30798043Y-75636697D01*
X30898398Y-75394419D01*
X30966270Y-75141116D01*
X31000500Y-74881120D01*
X31000500Y-74618880D01*
X30966270Y-74358884D01*
X30940693Y-74263428D01*
X35900000Y-74263428D01*
X35900000Y-74350000D01*
X36522555Y-74350000D01*
X36500000Y-74434174D01*
X36500000Y-74565826D01*
X36522555Y-74650000D01*
X35900000Y-74650000D01*
X35900000Y-74736571D01*
X35927085Y-74907584D01*
X35980591Y-75072257D01*
X36059195Y-75226524D01*
X36160967Y-75366602D01*
X36283397Y-75489032D01*
X36423475Y-75590804D01*
X36577744Y-75669408D01*
X36742414Y-75722913D01*
X36850000Y-75739953D01*
X36850000Y-74977445D01*
X36934174Y-75000000D01*
X37065826Y-75000000D01*
X37150000Y-74977445D01*
X37150000Y-75739952D01*
X37257584Y-75722913D01*
X37257587Y-75722913D01*
X37422255Y-75669408D01*
X37576524Y-75590804D01*
X37716602Y-75489032D01*
X37839032Y-75366602D01*
X37940804Y-75226524D01*
X38019408Y-75072257D01*
X38072914Y-74907584D01*
X38100000Y-74736571D01*
X38100000Y-74650000D01*
X37477445Y-74650000D01*
X37500000Y-74565826D01*
X37500000Y-74434174D01*
X37477445Y-74350000D01*
X38100000Y-74350000D01*
X38100000Y-74263428D01*
X38072914Y-74092415D01*
X38019408Y-73927742D01*
X37940804Y-73773475D01*
X37839032Y-73633397D01*
X37716602Y-73510967D01*
X37576524Y-73409195D01*
X37422257Y-73330591D01*
X37257584Y-73277085D01*
X37150000Y-73260045D01*
X37150000Y-74022554D01*
X37065826Y-74000000D01*
X36934174Y-74000000D01*
X36850000Y-74022554D01*
X36850000Y-73260045D01*
X36742415Y-73277085D01*
X36577742Y-73330591D01*
X36423475Y-73409195D01*
X36283397Y-73510967D01*
X36160967Y-73633397D01*
X36059195Y-73773475D01*
X35980591Y-73927742D01*
X35927085Y-74092415D01*
X35900000Y-74263428D01*
X30940693Y-74263428D01*
X30898398Y-74105581D01*
X30896045Y-74099901D01*
X30798046Y-73863309D01*
X30798041Y-73863299D01*
X30666924Y-73636196D01*
X30507281Y-73428148D01*
X30507274Y-73428140D01*
X30321860Y-73242726D01*
X30321851Y-73242718D01*
X30113803Y-73083075D01*
X29886700Y-72951958D01*
X29886690Y-72951953D01*
X29644428Y-72851605D01*
X29644421Y-72851603D01*
X29644419Y-72851602D01*
X29391116Y-72783730D01*
X29333339Y-72776123D01*
X29131127Y-72749500D01*
X29131120Y-72749500D01*
X28868880Y-72749500D01*
X28868872Y-72749500D01*
X28637772Y-72779926D01*
X28608884Y-72783730D01*
X28355581Y-72851602D01*
X28355571Y-72851605D01*
X28113309Y-72951953D01*
X28113299Y-72951958D01*
X27886196Y-73083075D01*
X27678148Y-73242718D01*
X27492718Y-73428148D01*
X27333075Y-73636196D01*
X27201958Y-73863299D01*
X27201953Y-73863309D01*
X27101605Y-74105571D01*
X27101602Y-74105581D01*
X27036111Y-74350000D01*
X27033730Y-74358885D01*
X26999500Y-74618872D01*
X25630500Y-74618872D01*
X25630500Y-69175544D01*
X25650185Y-69108505D01*
X25702989Y-69062750D01*
X25772147Y-69052806D01*
X25835703Y-69081831D01*
X25842181Y-69087863D01*
X26784788Y-70030470D01*
X26854085Y-70070478D01*
X26854087Y-70070480D01*
X26861342Y-70074668D01*
X26864712Y-70076614D01*
X26953856Y-70100500D01*
X37591324Y-70100500D01*
X37658363Y-70120185D01*
X37679005Y-70136819D01*
X37692686Y-70150500D01*
X37806814Y-70216392D01*
X37934108Y-70250500D01*
X37934110Y-70250500D01*
X38065890Y-70250500D01*
X38065892Y-70250500D01*
X38193186Y-70216392D01*
X38307314Y-70150500D01*
X38400500Y-70057314D01*
X38466392Y-69943186D01*
X38500500Y-69815892D01*
X38500500Y-69684108D01*
X38466392Y-69556814D01*
X38400500Y-69442686D01*
X38307314Y-69349500D01*
X38250250Y-69316554D01*
X38193187Y-69283608D01*
X38129539Y-69266554D01*
X38065892Y-69249500D01*
X37934108Y-69249500D01*
X37806812Y-69283608D01*
X37692686Y-69349500D01*
X37692683Y-69349502D01*
X37679005Y-69363181D01*
X37617682Y-69396666D01*
X37591324Y-69399500D01*
X27196544Y-69399500D01*
X27129505Y-69379815D01*
X27108863Y-69363181D01*
X26219708Y-68474026D01*
X26186223Y-68412703D01*
X26183389Y-68386345D01*
X26183389Y-68124000D01*
X26185939Y-68115314D01*
X26184651Y-68106353D01*
X26195629Y-68082312D01*
X26203074Y-68056961D01*
X26209914Y-68051033D01*
X26213676Y-68042797D01*
X26235910Y-68028507D01*
X26255878Y-68011206D01*
X26266392Y-68008918D01*
X26272454Y-68005023D01*
X26307389Y-68000000D01*
X26496157Y-68000000D01*
X26563196Y-68019685D01*
X26569787Y-68024227D01*
X26574618Y-68027793D01*
X26702802Y-68072646D01*
X26702801Y-68072646D01*
X26706771Y-68073018D01*
X26733235Y-68075500D01*
X27766764Y-68075499D01*
X27797198Y-68072646D01*
X27925382Y-68027793D01*
X28034650Y-67947150D01*
X28115293Y-67837882D01*
X28160146Y-67709698D01*
X28163000Y-67679265D01*
X28163000Y-67672830D01*
X29262501Y-67672830D01*
X29268902Y-67732377D01*
X29319147Y-67867087D01*
X29405311Y-67982188D01*
X29520409Y-68068350D01*
X29655129Y-68118598D01*
X29655128Y-68118598D01*
X29714664Y-68124999D01*
X30074999Y-68124999D01*
X30375000Y-68124999D01*
X30735323Y-68124999D01*
X30735330Y-68124998D01*
X30794877Y-68118597D01*
X30929587Y-68068352D01*
X31044688Y-67982188D01*
X31130850Y-67867090D01*
X31181098Y-67732371D01*
X31187499Y-67672843D01*
X31187500Y-67672826D01*
X31187500Y-67150000D01*
X30375000Y-67150000D01*
X30375000Y-68124999D01*
X30074999Y-68124999D01*
X30075000Y-68124998D01*
X30075000Y-67150000D01*
X29262501Y-67150000D01*
X29262501Y-67672830D01*
X28163000Y-67672830D01*
X28162999Y-66850000D01*
X28162999Y-66327156D01*
X29262500Y-66327156D01*
X29262500Y-66850000D01*
X30075000Y-66850000D01*
X30375000Y-66850000D01*
X31187499Y-66850000D01*
X31187499Y-66327176D01*
X31187498Y-66327169D01*
X31181097Y-66267622D01*
X31130852Y-66132912D01*
X31044688Y-66017811D01*
X30929590Y-65931649D01*
X30794870Y-65881401D01*
X30794871Y-65881401D01*
X30735343Y-65875000D01*
X30375000Y-65875000D01*
X30375000Y-66850000D01*
X30075000Y-66850000D01*
X30075000Y-65875000D01*
X29714677Y-65875000D01*
X29714669Y-65875001D01*
X29655122Y-65881402D01*
X29520412Y-65931647D01*
X29405311Y-66017811D01*
X29319149Y-66132909D01*
X29268901Y-66267628D01*
X29262500Y-66327156D01*
X28162999Y-66327156D01*
X28162999Y-66323852D01*
X28162999Y-66320741D01*
X28162999Y-66320736D01*
X28160146Y-66290302D01*
X28115293Y-66162118D01*
X28034650Y-66052850D01*
X27925382Y-65972207D01*
X27925381Y-65972206D01*
X27797195Y-65927353D01*
X27797198Y-65927353D01*
X27766769Y-65924500D01*
X27766765Y-65924500D01*
X27724500Y-65924500D01*
X27657461Y-65904815D01*
X27611706Y-65852011D01*
X27600500Y-65800500D01*
X27600500Y-62842396D01*
X28311722Y-62842396D01*
X28318123Y-62901924D01*
X28318125Y-62901931D01*
X28368367Y-63036638D01*
X28368371Y-63036645D01*
X28454531Y-63151739D01*
X28454534Y-63151742D01*
X28569628Y-63237902D01*
X28569635Y-63237906D01*
X28704342Y-63288148D01*
X28704349Y-63288150D01*
X28763877Y-63294551D01*
X28763894Y-63294552D01*
X29211722Y-63294552D01*
X29511722Y-63294552D01*
X29959550Y-63294552D01*
X29959566Y-63294551D01*
X30019094Y-63288150D01*
X30019101Y-63288148D01*
X30153808Y-63237906D01*
X30153815Y-63237902D01*
X30268909Y-63151742D01*
X30268912Y-63151739D01*
X30355072Y-63036645D01*
X30355076Y-63036638D01*
X30405318Y-62901931D01*
X30405320Y-62901924D01*
X30411721Y-62842396D01*
X30411722Y-62842379D01*
X30411722Y-61444552D01*
X29511722Y-61444552D01*
X29511722Y-63294552D01*
X29211722Y-63294552D01*
X29211722Y-61444552D01*
X28311722Y-61444552D01*
X28311722Y-62842396D01*
X27600500Y-62842396D01*
X27600500Y-59746707D01*
X28311722Y-59746707D01*
X28311722Y-61144552D01*
X29211722Y-61144552D01*
X29511722Y-61144552D01*
X30411722Y-61144552D01*
X30411722Y-59746724D01*
X30411721Y-59746707D01*
X30405320Y-59687179D01*
X30405318Y-59687172D01*
X30355076Y-59552465D01*
X30355072Y-59552458D01*
X30268912Y-59437364D01*
X30268909Y-59437361D01*
X30153815Y-59351201D01*
X30153808Y-59351197D01*
X30019101Y-59300955D01*
X30019094Y-59300953D01*
X29959566Y-59294552D01*
X29511722Y-59294552D01*
X29511722Y-61144552D01*
X29211722Y-61144552D01*
X29211722Y-59294552D01*
X28763877Y-59294552D01*
X28704349Y-59300953D01*
X28704342Y-59300955D01*
X28569635Y-59351197D01*
X28569628Y-59351201D01*
X28454534Y-59437361D01*
X28454531Y-59437364D01*
X28368371Y-59552458D01*
X28368367Y-59552465D01*
X28318125Y-59687172D01*
X28318123Y-59687179D01*
X28311722Y-59746707D01*
X27600500Y-59746707D01*
X27600500Y-58374000D01*
X27620185Y-58306961D01*
X27672989Y-58261206D01*
X27724500Y-58250000D01*
X28000000Y-58250000D01*
X28000000Y-58249614D01*
X28019685Y-58182575D01*
X28072489Y-58136820D01*
X28141647Y-58126876D01*
X28184529Y-58141392D01*
G37*
%TD.AperFunction*%
%TA.AperFunction,Conductor*%
G36*
X30919334Y-25971288D02*
G01*
X30975267Y-26013160D01*
X30999684Y-26078624D01*
X31000000Y-26087470D01*
X31000000Y-43438000D01*
X30980315Y-43505039D01*
X30927511Y-43550794D01*
X30876000Y-43562000D01*
X30758443Y-43562000D01*
X30605716Y-43602923D01*
X30605709Y-43602926D01*
X30468790Y-43681975D01*
X30463057Y-43686375D01*
X30397888Y-43711570D01*
X30387569Y-43712000D01*
X30052611Y-43712000D01*
X29985572Y-43692315D01*
X29964930Y-43675681D01*
X29878225Y-43588976D01*
X29878222Y-43588974D01*
X29878220Y-43588972D01*
X29768203Y-43532915D01*
X29717409Y-43484942D01*
X29700500Y-43422432D01*
X29700500Y-41624500D01*
X29720185Y-41557461D01*
X29772989Y-41511706D01*
X29824500Y-41500500D01*
X29870761Y-41500500D01*
X29893471Y-41497191D01*
X29938893Y-41490573D01*
X30043983Y-41439198D01*
X30126698Y-41356483D01*
X30178073Y-41251393D01*
X30188000Y-41183260D01*
X30188000Y-40816740D01*
X30178073Y-40748607D01*
X30126698Y-40643517D01*
X30126696Y-40643515D01*
X30126696Y-40643514D01*
X30043985Y-40560803D01*
X29938891Y-40509426D01*
X29870761Y-40499500D01*
X29870760Y-40499500D01*
X28629240Y-40499500D01*
X28629239Y-40499500D01*
X28561108Y-40509426D01*
X28456014Y-40560803D01*
X28373303Y-40643514D01*
X28321926Y-40748608D01*
X28312000Y-40816739D01*
X28312000Y-41183260D01*
X28321926Y-41251391D01*
X28343036Y-41294572D01*
X28354795Y-41363445D01*
X28327451Y-41427742D01*
X28269687Y-41467049D01*
X28199841Y-41468887D01*
X28175340Y-41459517D01*
X28087644Y-41414833D01*
X27993986Y-41400000D01*
X27525000Y-41400000D01*
X27525000Y-41800000D01*
X28362499Y-41800000D01*
X28362499Y-41768520D01*
X28347664Y-41674850D01*
X28347663Y-41674848D01*
X28320325Y-41621195D01*
X28307428Y-41552526D01*
X28333703Y-41487785D01*
X28390809Y-41447528D01*
X28460615Y-41444534D01*
X28485266Y-41453497D01*
X28561107Y-41490573D01*
X28595173Y-41495536D01*
X28629239Y-41500500D01*
X28629240Y-41500500D01*
X28675500Y-41500500D01*
X28742539Y-41520185D01*
X28788294Y-41572989D01*
X28799500Y-41624500D01*
X28799500Y-43422432D01*
X28779815Y-43489471D01*
X28731796Y-43532915D01*
X28621780Y-43588972D01*
X28621779Y-43588973D01*
X28621774Y-43588976D01*
X28526476Y-43684274D01*
X28526473Y-43684278D01*
X28465279Y-43804378D01*
X28449500Y-43904006D01*
X28449500Y-44420993D01*
X28465279Y-44520621D01*
X28465280Y-44520624D01*
X28465281Y-44520626D01*
X28512348Y-44613000D01*
X28526473Y-44640721D01*
X28526476Y-44640725D01*
X28621774Y-44736023D01*
X28621778Y-44736026D01*
X28621780Y-44736028D01*
X28741874Y-44797219D01*
X28741876Y-44797219D01*
X28741878Y-44797220D01*
X28841507Y-44813000D01*
X28841512Y-44813000D01*
X29658493Y-44813000D01*
X29758121Y-44797220D01*
X29758121Y-44797219D01*
X29758126Y-44797219D01*
X29878220Y-44736028D01*
X29892175Y-44722073D01*
X29964930Y-44649319D01*
X30026253Y-44615834D01*
X30052611Y-44613000D01*
X30387569Y-44613000D01*
X30454608Y-44632685D01*
X30463057Y-44638625D01*
X30468781Y-44643017D01*
X30468784Y-44643020D01*
X30468787Y-44643021D01*
X30468790Y-44643024D01*
X30605709Y-44722073D01*
X30605716Y-44722077D01*
X30758443Y-44763000D01*
X30876000Y-44763000D01*
X30943039Y-44782685D01*
X30988794Y-44835489D01*
X31000000Y-44887000D01*
X31000000Y-46250385D01*
X30980315Y-46317424D01*
X30927511Y-46363179D01*
X30858353Y-46373123D01*
X30815466Y-46358605D01*
X30779852Y-46338684D01*
X30750937Y-46322510D01*
X30750936Y-46322509D01*
X30750935Y-46322509D01*
X30683903Y-46302826D01*
X30683899Y-46302825D01*
X30683898Y-46302825D01*
X30626000Y-46294500D01*
X28374000Y-46294500D01*
X28373992Y-46294500D01*
X28330313Y-46299197D01*
X28278825Y-46310397D01*
X28268627Y-46312890D01*
X28268624Y-46312891D01*
X28187916Y-46355899D01*
X28187913Y-46355901D01*
X28135104Y-46401660D01*
X28117160Y-46419242D01*
X28117154Y-46419249D01*
X28072511Y-46499059D01*
X28072509Y-46499064D01*
X28052826Y-46566096D01*
X28044500Y-46624003D01*
X28044500Y-49968216D01*
X28024815Y-50035255D01*
X27972011Y-50081010D01*
X27902853Y-50090954D01*
X27846867Y-50067987D01*
X27812882Y-50042905D01*
X27812880Y-50042904D01*
X27684700Y-49998051D01*
X27654270Y-49995198D01*
X27654266Y-49995198D01*
X26845734Y-49995198D01*
X26845730Y-49995198D01*
X26815300Y-49998051D01*
X26815298Y-49998051D01*
X26687119Y-50042904D01*
X26687117Y-50042905D01*
X26577850Y-50123548D01*
X26497207Y-50232815D01*
X26497206Y-50232817D01*
X26452353Y-50360996D01*
X26452353Y-50360998D01*
X26449500Y-50391428D01*
X26449500Y-51399967D01*
X26452353Y-51430397D01*
X26452353Y-51430399D01*
X26497206Y-51558578D01*
X26497207Y-51558580D01*
X26577850Y-51667848D01*
X26687118Y-51748491D01*
X26769494Y-51777315D01*
X26816455Y-51793748D01*
X26873231Y-51834469D01*
X26898978Y-51899422D01*
X26899500Y-51910789D01*
X26899500Y-65626000D01*
X26879815Y-65693039D01*
X26827011Y-65738794D01*
X26775500Y-65750000D01*
X26307389Y-65750000D01*
X26240350Y-65730315D01*
X26194595Y-65677511D01*
X26183389Y-65626000D01*
X26183389Y-42311939D01*
X26203074Y-42244900D01*
X26255878Y-42199145D01*
X26325036Y-42189201D01*
X26388592Y-42218226D01*
X26417874Y-42255644D01*
X26459860Y-42338045D01*
X26459863Y-42338050D01*
X26549449Y-42427636D01*
X26549453Y-42427639D01*
X26662355Y-42485166D01*
X26756014Y-42499999D01*
X27224999Y-42499999D01*
X27525000Y-42499999D01*
X27993979Y-42499999D01*
X28087649Y-42485164D01*
X28087655Y-42485162D01*
X28200541Y-42427643D01*
X28200550Y-42427636D01*
X28290136Y-42338050D01*
X28290139Y-42338046D01*
X28347666Y-42225144D01*
X28362500Y-42131486D01*
X28362500Y-42100000D01*
X27525000Y-42100000D01*
X27525000Y-42499999D01*
X27224999Y-42499999D01*
X27225000Y-42499998D01*
X27225000Y-41400000D01*
X26756020Y-41400000D01*
X26662350Y-41414835D01*
X26662344Y-41414837D01*
X26549458Y-41472356D01*
X26549449Y-41472363D01*
X26459863Y-41561949D01*
X26459860Y-41561954D01*
X26417874Y-41644356D01*
X26369899Y-41695152D01*
X26302078Y-41711947D01*
X26235943Y-41689409D01*
X26192492Y-41634694D01*
X26183389Y-41588061D01*
X26183389Y-39866739D01*
X26437000Y-39866739D01*
X26437000Y-40233260D01*
X26446926Y-40301391D01*
X26498303Y-40406485D01*
X26581014Y-40489196D01*
X26581015Y-40489196D01*
X26581017Y-40489198D01*
X26686107Y-40540573D01*
X26720173Y-40545536D01*
X26754239Y-40550500D01*
X26754240Y-40550500D01*
X27995761Y-40550500D01*
X28018471Y-40547191D01*
X28063893Y-40540573D01*
X28168983Y-40489198D01*
X28251698Y-40406483D01*
X28303073Y-40301393D01*
X28313000Y-40233260D01*
X28313000Y-39866740D01*
X28303073Y-39798607D01*
X28251698Y-39693517D01*
X28251696Y-39693515D01*
X28251696Y-39693514D01*
X28168985Y-39610803D01*
X28063891Y-39559426D01*
X27995761Y-39549500D01*
X27995760Y-39549500D01*
X27849500Y-39549500D01*
X27782461Y-39529815D01*
X27736706Y-39477011D01*
X27725500Y-39425500D01*
X27725500Y-38571544D01*
X27734144Y-38542103D01*
X27740668Y-38512117D01*
X27744422Y-38507101D01*
X27745185Y-38504505D01*
X27761819Y-38483863D01*
X27858863Y-38386819D01*
X27920186Y-38353334D01*
X27946544Y-38350500D01*
X28234908Y-38350500D01*
X28301947Y-38370185D01*
X28347702Y-38422989D01*
X28351949Y-38433544D01*
X28389936Y-38542103D01*
X28397207Y-38562882D01*
X28477850Y-38672150D01*
X28587118Y-38752793D01*
X28629845Y-38767744D01*
X28715299Y-38797646D01*
X28745730Y-38800500D01*
X28745734Y-38800500D01*
X29754270Y-38800500D01*
X29784699Y-38797646D01*
X29784701Y-38797646D01*
X29848790Y-38775219D01*
X29912882Y-38752793D01*
X30022150Y-38672150D01*
X30102793Y-38562882D01*
X30130443Y-38483863D01*
X30147646Y-38434701D01*
X30147646Y-38434699D01*
X30150500Y-38404269D01*
X30150500Y-37595730D01*
X30147646Y-37565300D01*
X30147646Y-37565298D01*
X30102793Y-37437119D01*
X30102792Y-37437117D01*
X30022150Y-37327850D01*
X29912882Y-37247207D01*
X29912880Y-37247206D01*
X29784700Y-37202353D01*
X29754270Y-37199500D01*
X29754266Y-37199500D01*
X28745734Y-37199500D01*
X28745730Y-37199500D01*
X28715300Y-37202353D01*
X28715298Y-37202353D01*
X28587119Y-37247206D01*
X28587117Y-37247207D01*
X28477850Y-37327850D01*
X28397207Y-37437117D01*
X28351949Y-37566456D01*
X28311227Y-37623231D01*
X28246274Y-37648978D01*
X28234908Y-37649500D01*
X27703856Y-37649500D01*
X27614712Y-37673386D01*
X27614709Y-37673387D01*
X27534791Y-37719527D01*
X27534786Y-37719531D01*
X27094530Y-38159787D01*
X27080488Y-38184111D01*
X27080486Y-38184113D01*
X27048388Y-38239706D01*
X27048387Y-38239709D01*
X27024500Y-38328856D01*
X27024500Y-39425500D01*
X27004815Y-39492539D01*
X26952011Y-39538294D01*
X26900500Y-39549500D01*
X26754239Y-39549500D01*
X26686108Y-39559426D01*
X26581014Y-39610803D01*
X26498303Y-39693514D01*
X26446926Y-39798608D01*
X26437000Y-39866739D01*
X26183389Y-39866739D01*
X26183389Y-36873762D01*
X26203074Y-36806723D01*
X26255878Y-36760968D01*
X26325036Y-36751024D01*
X26348344Y-36756721D01*
X26465299Y-36797646D01*
X26495730Y-36800500D01*
X26495734Y-36800500D01*
X27504270Y-36800500D01*
X27534699Y-36797646D01*
X27534701Y-36797646D01*
X27598790Y-36775219D01*
X27662882Y-36752793D01*
X27772150Y-36672150D01*
X27852793Y-36562882D01*
X27877262Y-36492953D01*
X27898051Y-36433544D01*
X27911670Y-36414555D01*
X27921379Y-36393297D01*
X27931654Y-36386693D01*
X27938773Y-36376769D01*
X27960496Y-36368157D01*
X27980157Y-36355523D01*
X27999323Y-36352767D01*
X28003726Y-36351022D01*
X28015092Y-36350500D01*
X28234908Y-36350500D01*
X28301947Y-36370185D01*
X28347702Y-36422989D01*
X28351949Y-36433544D01*
X28397206Y-36562880D01*
X28397207Y-36562882D01*
X28477850Y-36672150D01*
X28587118Y-36752793D01*
X28598344Y-36756721D01*
X28715299Y-36797646D01*
X28745730Y-36800500D01*
X28745734Y-36800500D01*
X29754270Y-36800500D01*
X29784699Y-36797646D01*
X29784701Y-36797646D01*
X29848790Y-36775219D01*
X29912882Y-36752793D01*
X30022150Y-36672150D01*
X30102793Y-36562882D01*
X30125219Y-36498790D01*
X30147646Y-36434701D01*
X30147646Y-36434699D01*
X30150500Y-36404269D01*
X30150500Y-35595730D01*
X30147646Y-35565300D01*
X30147646Y-35565298D01*
X30102793Y-35437119D01*
X30102792Y-35437117D01*
X30022150Y-35327850D01*
X29912882Y-35247207D01*
X29912880Y-35247206D01*
X29784700Y-35202353D01*
X29754270Y-35199500D01*
X29754266Y-35199500D01*
X28745734Y-35199500D01*
X28745730Y-35199500D01*
X28715300Y-35202353D01*
X28715298Y-35202353D01*
X28587119Y-35247206D01*
X28587117Y-35247207D01*
X28477850Y-35327850D01*
X28397207Y-35437117D01*
X28351949Y-35566456D01*
X28338329Y-35585444D01*
X28328621Y-35606703D01*
X28318345Y-35613306D01*
X28311227Y-35623231D01*
X28289503Y-35631842D01*
X28269843Y-35644477D01*
X28250676Y-35647232D01*
X28246274Y-35648978D01*
X28234908Y-35649500D01*
X28015092Y-35649500D01*
X27948053Y-35629815D01*
X27902298Y-35577011D01*
X27898051Y-35566456D01*
X27852793Y-35437119D01*
X27852793Y-35437118D01*
X27772150Y-35327850D01*
X27662882Y-35247207D01*
X27662880Y-35247206D01*
X27534700Y-35202353D01*
X27504270Y-35199500D01*
X27504266Y-35199500D01*
X26495734Y-35199500D01*
X26495730Y-35199500D01*
X26465300Y-35202353D01*
X26465298Y-35202353D01*
X26337119Y-35247206D01*
X26337117Y-35247207D01*
X26227850Y-35327850D01*
X26147207Y-35437117D01*
X26101949Y-35566456D01*
X26061227Y-35623231D01*
X26020165Y-35644382D01*
X26002908Y-35649500D01*
X25953856Y-35649500D01*
X25864712Y-35673386D01*
X25803811Y-35708546D01*
X25789757Y-35712715D01*
X25768882Y-35712771D01*
X25748598Y-35717692D01*
X25734649Y-35712864D01*
X25719888Y-35712904D01*
X25702297Y-35701666D01*
X25682571Y-35694839D01*
X25673447Y-35683236D01*
X25661008Y-35675290D01*
X25652284Y-35656324D01*
X25639382Y-35639917D01*
X25635519Y-35619878D01*
X25631810Y-35611813D01*
X25632720Y-35605354D01*
X25630500Y-35593833D01*
X25630500Y-34397844D01*
X26050000Y-34397844D01*
X26056401Y-34457372D01*
X26056403Y-34457379D01*
X26106645Y-34592086D01*
X26106649Y-34592093D01*
X26192809Y-34707187D01*
X26192812Y-34707190D01*
X26307906Y-34793350D01*
X26307913Y-34793354D01*
X26442620Y-34843596D01*
X26442627Y-34843598D01*
X26502155Y-34849999D01*
X26502172Y-34850000D01*
X26850000Y-34850000D01*
X27150000Y-34850000D01*
X27497828Y-34850000D01*
X27497844Y-34849999D01*
X27557372Y-34843598D01*
X27557379Y-34843596D01*
X27692086Y-34793354D01*
X27692093Y-34793350D01*
X27807187Y-34707190D01*
X27807190Y-34707187D01*
X27893350Y-34592093D01*
X27893354Y-34592086D01*
X27943596Y-34457379D01*
X27943598Y-34457372D01*
X27949999Y-34397844D01*
X27950000Y-34397827D01*
X27950000Y-34150000D01*
X27150000Y-34150000D01*
X27150000Y-34850000D01*
X26850000Y-34850000D01*
X26850000Y-34150000D01*
X26050000Y-34150000D01*
X26050000Y-34397844D01*
X25630500Y-34397844D01*
X25630500Y-33602155D01*
X26050000Y-33602155D01*
X26050000Y-33850000D01*
X26850000Y-33850000D01*
X27150000Y-33850000D01*
X27950000Y-33850000D01*
X27950000Y-33602172D01*
X27949999Y-33602155D01*
X27943598Y-33542627D01*
X27943596Y-33542620D01*
X27893354Y-33407913D01*
X27893350Y-33407906D01*
X27807190Y-33292812D01*
X27807187Y-33292809D01*
X27692093Y-33206649D01*
X27692086Y-33206645D01*
X27557379Y-33156403D01*
X27557372Y-33156401D01*
X27497844Y-33150000D01*
X27150000Y-33150000D01*
X27150000Y-33850000D01*
X26850000Y-33850000D01*
X26850000Y-33150000D01*
X26502155Y-33150000D01*
X26442627Y-33156401D01*
X26442620Y-33156403D01*
X26307913Y-33206645D01*
X26307906Y-33206649D01*
X26192812Y-33292809D01*
X26192809Y-33292812D01*
X26106649Y-33407906D01*
X26106645Y-33407913D01*
X26056403Y-33542620D01*
X26056401Y-33542627D01*
X26050000Y-33602155D01*
X25630500Y-33602155D01*
X25630500Y-31208970D01*
X25650185Y-31141931D01*
X25666819Y-31121289D01*
X30788319Y-25999789D01*
X30849642Y-25966304D01*
X30919334Y-25971288D01*
G37*
%TD.AperFunction*%
%TD*%
%TA.AperFunction,Conductor*%
%TO.N,+5V-A*%
G36*
X30693039Y-46519685D02*
G01*
X30738794Y-46572489D01*
X30750000Y-46624000D01*
X30750000Y-53500000D01*
X44876000Y-53500000D01*
X44943039Y-53519685D01*
X44988794Y-53572489D01*
X45000000Y-53624000D01*
X45000000Y-58000000D01*
X45000000Y-66250000D01*
X51676000Y-66250000D01*
X51743039Y-66269685D01*
X51788794Y-66322489D01*
X51800000Y-66374000D01*
X51800000Y-70526000D01*
X51780315Y-70593039D01*
X51727511Y-70638794D01*
X51676000Y-70650000D01*
X41124000Y-70650000D01*
X41056961Y-70630315D01*
X41011206Y-70577511D01*
X41000000Y-70526000D01*
X41000000Y-58000000D01*
X28374000Y-58000000D01*
X28306961Y-57980315D01*
X28261206Y-57927511D01*
X28250000Y-57876000D01*
X28250000Y-46624000D01*
X28269685Y-46556961D01*
X28322489Y-46511206D01*
X28374000Y-46500000D01*
X30626000Y-46500000D01*
X30693039Y-46519685D01*
G37*
%TD.AperFunction*%
%TD*%
M02*
