M48
; DRILL file {KiCad 9.0.7} date 2026-03-26T12:42:55-0500
; FORMAT={-:-/ absolute / metric / decimal}
; #@! TF.CreationDate,2026-03-26T12:42:55-05:00
; #@! TF.GenerationSoftware,Kicad,Pcbnew,9.0.7
; #@! TF.FileFunction,Plated,1,2,PTH
FMAT,2
METRIC
; #@! TA.AperFunction,Plated,PTH,ViaDrill
T1C0.300
; #@! TA.AperFunction,Plated,PTH,ComponentDrill
T2C0.800
; #@! TA.AperFunction,Plated,PTH,ComponentDrill
T3C1.000
; #@! TA.AperFunction,Plated,PTH,ComponentDrill
T4C1.300
%
G90
G05
T1
X25.972Y-35.138
X26.0Y-70.25
X26.0Y-72.5
X26.005Y-75.296
X26.148Y-31.521
X26.483Y-54.91
X26.491Y-52.522
X26.491Y-60.179
X26.5Y-37.25
X26.529Y-62.872
X26.544Y-65.287
X26.564Y-57.704
X26.564Y-45.213
X26.631Y-47.685
X26.845Y-68.523
X26.9Y-42.869
X27.0Y-32.75
X27.422Y-77.809
X27.679Y-49.63
X27.856Y-42.872
X27.94Y-45.246
X28.091Y-38.806
X28.114Y-29.487
X28.155Y-58.866
X28.328Y-33.978
X28.767Y-72.446
X29.969Y-70.531
X30.222Y-77.777
X30.25Y-65.5
X30.25Y-68.5
X30.434Y-42.756
X30.466Y-30.268
X30.487Y-32.915
X30.539Y-45.371
X30.55Y-35.288
X30.582Y-37.725
X30.605Y-26.792
X30.634Y-40.245
X32.07Y-58.994
X32.149Y-61.462
X32.291Y-64.831
X32.465Y-68.398
X32.753Y-77.73
X32.785Y-75.214
X32.848Y-72.825
X32.896Y-70.658
X34.933Y-61.541
X34.996Y-64.879
X35.012Y-59.025
X35.155Y-68.43
X35.332Y-77.666
X35.459Y-75.278
X35.569Y-70.405
X35.664Y-72.683
X37.338Y-59.073
X37.544Y-68.382
X37.575Y-61.509
X37.654Y-64.863
X38.0Y-69.75
X38.496Y-77.619
X38.512Y-70.642
X39.683Y-75.167
X39.841Y-72.572
X39.885Y-59.089
X39.964Y-69.173
X39.98Y-65.037
X40.043Y-61.636
X41.401Y-70.294
X41.6Y-66.85
X42.451Y-77.666
X42.926Y-75.768
X42.989Y-73.11
X45.0Y-66.85
X45.008Y-68.491
X45.331Y-77.635
X45.457Y-71.718
X45.536Y-74.233
X46.949Y-70.336
X48.036Y-77.856
X48.21Y-73.284
X48.463Y-75.91
X48.6Y-66.85
X50.5Y-68.75
X51.154Y-70.335
X51.247Y-77.746
X51.326Y-75.293
X51.358Y-71.671
X51.4Y-66.85
T2
X54.0Y-49.0
X55.9Y-41.5
T3
X37.0Y-56.5
X37.0Y-74.5
X61.0Y-39.0
X61.0Y-49.0
X67.49Y-44.04
X67.5Y-38.96
X70.6Y-62.5
X70.6Y-68.5
T4
X33.0Y-31.962
X33.0Y-44.163
X39.0Y-46.163
X45.0Y-31.962
X45.0Y-44.163
X52.67Y-31.962
X57.75Y-31.962
X62.83Y-31.962
M30
