%TF.GenerationSoftware,KiCad,Pcbnew,9.0.7*%
%TF.CreationDate,2026-03-26T18:41:50-05:00*%
%TF.ProjectId,ESP32C5_iot_switch,45535033-3243-4355-9f69-6f745f737769,rev?*%
%TF.SameCoordinates,Original*%
%TF.FileFunction,Soldermask,Bot*%
%TF.FilePolarity,Negative*%
%FSLAX46Y46*%
G04 Gerber Fmt 4.6, Leading zero omitted, Abs format (unit mm)*
G04 Created by KiCad (PCBNEW 9.0.7) date 2026-03-26 18:41:50*
%MOMM*%
%LPD*%
G01*
G04 APERTURE LIST*
G04 Aperture macros list*
%AMRoundRect*
0 Rectangle with rounded corners*
0 $1 Rounding radius*
0 $2 $3 $4 $5 $6 $7 $8 $9 X,Y pos of 4 corners*
0 Add a 4 corners polygon primitive as box body*
4,1,4,$2,$3,$4,$5,$6,$7,$8,$9,$2,$3,0*
0 Add four circle primitives for the rounded corners*
1,1,$1+$1,$2,$3*
1,1,$1+$1,$4,$5*
1,1,$1+$1,$6,$7*
1,1,$1+$1,$8,$9*
0 Add four rect primitives between the rounded corners*
20,1,$1+$1,$2,$3,$4,$5,0*
20,1,$1+$1,$4,$5,$6,$7,0*
20,1,$1+$1,$6,$7,$8,$9,0*
20,1,$1+$1,$8,$9,$2,$3,0*%
G04 Aperture macros list end*
%ADD10C,2.500000*%
%ADD11C,0.650000*%
%ADD12O,2.100000X1.000000*%
%ADD13O,1.800000X1.000000*%
%ADD14RoundRect,0.237500X0.237500X-0.300000X0.237500X0.300000X-0.237500X0.300000X-0.237500X-0.300000X0*%
%ADD15RoundRect,0.250000X0.350000X0.450000X-0.350000X0.450000X-0.350000X-0.450000X0.350000X-0.450000X0*%
%ADD16RoundRect,0.250000X0.337500X0.475000X-0.337500X0.475000X-0.337500X-0.475000X0.337500X-0.475000X0*%
%ADD17R,1.800000X2.900000*%
%ADD18RoundRect,0.250000X-0.450000X0.350000X-0.450000X-0.350000X0.450000X-0.350000X0.450000X0.350000X0*%
%ADD19RoundRect,0.225000X0.225000X0.375000X-0.225000X0.375000X-0.225000X-0.375000X0.225000X-0.375000X0*%
%ADD20R,3.150000X1.000000*%
%ADD21RoundRect,0.150000X0.587500X0.150000X-0.587500X0.150000X-0.587500X-0.150000X0.587500X-0.150000X0*%
G04 APERTURE END LIST*
D10*
%TO.C,H9*%
X117492152Y-108300000D03*
%TD*%
%TO.C,H4*%
X16742152Y-96800000D03*
%TD*%
%TO.C,H6*%
X68492152Y-96800000D03*
%TD*%
%TO.C,H7*%
X68492152Y-18300000D03*
%TD*%
D11*
%TO.C,J2*%
X71847152Y-32660000D03*
X71847152Y-38440000D03*
D12*
X72347152Y-31230000D03*
D13*
X68167152Y-31230000D03*
D12*
X72347152Y-39870000D03*
D13*
X68167152Y-39870000D03*
%TD*%
D10*
%TO.C,H8*%
X117492152Y-43550000D03*
%TD*%
%TO.C,H5*%
X16742152Y-108300000D03*
%TD*%
D14*
%TO.C,C20*%
X34992152Y-103275000D03*
X34992152Y-101550000D03*
%TD*%
%TO.C,C17*%
X30742152Y-98912500D03*
X30742152Y-97187500D03*
%TD*%
D15*
%TO.C,R11*%
X53842152Y-101300000D03*
X51842152Y-101300000D03*
%TD*%
D16*
%TO.C,C22*%
X45529152Y-107050000D03*
X43454152Y-107050000D03*
%TD*%
D17*
%TO.C,L1*%
X53842152Y-95800000D03*
X50642152Y-95800000D03*
%TD*%
D14*
%TO.C,C15*%
X28992152Y-98912500D03*
X28992152Y-97187500D03*
%TD*%
%TO.C,C18*%
X31492152Y-103275000D03*
X31492152Y-101550000D03*
%TD*%
D18*
%TO.C,R12*%
X52843146Y-107549845D03*
X52843146Y-109549845D03*
%TD*%
%TO.C,R13*%
X54843146Y-107549845D03*
X54843146Y-109549845D03*
%TD*%
D14*
%TO.C,C16*%
X29742152Y-103275000D03*
X29742152Y-101550000D03*
%TD*%
D16*
%TO.C,C21*%
X53842152Y-99300000D03*
X51767152Y-99300000D03*
%TD*%
D19*
%TO.C,D5*%
X46142152Y-102300000D03*
X42842152Y-102300000D03*
%TD*%
D14*
%TO.C,C23*%
X34242152Y-98912500D03*
X34242152Y-97187500D03*
%TD*%
D20*
%TO.C,J4*%
X99122652Y-69620732D03*
X94072652Y-69620732D03*
X99122652Y-72160732D03*
X94072652Y-72160732D03*
X99122652Y-74700732D03*
X94072652Y-74700732D03*
%TD*%
D19*
%TO.C,D7*%
X46142152Y-104800000D03*
X42842152Y-104800000D03*
%TD*%
D21*
%TO.C,Q2*%
X53842152Y-103550000D03*
X53842152Y-105450000D03*
X51967152Y-104500000D03*
%TD*%
D14*
%TO.C,C19*%
X33242152Y-103275000D03*
X33242152Y-101550000D03*
%TD*%
%TO.C,C24*%
X32492152Y-98912500D03*
X32492152Y-97187500D03*
%TD*%
D19*
%TO.C,D6*%
X46142152Y-99800000D03*
X42842152Y-99800000D03*
%TD*%
M02*
