%TF.GenerationSoftware,KiCad,Pcbnew,9.0.7*%
%TF.CreationDate,2026-03-26T18:41:50-05:00*%
%TF.ProjectId,ESP32C5_iot_switch,45535033-3243-4355-9f69-6f745f737769,rev?*%
%TF.SameCoordinates,Original*%
%TF.FileFunction,Legend,Bot*%
%TF.FilePolarity,Positive*%
%FSLAX46Y46*%
G04 Gerber Fmt 4.6, Leading zero omitted, Abs format (unit mm)*
G04 Created by KiCad (PCBNEW 9.0.7) date 2026-03-26 18:41:50*
%MOMM*%
%LPD*%
G01*
G04 APERTURE LIST*
%ADD10C,0.200000*%
%ADD11C,0.150000*%
%ADD12C,0.120000*%
G04 APERTURE END LIST*
D10*
G36*
X71096317Y-17637830D02*
G01*
X70838972Y-17637830D01*
X70779362Y-17608025D01*
X70754695Y-17583357D01*
X70724889Y-17523745D01*
X70724889Y-17428103D01*
X70754694Y-17368493D01*
X70774145Y-17349041D01*
X70879210Y-17314020D01*
X71096317Y-17314020D01*
X71096317Y-17637830D01*
G37*
G36*
X71096317Y-17114020D02*
G01*
X70886591Y-17114020D01*
X70826981Y-17084215D01*
X70802313Y-17059546D01*
X70772508Y-16999936D01*
X70772508Y-16951913D01*
X70802313Y-16892303D01*
X70826981Y-16867634D01*
X70886591Y-16837830D01*
X71096317Y-16837830D01*
X71096317Y-17114020D01*
G37*
G36*
X73334412Y-17637830D02*
G01*
X73077067Y-17637830D01*
X73017457Y-17608025D01*
X72992790Y-17583357D01*
X72962984Y-17523745D01*
X72962984Y-17428103D01*
X72992789Y-17368493D01*
X73012240Y-17349041D01*
X73117305Y-17314020D01*
X73334412Y-17314020D01*
X73334412Y-17637830D01*
G37*
G36*
X73334412Y-17114020D02*
G01*
X73124686Y-17114020D01*
X73065076Y-17084215D01*
X73040408Y-17059546D01*
X73010603Y-16999936D01*
X73010603Y-16951913D01*
X73040408Y-16892303D01*
X73065076Y-16867634D01*
X73124686Y-16837830D01*
X73334412Y-16837830D01*
X73334412Y-17114020D01*
G37*
G36*
X75334412Y-17161639D02*
G01*
X75077067Y-17161639D01*
X75017457Y-17131834D01*
X74992789Y-17107165D01*
X74962984Y-17047555D01*
X74962984Y-16951913D01*
X74992789Y-16892303D01*
X75017457Y-16867634D01*
X75077067Y-16837830D01*
X75334412Y-16837830D01*
X75334412Y-17161639D01*
G37*
G36*
X75645523Y-17948941D02*
G01*
X70413778Y-17948941D01*
X70413778Y-17404496D01*
X70524889Y-17404496D01*
X70524889Y-17547353D01*
X70526810Y-17566862D01*
X70528185Y-17570182D01*
X70528440Y-17573766D01*
X70535446Y-17592074D01*
X70583065Y-17687312D01*
X70588348Y-17695704D01*
X70589360Y-17698148D01*
X70591616Y-17700897D01*
X70593508Y-17703902D01*
X70595502Y-17705631D01*
X70601797Y-17713301D01*
X70649415Y-17760921D01*
X70657083Y-17767214D01*
X70658815Y-17769211D01*
X70661823Y-17771104D01*
X70664569Y-17773358D01*
X70667009Y-17774368D01*
X70675406Y-17779654D01*
X70770643Y-17827273D01*
X70788952Y-17834279D01*
X70792535Y-17834533D01*
X70795856Y-17835909D01*
X70815365Y-17837830D01*
X71196317Y-17837830D01*
X71215826Y-17835909D01*
X71251874Y-17820977D01*
X71279464Y-17793387D01*
X71294396Y-17757339D01*
X71296317Y-17737830D01*
X71296317Y-17337368D01*
X71574429Y-17337368D01*
X71574429Y-17376386D01*
X71589361Y-17412434D01*
X71616951Y-17440024D01*
X71652999Y-17454956D01*
X71672508Y-17456877D01*
X72434412Y-17456877D01*
X72453921Y-17454956D01*
X72489969Y-17440024D01*
X72517559Y-17412434D01*
X72520847Y-17404496D01*
X72762984Y-17404496D01*
X72762984Y-17547353D01*
X72764905Y-17566862D01*
X72766280Y-17570182D01*
X72766535Y-17573766D01*
X72773541Y-17592074D01*
X72821160Y-17687312D01*
X72826443Y-17695704D01*
X72827455Y-17698148D01*
X72829711Y-17700897D01*
X72831603Y-17703902D01*
X72833597Y-17705631D01*
X72839892Y-17713301D01*
X72887510Y-17760921D01*
X72895178Y-17767214D01*
X72896910Y-17769211D01*
X72899918Y-17771104D01*
X72902664Y-17773358D01*
X72905104Y-17774368D01*
X72913501Y-17779654D01*
X73008738Y-17827273D01*
X73027047Y-17834279D01*
X73030630Y-17834533D01*
X73033951Y-17835909D01*
X73053460Y-17837830D01*
X73434412Y-17837830D01*
X73453921Y-17835909D01*
X73489969Y-17820977D01*
X73517559Y-17793387D01*
X73532491Y-17757339D01*
X73534412Y-17737830D01*
X73534412Y-16813559D01*
X73764905Y-16813559D01*
X73764905Y-16852577D01*
X73779837Y-16888625D01*
X73807427Y-16916215D01*
X73843475Y-16931147D01*
X73882493Y-16931147D01*
X73918541Y-16916215D01*
X73933695Y-16903779D01*
X73964621Y-16872851D01*
X74069686Y-16837830D01*
X74132471Y-16837830D01*
X74237535Y-16872851D01*
X74304608Y-16939924D01*
X74340060Y-17010829D01*
X74382031Y-17178710D01*
X74382031Y-17296948D01*
X74340060Y-17464829D01*
X74304607Y-17535735D01*
X74237536Y-17602808D01*
X74132471Y-17637830D01*
X74069686Y-17637830D01*
X73964621Y-17602808D01*
X73933695Y-17571881D01*
X73918542Y-17559444D01*
X73882494Y-17544513D01*
X73843476Y-17544512D01*
X73807427Y-17559443D01*
X73779837Y-17587033D01*
X73764906Y-17623081D01*
X73764905Y-17662099D01*
X73779836Y-17698148D01*
X73792273Y-17713301D01*
X73839891Y-17760921D01*
X73855045Y-17773358D01*
X73858364Y-17774733D01*
X73861080Y-17777088D01*
X73878980Y-17785079D01*
X74021837Y-17832698D01*
X74031509Y-17834897D01*
X74033951Y-17835909D01*
X74037488Y-17836257D01*
X74040952Y-17837045D01*
X74043586Y-17836857D01*
X74053460Y-17837830D01*
X74148698Y-17837830D01*
X74158571Y-17836857D01*
X74161205Y-17837045D01*
X74164668Y-17836257D01*
X74168207Y-17835909D01*
X74170649Y-17834897D01*
X74180321Y-17832698D01*
X74323177Y-17785079D01*
X74341078Y-17777088D01*
X74343793Y-17774733D01*
X74347113Y-17773358D01*
X74362266Y-17760921D01*
X74457504Y-17665682D01*
X74463796Y-17658015D01*
X74465793Y-17656284D01*
X74467686Y-17653276D01*
X74469941Y-17650529D01*
X74470952Y-17648087D01*
X74476236Y-17639693D01*
X74523855Y-17544456D01*
X74524401Y-17543027D01*
X74524831Y-17542448D01*
X74527752Y-17534271D01*
X74530861Y-17526147D01*
X74530912Y-17525426D01*
X74531426Y-17523988D01*
X74579045Y-17333512D01*
X74579545Y-17330130D01*
X74580110Y-17328767D01*
X74580833Y-17321416D01*
X74581913Y-17314119D01*
X74581695Y-17312660D01*
X74582031Y-17309258D01*
X74582031Y-17166401D01*
X74581695Y-17162998D01*
X74581913Y-17161540D01*
X74580833Y-17154242D01*
X74580110Y-17146892D01*
X74579545Y-17145528D01*
X74579045Y-17142147D01*
X74531426Y-16951671D01*
X74530912Y-16950232D01*
X74530861Y-16949512D01*
X74527752Y-16941387D01*
X74524831Y-16933211D01*
X74524401Y-16932631D01*
X74523855Y-16931203D01*
X74522406Y-16928306D01*
X74762984Y-16928306D01*
X74762984Y-17071163D01*
X74764905Y-17090672D01*
X74766280Y-17093992D01*
X74766535Y-17097576D01*
X74773541Y-17115884D01*
X74821160Y-17211122D01*
X74826445Y-17219518D01*
X74827456Y-17221958D01*
X74829709Y-17224704D01*
X74831603Y-17227712D01*
X74833597Y-17229441D01*
X74839892Y-17237112D01*
X74887511Y-17284730D01*
X74895177Y-17291022D01*
X74896910Y-17293020D01*
X74899918Y-17294913D01*
X74902664Y-17297167D01*
X74905104Y-17298177D01*
X74913501Y-17303463D01*
X75008738Y-17351082D01*
X75027047Y-17358088D01*
X75030630Y-17358342D01*
X75033951Y-17359718D01*
X75053460Y-17361639D01*
X75334412Y-17361639D01*
X75334412Y-17737830D01*
X75336333Y-17757339D01*
X75351265Y-17793387D01*
X75378855Y-17820977D01*
X75414903Y-17835909D01*
X75453921Y-17835909D01*
X75489969Y-17820977D01*
X75517559Y-17793387D01*
X75532491Y-17757339D01*
X75534412Y-17737830D01*
X75534412Y-16737830D01*
X75532491Y-16718321D01*
X75517559Y-16682273D01*
X75489969Y-16654683D01*
X75453921Y-16639751D01*
X75434412Y-16637830D01*
X75053460Y-16637830D01*
X75033951Y-16639751D01*
X75030630Y-16641126D01*
X75027047Y-16641381D01*
X75008738Y-16648387D01*
X74913501Y-16696006D01*
X74905104Y-16701291D01*
X74902664Y-16702302D01*
X74899918Y-16704555D01*
X74896910Y-16706449D01*
X74895177Y-16708446D01*
X74887511Y-16714739D01*
X74839892Y-16762357D01*
X74833597Y-16770027D01*
X74831603Y-16771757D01*
X74829709Y-16774764D01*
X74827456Y-16777511D01*
X74826445Y-16779950D01*
X74821160Y-16788347D01*
X74773541Y-16883585D01*
X74766535Y-16901893D01*
X74766280Y-16905476D01*
X74764905Y-16908797D01*
X74762984Y-16928306D01*
X74522406Y-16928306D01*
X74476236Y-16835966D01*
X74470949Y-16827567D01*
X74469940Y-16825130D01*
X74467688Y-16822386D01*
X74465793Y-16819375D01*
X74463795Y-16817642D01*
X74457504Y-16809976D01*
X74362266Y-16714738D01*
X74347112Y-16702302D01*
X74343793Y-16700927D01*
X74341078Y-16698572D01*
X74323177Y-16690581D01*
X74180321Y-16642962D01*
X74170649Y-16640762D01*
X74168207Y-16639751D01*
X74164668Y-16639402D01*
X74161205Y-16638615D01*
X74158571Y-16638802D01*
X74148698Y-16637830D01*
X74053460Y-16637830D01*
X74043586Y-16638802D01*
X74040952Y-16638615D01*
X74037488Y-16639402D01*
X74033951Y-16639751D01*
X74031509Y-16640762D01*
X74021837Y-16642962D01*
X73878980Y-16690581D01*
X73861080Y-16698572D01*
X73858364Y-16700927D01*
X73855045Y-16702302D01*
X73839892Y-16714739D01*
X73792273Y-16762357D01*
X73779837Y-16777511D01*
X73764905Y-16813559D01*
X73534412Y-16813559D01*
X73534412Y-16737830D01*
X73532491Y-16718321D01*
X73517559Y-16682273D01*
X73489969Y-16654683D01*
X73453921Y-16639751D01*
X73434412Y-16637830D01*
X73101079Y-16637830D01*
X73081570Y-16639751D01*
X73078249Y-16641126D01*
X73074666Y-16641381D01*
X73056357Y-16648387D01*
X72961120Y-16696006D01*
X72952723Y-16701291D01*
X72950283Y-16702302D01*
X72947537Y-16704555D01*
X72944529Y-16706449D01*
X72942796Y-16708446D01*
X72935130Y-16714739D01*
X72887511Y-16762357D01*
X72881216Y-16770027D01*
X72879222Y-16771757D01*
X72877328Y-16774764D01*
X72875075Y-16777511D01*
X72874064Y-16779950D01*
X72868779Y-16788347D01*
X72821160Y-16883585D01*
X72814154Y-16901893D01*
X72813899Y-16905476D01*
X72812524Y-16908797D01*
X72810603Y-16928306D01*
X72810603Y-17023544D01*
X72812524Y-17043053D01*
X72813899Y-17046373D01*
X72814154Y-17049957D01*
X72821160Y-17068265D01*
X72868779Y-17163503D01*
X72874064Y-17171899D01*
X72875075Y-17174339D01*
X72877328Y-17177085D01*
X72879222Y-17180093D01*
X72881216Y-17181822D01*
X72887511Y-17189493D01*
X72888299Y-17190281D01*
X72887511Y-17190929D01*
X72839892Y-17238547D01*
X72833597Y-17246217D01*
X72831603Y-17247947D01*
X72829709Y-17250954D01*
X72827456Y-17253701D01*
X72826445Y-17256140D01*
X72821160Y-17264537D01*
X72773541Y-17359775D01*
X72766535Y-17378083D01*
X72766280Y-17381666D01*
X72764905Y-17384987D01*
X72762984Y-17404496D01*
X72520847Y-17404496D01*
X72532491Y-17376386D01*
X72532491Y-17337368D01*
X72517559Y-17301320D01*
X72489969Y-17273730D01*
X72453921Y-17258798D01*
X72434412Y-17256877D01*
X71672508Y-17256877D01*
X71652999Y-17258798D01*
X71616951Y-17273730D01*
X71589361Y-17301320D01*
X71574429Y-17337368D01*
X71296317Y-17337368D01*
X71296317Y-16737830D01*
X71294396Y-16718321D01*
X71279464Y-16682273D01*
X71251874Y-16654683D01*
X71215826Y-16639751D01*
X71196317Y-16637830D01*
X70862984Y-16637830D01*
X70843475Y-16639751D01*
X70840154Y-16641126D01*
X70836571Y-16641381D01*
X70818262Y-16648387D01*
X70723025Y-16696006D01*
X70714628Y-16701291D01*
X70712188Y-16702302D01*
X70709442Y-16704555D01*
X70706434Y-16706449D01*
X70704701Y-16708446D01*
X70697035Y-16714739D01*
X70649416Y-16762357D01*
X70643121Y-16770027D01*
X70641127Y-16771757D01*
X70639233Y-16774764D01*
X70636980Y-16777511D01*
X70635969Y-16779950D01*
X70630684Y-16788347D01*
X70583065Y-16883585D01*
X70576059Y-16901893D01*
X70575804Y-16905476D01*
X70574429Y-16908797D01*
X70572508Y-16928306D01*
X70572508Y-17023544D01*
X70574429Y-17043053D01*
X70575804Y-17046373D01*
X70576059Y-17049957D01*
X70583065Y-17068265D01*
X70630684Y-17163503D01*
X70635969Y-17171899D01*
X70636980Y-17174339D01*
X70639233Y-17177085D01*
X70641127Y-17180093D01*
X70643121Y-17181822D01*
X70649416Y-17189493D01*
X70650204Y-17190281D01*
X70649416Y-17190929D01*
X70601797Y-17238547D01*
X70595502Y-17246217D01*
X70593508Y-17247947D01*
X70591614Y-17250954D01*
X70589361Y-17253701D01*
X70588350Y-17256140D01*
X70583065Y-17264537D01*
X70535446Y-17359775D01*
X70528440Y-17378083D01*
X70528185Y-17381666D01*
X70526810Y-17384987D01*
X70524889Y-17404496D01*
X70413778Y-17404496D01*
X70413778Y-16526719D01*
X75645523Y-16526719D01*
X75645523Y-17948941D01*
G37*
D11*
X35556890Y-105614126D02*
X35604510Y-105566507D01*
X35604510Y-105566507D02*
X35652129Y-105423650D01*
X35652129Y-105423650D02*
X35652129Y-105328412D01*
X35652129Y-105328412D02*
X35604510Y-105185555D01*
X35604510Y-105185555D02*
X35509271Y-105090317D01*
X35509271Y-105090317D02*
X35414033Y-105042698D01*
X35414033Y-105042698D02*
X35223557Y-104995079D01*
X35223557Y-104995079D02*
X35080700Y-104995079D01*
X35080700Y-104995079D02*
X34890224Y-105042698D01*
X34890224Y-105042698D02*
X34794986Y-105090317D01*
X34794986Y-105090317D02*
X34699748Y-105185555D01*
X34699748Y-105185555D02*
X34652129Y-105328412D01*
X34652129Y-105328412D02*
X34652129Y-105423650D01*
X34652129Y-105423650D02*
X34699748Y-105566507D01*
X34699748Y-105566507D02*
X34747367Y-105614126D01*
X34747367Y-105995079D02*
X34699748Y-106042698D01*
X34699748Y-106042698D02*
X34652129Y-106137936D01*
X34652129Y-106137936D02*
X34652129Y-106376031D01*
X34652129Y-106376031D02*
X34699748Y-106471269D01*
X34699748Y-106471269D02*
X34747367Y-106518888D01*
X34747367Y-106518888D02*
X34842605Y-106566507D01*
X34842605Y-106566507D02*
X34937843Y-106566507D01*
X34937843Y-106566507D02*
X35080700Y-106518888D01*
X35080700Y-106518888D02*
X35652129Y-105947460D01*
X35652129Y-105947460D02*
X35652129Y-106566507D01*
X34652129Y-107185555D02*
X34652129Y-107280793D01*
X34652129Y-107280793D02*
X34699748Y-107376031D01*
X34699748Y-107376031D02*
X34747367Y-107423650D01*
X34747367Y-107423650D02*
X34842605Y-107471269D01*
X34842605Y-107471269D02*
X35033081Y-107518888D01*
X35033081Y-107518888D02*
X35271176Y-107518888D01*
X35271176Y-107518888D02*
X35461652Y-107471269D01*
X35461652Y-107471269D02*
X35556890Y-107423650D01*
X35556890Y-107423650D02*
X35604510Y-107376031D01*
X35604510Y-107376031D02*
X35652129Y-107280793D01*
X35652129Y-107280793D02*
X35652129Y-107185555D01*
X35652129Y-107185555D02*
X35604510Y-107090317D01*
X35604510Y-107090317D02*
X35556890Y-107042698D01*
X35556890Y-107042698D02*
X35461652Y-106995079D01*
X35461652Y-106995079D02*
X35271176Y-106947460D01*
X35271176Y-106947460D02*
X35033081Y-106947460D01*
X35033081Y-106947460D02*
X34842605Y-106995079D01*
X34842605Y-106995079D02*
X34747367Y-107042698D01*
X34747367Y-107042698D02*
X34699748Y-107090317D01*
X34699748Y-107090317D02*
X34652129Y-107185555D01*
X30508795Y-94768391D02*
X30556415Y-94720772D01*
X30556415Y-94720772D02*
X30604034Y-94577915D01*
X30604034Y-94577915D02*
X30604034Y-94482677D01*
X30604034Y-94482677D02*
X30556415Y-94339820D01*
X30556415Y-94339820D02*
X30461176Y-94244582D01*
X30461176Y-94244582D02*
X30365938Y-94196963D01*
X30365938Y-94196963D02*
X30175462Y-94149344D01*
X30175462Y-94149344D02*
X30032605Y-94149344D01*
X30032605Y-94149344D02*
X29842129Y-94196963D01*
X29842129Y-94196963D02*
X29746891Y-94244582D01*
X29746891Y-94244582D02*
X29651653Y-94339820D01*
X29651653Y-94339820D02*
X29604034Y-94482677D01*
X29604034Y-94482677D02*
X29604034Y-94577915D01*
X29604034Y-94577915D02*
X29651653Y-94720772D01*
X29651653Y-94720772D02*
X29699272Y-94768391D01*
X30604034Y-95720772D02*
X30604034Y-95149344D01*
X30604034Y-95435058D02*
X29604034Y-95435058D01*
X29604034Y-95435058D02*
X29746891Y-95339820D01*
X29746891Y-95339820D02*
X29842129Y-95244582D01*
X29842129Y-95244582D02*
X29889748Y-95149344D01*
X29604034Y-96054106D02*
X29604034Y-96720772D01*
X29604034Y-96720772D02*
X30604034Y-96292201D01*
X56985009Y-101754819D02*
X57318342Y-101278628D01*
X57556437Y-101754819D02*
X57556437Y-100754819D01*
X57556437Y-100754819D02*
X57175485Y-100754819D01*
X57175485Y-100754819D02*
X57080247Y-100802438D01*
X57080247Y-100802438D02*
X57032628Y-100850057D01*
X57032628Y-100850057D02*
X56985009Y-100945295D01*
X56985009Y-100945295D02*
X56985009Y-101088152D01*
X56985009Y-101088152D02*
X57032628Y-101183390D01*
X57032628Y-101183390D02*
X57080247Y-101231009D01*
X57080247Y-101231009D02*
X57175485Y-101278628D01*
X57175485Y-101278628D02*
X57556437Y-101278628D01*
X56032628Y-101754819D02*
X56604056Y-101754819D01*
X56318342Y-101754819D02*
X56318342Y-100754819D01*
X56318342Y-100754819D02*
X56413580Y-100897676D01*
X56413580Y-100897676D02*
X56508818Y-100992914D01*
X56508818Y-100992914D02*
X56604056Y-101040533D01*
X55080247Y-101754819D02*
X55651675Y-101754819D01*
X55365961Y-101754819D02*
X55365961Y-100754819D01*
X55365961Y-100754819D02*
X55461199Y-100897676D01*
X55461199Y-100897676D02*
X55556437Y-100992914D01*
X55556437Y-100992914D02*
X55651675Y-101040533D01*
X41922791Y-107422843D02*
X41970410Y-107470463D01*
X41970410Y-107470463D02*
X42113267Y-107518082D01*
X42113267Y-107518082D02*
X42208505Y-107518082D01*
X42208505Y-107518082D02*
X42351362Y-107470463D01*
X42351362Y-107470463D02*
X42446600Y-107375224D01*
X42446600Y-107375224D02*
X42494219Y-107279986D01*
X42494219Y-107279986D02*
X42541838Y-107089510D01*
X42541838Y-107089510D02*
X42541838Y-106946653D01*
X42541838Y-106946653D02*
X42494219Y-106756177D01*
X42494219Y-106756177D02*
X42446600Y-106660939D01*
X42446600Y-106660939D02*
X42351362Y-106565701D01*
X42351362Y-106565701D02*
X42208505Y-106518082D01*
X42208505Y-106518082D02*
X42113267Y-106518082D01*
X42113267Y-106518082D02*
X41970410Y-106565701D01*
X41970410Y-106565701D02*
X41922791Y-106613320D01*
X41541838Y-106613320D02*
X41494219Y-106565701D01*
X41494219Y-106565701D02*
X41398981Y-106518082D01*
X41398981Y-106518082D02*
X41160886Y-106518082D01*
X41160886Y-106518082D02*
X41065648Y-106565701D01*
X41065648Y-106565701D02*
X41018029Y-106613320D01*
X41018029Y-106613320D02*
X40970410Y-106708558D01*
X40970410Y-106708558D02*
X40970410Y-106803796D01*
X40970410Y-106803796D02*
X41018029Y-106946653D01*
X41018029Y-106946653D02*
X41589457Y-107518082D01*
X41589457Y-107518082D02*
X40970410Y-107518082D01*
X40589457Y-106613320D02*
X40541838Y-106565701D01*
X40541838Y-106565701D02*
X40446600Y-106518082D01*
X40446600Y-106518082D02*
X40208505Y-106518082D01*
X40208505Y-106518082D02*
X40113267Y-106565701D01*
X40113267Y-106565701D02*
X40065648Y-106613320D01*
X40065648Y-106613320D02*
X40018029Y-106708558D01*
X40018029Y-106708558D02*
X40018029Y-106803796D01*
X40018029Y-106803796D02*
X40065648Y-106946653D01*
X40065648Y-106946653D02*
X40637076Y-107518082D01*
X40637076Y-107518082D02*
X40018029Y-107518082D01*
X55873225Y-96507435D02*
X56349415Y-96507435D01*
X56349415Y-96507435D02*
X56349415Y-95507435D01*
X55016082Y-96507435D02*
X55587510Y-96507435D01*
X55301796Y-96507435D02*
X55301796Y-95507435D01*
X55301796Y-95507435D02*
X55397034Y-95650292D01*
X55397034Y-95650292D02*
X55492272Y-95745530D01*
X55492272Y-95745530D02*
X55587510Y-95793149D01*
X28004324Y-98165781D02*
X28051944Y-98118162D01*
X28051944Y-98118162D02*
X28099563Y-97975305D01*
X28099563Y-97975305D02*
X28099563Y-97880067D01*
X28099563Y-97880067D02*
X28051944Y-97737210D01*
X28051944Y-97737210D02*
X27956705Y-97641972D01*
X27956705Y-97641972D02*
X27861467Y-97594353D01*
X27861467Y-97594353D02*
X27670991Y-97546734D01*
X27670991Y-97546734D02*
X27528134Y-97546734D01*
X27528134Y-97546734D02*
X27337658Y-97594353D01*
X27337658Y-97594353D02*
X27242420Y-97641972D01*
X27242420Y-97641972D02*
X27147182Y-97737210D01*
X27147182Y-97737210D02*
X27099563Y-97880067D01*
X27099563Y-97880067D02*
X27099563Y-97975305D01*
X27099563Y-97975305D02*
X27147182Y-98118162D01*
X27147182Y-98118162D02*
X27194801Y-98165781D01*
X28099563Y-99118162D02*
X28099563Y-98546734D01*
X28099563Y-98832448D02*
X27099563Y-98832448D01*
X27099563Y-98832448D02*
X27242420Y-98737210D01*
X27242420Y-98737210D02*
X27337658Y-98641972D01*
X27337658Y-98641972D02*
X27385277Y-98546734D01*
X27099563Y-100022924D02*
X27099563Y-99546734D01*
X27099563Y-99546734D02*
X27575753Y-99499115D01*
X27575753Y-99499115D02*
X27528134Y-99546734D01*
X27528134Y-99546734D02*
X27480515Y-99641972D01*
X27480515Y-99641972D02*
X27480515Y-99880067D01*
X27480515Y-99880067D02*
X27528134Y-99975305D01*
X27528134Y-99975305D02*
X27575753Y-100022924D01*
X27575753Y-100022924D02*
X27670991Y-100070543D01*
X27670991Y-100070543D02*
X27909086Y-100070543D01*
X27909086Y-100070543D02*
X28004324Y-100022924D01*
X28004324Y-100022924D02*
X28051944Y-99975305D01*
X28051944Y-99975305D02*
X28099563Y-99880067D01*
X28099563Y-99880067D02*
X28099563Y-99641972D01*
X28099563Y-99641972D02*
X28051944Y-99546734D01*
X28051944Y-99546734D02*
X28004324Y-99499115D01*
X31723720Y-105342223D02*
X31771340Y-105294604D01*
X31771340Y-105294604D02*
X31818959Y-105151747D01*
X31818959Y-105151747D02*
X31818959Y-105056509D01*
X31818959Y-105056509D02*
X31771340Y-104913652D01*
X31771340Y-104913652D02*
X31676101Y-104818414D01*
X31676101Y-104818414D02*
X31580863Y-104770795D01*
X31580863Y-104770795D02*
X31390387Y-104723176D01*
X31390387Y-104723176D02*
X31247530Y-104723176D01*
X31247530Y-104723176D02*
X31057054Y-104770795D01*
X31057054Y-104770795D02*
X30961816Y-104818414D01*
X30961816Y-104818414D02*
X30866578Y-104913652D01*
X30866578Y-104913652D02*
X30818959Y-105056509D01*
X30818959Y-105056509D02*
X30818959Y-105151747D01*
X30818959Y-105151747D02*
X30866578Y-105294604D01*
X30866578Y-105294604D02*
X30914197Y-105342223D01*
X31818959Y-106294604D02*
X31818959Y-105723176D01*
X31818959Y-106008890D02*
X30818959Y-106008890D01*
X30818959Y-106008890D02*
X30961816Y-105913652D01*
X30961816Y-105913652D02*
X31057054Y-105818414D01*
X31057054Y-105818414D02*
X31104673Y-105723176D01*
X31247530Y-106866033D02*
X31199911Y-106770795D01*
X31199911Y-106770795D02*
X31152292Y-106723176D01*
X31152292Y-106723176D02*
X31057054Y-106675557D01*
X31057054Y-106675557D02*
X31009435Y-106675557D01*
X31009435Y-106675557D02*
X30914197Y-106723176D01*
X30914197Y-106723176D02*
X30866578Y-106770795D01*
X30866578Y-106770795D02*
X30818959Y-106866033D01*
X30818959Y-106866033D02*
X30818959Y-107056509D01*
X30818959Y-107056509D02*
X30866578Y-107151747D01*
X30866578Y-107151747D02*
X30914197Y-107199366D01*
X30914197Y-107199366D02*
X31009435Y-107246985D01*
X31009435Y-107246985D02*
X31057054Y-107246985D01*
X31057054Y-107246985D02*
X31152292Y-107199366D01*
X31152292Y-107199366D02*
X31199911Y-107151747D01*
X31199911Y-107151747D02*
X31247530Y-107056509D01*
X31247530Y-107056509D02*
X31247530Y-106866033D01*
X31247530Y-106866033D02*
X31295149Y-106770795D01*
X31295149Y-106770795D02*
X31342768Y-106723176D01*
X31342768Y-106723176D02*
X31438006Y-106675557D01*
X31438006Y-106675557D02*
X31628482Y-106675557D01*
X31628482Y-106675557D02*
X31723720Y-106723176D01*
X31723720Y-106723176D02*
X31771340Y-106770795D01*
X31771340Y-106770795D02*
X31818959Y-106866033D01*
X31818959Y-106866033D02*
X31818959Y-107056509D01*
X31818959Y-107056509D02*
X31771340Y-107151747D01*
X31771340Y-107151747D02*
X31723720Y-107199366D01*
X31723720Y-107199366D02*
X31628482Y-107246985D01*
X31628482Y-107246985D02*
X31438006Y-107246985D01*
X31438006Y-107246985D02*
X31342768Y-107199366D01*
X31342768Y-107199366D02*
X31295149Y-107151747D01*
X31295149Y-107151747D02*
X31247530Y-107056509D01*
X51252976Y-107912403D02*
X50776785Y-107579070D01*
X51252976Y-107340975D02*
X50252976Y-107340975D01*
X50252976Y-107340975D02*
X50252976Y-107721927D01*
X50252976Y-107721927D02*
X50300595Y-107817165D01*
X50300595Y-107817165D02*
X50348214Y-107864784D01*
X50348214Y-107864784D02*
X50443452Y-107912403D01*
X50443452Y-107912403D02*
X50586309Y-107912403D01*
X50586309Y-107912403D02*
X50681547Y-107864784D01*
X50681547Y-107864784D02*
X50729166Y-107817165D01*
X50729166Y-107817165D02*
X50776785Y-107721927D01*
X50776785Y-107721927D02*
X50776785Y-107340975D01*
X51252976Y-108864784D02*
X51252976Y-108293356D01*
X51252976Y-108579070D02*
X50252976Y-108579070D01*
X50252976Y-108579070D02*
X50395833Y-108483832D01*
X50395833Y-108483832D02*
X50491071Y-108388594D01*
X50491071Y-108388594D02*
X50538690Y-108293356D01*
X50348214Y-109245737D02*
X50300595Y-109293356D01*
X50300595Y-109293356D02*
X50252976Y-109388594D01*
X50252976Y-109388594D02*
X50252976Y-109626689D01*
X50252976Y-109626689D02*
X50300595Y-109721927D01*
X50300595Y-109721927D02*
X50348214Y-109769546D01*
X50348214Y-109769546D02*
X50443452Y-109817165D01*
X50443452Y-109817165D02*
X50538690Y-109817165D01*
X50538690Y-109817165D02*
X50681547Y-109769546D01*
X50681547Y-109769546D02*
X51252976Y-109198118D01*
X51252976Y-109198118D02*
X51252976Y-109817165D01*
X57380744Y-107902456D02*
X56904553Y-107569123D01*
X57380744Y-107331028D02*
X56380744Y-107331028D01*
X56380744Y-107331028D02*
X56380744Y-107711980D01*
X56380744Y-107711980D02*
X56428363Y-107807218D01*
X56428363Y-107807218D02*
X56475982Y-107854837D01*
X56475982Y-107854837D02*
X56571220Y-107902456D01*
X56571220Y-107902456D02*
X56714077Y-107902456D01*
X56714077Y-107902456D02*
X56809315Y-107854837D01*
X56809315Y-107854837D02*
X56856934Y-107807218D01*
X56856934Y-107807218D02*
X56904553Y-107711980D01*
X56904553Y-107711980D02*
X56904553Y-107331028D01*
X57380744Y-108854837D02*
X57380744Y-108283409D01*
X57380744Y-108569123D02*
X56380744Y-108569123D01*
X56380744Y-108569123D02*
X56523601Y-108473885D01*
X56523601Y-108473885D02*
X56618839Y-108378647D01*
X56618839Y-108378647D02*
X56666458Y-108283409D01*
X56380744Y-109188171D02*
X56380744Y-109807218D01*
X56380744Y-109807218D02*
X56761696Y-109473885D01*
X56761696Y-109473885D02*
X56761696Y-109616742D01*
X56761696Y-109616742D02*
X56809315Y-109711980D01*
X56809315Y-109711980D02*
X56856934Y-109759599D01*
X56856934Y-109759599D02*
X56952172Y-109807218D01*
X56952172Y-109807218D02*
X57190267Y-109807218D01*
X57190267Y-109807218D02*
X57285505Y-109759599D01*
X57285505Y-109759599D02*
X57333125Y-109711980D01*
X57333125Y-109711980D02*
X57380744Y-109616742D01*
X57380744Y-109616742D02*
X57380744Y-109331028D01*
X57380744Y-109331028D02*
X57333125Y-109235790D01*
X57333125Y-109235790D02*
X57285505Y-109188171D01*
X28728435Y-102690392D02*
X28776055Y-102642773D01*
X28776055Y-102642773D02*
X28823674Y-102499916D01*
X28823674Y-102499916D02*
X28823674Y-102404678D01*
X28823674Y-102404678D02*
X28776055Y-102261821D01*
X28776055Y-102261821D02*
X28680816Y-102166583D01*
X28680816Y-102166583D02*
X28585578Y-102118964D01*
X28585578Y-102118964D02*
X28395102Y-102071345D01*
X28395102Y-102071345D02*
X28252245Y-102071345D01*
X28252245Y-102071345D02*
X28061769Y-102118964D01*
X28061769Y-102118964D02*
X27966531Y-102166583D01*
X27966531Y-102166583D02*
X27871293Y-102261821D01*
X27871293Y-102261821D02*
X27823674Y-102404678D01*
X27823674Y-102404678D02*
X27823674Y-102499916D01*
X27823674Y-102499916D02*
X27871293Y-102642773D01*
X27871293Y-102642773D02*
X27918912Y-102690392D01*
X28823674Y-103642773D02*
X28823674Y-103071345D01*
X28823674Y-103357059D02*
X27823674Y-103357059D01*
X27823674Y-103357059D02*
X27966531Y-103261821D01*
X27966531Y-103261821D02*
X28061769Y-103166583D01*
X28061769Y-103166583D02*
X28109388Y-103071345D01*
X27823674Y-104499916D02*
X27823674Y-104309440D01*
X27823674Y-104309440D02*
X27871293Y-104214202D01*
X27871293Y-104214202D02*
X27918912Y-104166583D01*
X27918912Y-104166583D02*
X28061769Y-104071345D01*
X28061769Y-104071345D02*
X28252245Y-104023726D01*
X28252245Y-104023726D02*
X28633197Y-104023726D01*
X28633197Y-104023726D02*
X28728435Y-104071345D01*
X28728435Y-104071345D02*
X28776055Y-104118964D01*
X28776055Y-104118964D02*
X28823674Y-104214202D01*
X28823674Y-104214202D02*
X28823674Y-104404678D01*
X28823674Y-104404678D02*
X28776055Y-104499916D01*
X28776055Y-104499916D02*
X28728435Y-104547535D01*
X28728435Y-104547535D02*
X28633197Y-104595154D01*
X28633197Y-104595154D02*
X28395102Y-104595154D01*
X28395102Y-104595154D02*
X28299864Y-104547535D01*
X28299864Y-104547535D02*
X28252245Y-104499916D01*
X28252245Y-104499916D02*
X28204626Y-104404678D01*
X28204626Y-104404678D02*
X28204626Y-104214202D01*
X28204626Y-104214202D02*
X28252245Y-104118964D01*
X28252245Y-104118964D02*
X28299864Y-104071345D01*
X28299864Y-104071345D02*
X28395102Y-104023726D01*
X56947509Y-99659580D02*
X56995128Y-99707200D01*
X56995128Y-99707200D02*
X57137985Y-99754819D01*
X57137985Y-99754819D02*
X57233223Y-99754819D01*
X57233223Y-99754819D02*
X57376080Y-99707200D01*
X57376080Y-99707200D02*
X57471318Y-99611961D01*
X57471318Y-99611961D02*
X57518937Y-99516723D01*
X57518937Y-99516723D02*
X57566556Y-99326247D01*
X57566556Y-99326247D02*
X57566556Y-99183390D01*
X57566556Y-99183390D02*
X57518937Y-98992914D01*
X57518937Y-98992914D02*
X57471318Y-98897676D01*
X57471318Y-98897676D02*
X57376080Y-98802438D01*
X57376080Y-98802438D02*
X57233223Y-98754819D01*
X57233223Y-98754819D02*
X57137985Y-98754819D01*
X57137985Y-98754819D02*
X56995128Y-98802438D01*
X56995128Y-98802438D02*
X56947509Y-98850057D01*
X56566556Y-98850057D02*
X56518937Y-98802438D01*
X56518937Y-98802438D02*
X56423699Y-98754819D01*
X56423699Y-98754819D02*
X56185604Y-98754819D01*
X56185604Y-98754819D02*
X56090366Y-98802438D01*
X56090366Y-98802438D02*
X56042747Y-98850057D01*
X56042747Y-98850057D02*
X55995128Y-98945295D01*
X55995128Y-98945295D02*
X55995128Y-99040533D01*
X55995128Y-99040533D02*
X56042747Y-99183390D01*
X56042747Y-99183390D02*
X56614175Y-99754819D01*
X56614175Y-99754819D02*
X55995128Y-99754819D01*
X55042747Y-99754819D02*
X55614175Y-99754819D01*
X55328461Y-99754819D02*
X55328461Y-98754819D01*
X55328461Y-98754819D02*
X55423699Y-98897676D01*
X55423699Y-98897676D02*
X55518937Y-98992914D01*
X55518937Y-98992914D02*
X55614175Y-99040533D01*
X41480246Y-102754819D02*
X41480246Y-101754819D01*
X41480246Y-101754819D02*
X41242151Y-101754819D01*
X41242151Y-101754819D02*
X41099294Y-101802438D01*
X41099294Y-101802438D02*
X41004056Y-101897676D01*
X41004056Y-101897676D02*
X40956437Y-101992914D01*
X40956437Y-101992914D02*
X40908818Y-102183390D01*
X40908818Y-102183390D02*
X40908818Y-102326247D01*
X40908818Y-102326247D02*
X40956437Y-102516723D01*
X40956437Y-102516723D02*
X41004056Y-102611961D01*
X41004056Y-102611961D02*
X41099294Y-102707200D01*
X41099294Y-102707200D02*
X41242151Y-102754819D01*
X41242151Y-102754819D02*
X41480246Y-102754819D01*
X40004056Y-101754819D02*
X40480246Y-101754819D01*
X40480246Y-101754819D02*
X40527865Y-102231009D01*
X40527865Y-102231009D02*
X40480246Y-102183390D01*
X40480246Y-102183390D02*
X40385008Y-102135771D01*
X40385008Y-102135771D02*
X40146913Y-102135771D01*
X40146913Y-102135771D02*
X40051675Y-102183390D01*
X40051675Y-102183390D02*
X40004056Y-102231009D01*
X40004056Y-102231009D02*
X39956437Y-102326247D01*
X39956437Y-102326247D02*
X39956437Y-102564342D01*
X39956437Y-102564342D02*
X40004056Y-102659580D01*
X40004056Y-102659580D02*
X40051675Y-102707200D01*
X40051675Y-102707200D02*
X40146913Y-102754819D01*
X40146913Y-102754819D02*
X40385008Y-102754819D01*
X40385008Y-102754819D02*
X40480246Y-102707200D01*
X40480246Y-102707200D02*
X40527865Y-102659580D01*
X37102640Y-98841254D02*
X37150259Y-98888874D01*
X37150259Y-98888874D02*
X37293116Y-98936493D01*
X37293116Y-98936493D02*
X37388354Y-98936493D01*
X37388354Y-98936493D02*
X37531211Y-98888874D01*
X37531211Y-98888874D02*
X37626449Y-98793635D01*
X37626449Y-98793635D02*
X37674068Y-98698397D01*
X37674068Y-98698397D02*
X37721687Y-98507921D01*
X37721687Y-98507921D02*
X37721687Y-98365064D01*
X37721687Y-98365064D02*
X37674068Y-98174588D01*
X37674068Y-98174588D02*
X37626449Y-98079350D01*
X37626449Y-98079350D02*
X37531211Y-97984112D01*
X37531211Y-97984112D02*
X37388354Y-97936493D01*
X37388354Y-97936493D02*
X37293116Y-97936493D01*
X37293116Y-97936493D02*
X37150259Y-97984112D01*
X37150259Y-97984112D02*
X37102640Y-98031731D01*
X36721687Y-98031731D02*
X36674068Y-97984112D01*
X36674068Y-97984112D02*
X36578830Y-97936493D01*
X36578830Y-97936493D02*
X36340735Y-97936493D01*
X36340735Y-97936493D02*
X36245497Y-97984112D01*
X36245497Y-97984112D02*
X36197878Y-98031731D01*
X36197878Y-98031731D02*
X36150259Y-98126969D01*
X36150259Y-98126969D02*
X36150259Y-98222207D01*
X36150259Y-98222207D02*
X36197878Y-98365064D01*
X36197878Y-98365064D02*
X36769306Y-98936493D01*
X36769306Y-98936493D02*
X36150259Y-98936493D01*
X35816925Y-97936493D02*
X35197878Y-97936493D01*
X35197878Y-97936493D02*
X35531211Y-98317445D01*
X35531211Y-98317445D02*
X35388354Y-98317445D01*
X35388354Y-98317445D02*
X35293116Y-98365064D01*
X35293116Y-98365064D02*
X35245497Y-98412683D01*
X35245497Y-98412683D02*
X35197878Y-98507921D01*
X35197878Y-98507921D02*
X35197878Y-98746016D01*
X35197878Y-98746016D02*
X35245497Y-98841254D01*
X35245497Y-98841254D02*
X35293116Y-98888874D01*
X35293116Y-98888874D02*
X35388354Y-98936493D01*
X35388354Y-98936493D02*
X35674068Y-98936493D01*
X35674068Y-98936493D02*
X35769306Y-98888874D01*
X35769306Y-98888874D02*
X35816925Y-98841254D01*
X96930985Y-66695551D02*
X96930985Y-67409836D01*
X96930985Y-67409836D02*
X96978604Y-67552693D01*
X96978604Y-67552693D02*
X97073842Y-67647932D01*
X97073842Y-67647932D02*
X97216699Y-67695551D01*
X97216699Y-67695551D02*
X97311937Y-67695551D01*
X96026223Y-67028884D02*
X96026223Y-67695551D01*
X96264318Y-66647932D02*
X96502413Y-67362217D01*
X96502413Y-67362217D02*
X95883366Y-67362217D01*
X41984261Y-105060489D02*
X41984261Y-104060489D01*
X41984261Y-104060489D02*
X41746166Y-104060489D01*
X41746166Y-104060489D02*
X41603309Y-104108108D01*
X41603309Y-104108108D02*
X41508071Y-104203346D01*
X41508071Y-104203346D02*
X41460452Y-104298584D01*
X41460452Y-104298584D02*
X41412833Y-104489060D01*
X41412833Y-104489060D02*
X41412833Y-104631917D01*
X41412833Y-104631917D02*
X41460452Y-104822393D01*
X41460452Y-104822393D02*
X41508071Y-104917631D01*
X41508071Y-104917631D02*
X41603309Y-105012870D01*
X41603309Y-105012870D02*
X41746166Y-105060489D01*
X41746166Y-105060489D02*
X41984261Y-105060489D01*
X41079499Y-104060489D02*
X40412833Y-104060489D01*
X40412833Y-104060489D02*
X40841404Y-105060489D01*
X56249890Y-105050057D02*
X56345128Y-105002438D01*
X56345128Y-105002438D02*
X56440366Y-104907200D01*
X56440366Y-104907200D02*
X56583223Y-104764342D01*
X56583223Y-104764342D02*
X56678461Y-104716723D01*
X56678461Y-104716723D02*
X56773699Y-104716723D01*
X56726080Y-104954819D02*
X56821318Y-104907200D01*
X56821318Y-104907200D02*
X56916556Y-104811961D01*
X56916556Y-104811961D02*
X56964175Y-104621485D01*
X56964175Y-104621485D02*
X56964175Y-104288152D01*
X56964175Y-104288152D02*
X56916556Y-104097676D01*
X56916556Y-104097676D02*
X56821318Y-104002438D01*
X56821318Y-104002438D02*
X56726080Y-103954819D01*
X56726080Y-103954819D02*
X56535604Y-103954819D01*
X56535604Y-103954819D02*
X56440366Y-104002438D01*
X56440366Y-104002438D02*
X56345128Y-104097676D01*
X56345128Y-104097676D02*
X56297509Y-104288152D01*
X56297509Y-104288152D02*
X56297509Y-104621485D01*
X56297509Y-104621485D02*
X56345128Y-104811961D01*
X56345128Y-104811961D02*
X56440366Y-104907200D01*
X56440366Y-104907200D02*
X56535604Y-104954819D01*
X56535604Y-104954819D02*
X56726080Y-104954819D01*
X55916556Y-104050057D02*
X55868937Y-104002438D01*
X55868937Y-104002438D02*
X55773699Y-103954819D01*
X55773699Y-103954819D02*
X55535604Y-103954819D01*
X55535604Y-103954819D02*
X55440366Y-104002438D01*
X55440366Y-104002438D02*
X55392747Y-104050057D01*
X55392747Y-104050057D02*
X55345128Y-104145295D01*
X55345128Y-104145295D02*
X55345128Y-104240533D01*
X55345128Y-104240533D02*
X55392747Y-104383390D01*
X55392747Y-104383390D02*
X55964175Y-104954819D01*
X55964175Y-104954819D02*
X55345128Y-104954819D01*
X33653569Y-105428436D02*
X33701189Y-105380817D01*
X33701189Y-105380817D02*
X33748808Y-105237960D01*
X33748808Y-105237960D02*
X33748808Y-105142722D01*
X33748808Y-105142722D02*
X33701189Y-104999865D01*
X33701189Y-104999865D02*
X33605950Y-104904627D01*
X33605950Y-104904627D02*
X33510712Y-104857008D01*
X33510712Y-104857008D02*
X33320236Y-104809389D01*
X33320236Y-104809389D02*
X33177379Y-104809389D01*
X33177379Y-104809389D02*
X32986903Y-104857008D01*
X32986903Y-104857008D02*
X32891665Y-104904627D01*
X32891665Y-104904627D02*
X32796427Y-104999865D01*
X32796427Y-104999865D02*
X32748808Y-105142722D01*
X32748808Y-105142722D02*
X32748808Y-105237960D01*
X32748808Y-105237960D02*
X32796427Y-105380817D01*
X32796427Y-105380817D02*
X32844046Y-105428436D01*
X33748808Y-106380817D02*
X33748808Y-105809389D01*
X33748808Y-106095103D02*
X32748808Y-106095103D01*
X32748808Y-106095103D02*
X32891665Y-105999865D01*
X32891665Y-105999865D02*
X32986903Y-105904627D01*
X32986903Y-105904627D02*
X33034522Y-105809389D01*
X33748808Y-106857008D02*
X33748808Y-107047484D01*
X33748808Y-107047484D02*
X33701189Y-107142722D01*
X33701189Y-107142722D02*
X33653569Y-107190341D01*
X33653569Y-107190341D02*
X33510712Y-107285579D01*
X33510712Y-107285579D02*
X33320236Y-107333198D01*
X33320236Y-107333198D02*
X32939284Y-107333198D01*
X32939284Y-107333198D02*
X32844046Y-107285579D01*
X32844046Y-107285579D02*
X32796427Y-107237960D01*
X32796427Y-107237960D02*
X32748808Y-107142722D01*
X32748808Y-107142722D02*
X32748808Y-106952246D01*
X32748808Y-106952246D02*
X32796427Y-106857008D01*
X32796427Y-106857008D02*
X32844046Y-106809389D01*
X32844046Y-106809389D02*
X32939284Y-106761770D01*
X32939284Y-106761770D02*
X33177379Y-106761770D01*
X33177379Y-106761770D02*
X33272617Y-106809389D01*
X33272617Y-106809389D02*
X33320236Y-106857008D01*
X33320236Y-106857008D02*
X33367855Y-106952246D01*
X33367855Y-106952246D02*
X33367855Y-107142722D01*
X33367855Y-107142722D02*
X33320236Y-107237960D01*
X33320236Y-107237960D02*
X33272617Y-107285579D01*
X33272617Y-107285579D02*
X33177379Y-107333198D01*
X32117003Y-94669006D02*
X32164623Y-94621387D01*
X32164623Y-94621387D02*
X32212242Y-94478530D01*
X32212242Y-94478530D02*
X32212242Y-94383292D01*
X32212242Y-94383292D02*
X32164623Y-94240435D01*
X32164623Y-94240435D02*
X32069384Y-94145197D01*
X32069384Y-94145197D02*
X31974146Y-94097578D01*
X31974146Y-94097578D02*
X31783670Y-94049959D01*
X31783670Y-94049959D02*
X31640813Y-94049959D01*
X31640813Y-94049959D02*
X31450337Y-94097578D01*
X31450337Y-94097578D02*
X31355099Y-94145197D01*
X31355099Y-94145197D02*
X31259861Y-94240435D01*
X31259861Y-94240435D02*
X31212242Y-94383292D01*
X31212242Y-94383292D02*
X31212242Y-94478530D01*
X31212242Y-94478530D02*
X31259861Y-94621387D01*
X31259861Y-94621387D02*
X31307480Y-94669006D01*
X31307480Y-95049959D02*
X31259861Y-95097578D01*
X31259861Y-95097578D02*
X31212242Y-95192816D01*
X31212242Y-95192816D02*
X31212242Y-95430911D01*
X31212242Y-95430911D02*
X31259861Y-95526149D01*
X31259861Y-95526149D02*
X31307480Y-95573768D01*
X31307480Y-95573768D02*
X31402718Y-95621387D01*
X31402718Y-95621387D02*
X31497956Y-95621387D01*
X31497956Y-95621387D02*
X31640813Y-95573768D01*
X31640813Y-95573768D02*
X32212242Y-95002340D01*
X32212242Y-95002340D02*
X32212242Y-95621387D01*
X31545575Y-96478530D02*
X32212242Y-96478530D01*
X31164623Y-96240435D02*
X31878908Y-96002340D01*
X31878908Y-96002340D02*
X31878908Y-96621387D01*
X41774660Y-100491555D02*
X41774660Y-99491555D01*
X41774660Y-99491555D02*
X41536565Y-99491555D01*
X41536565Y-99491555D02*
X41393708Y-99539174D01*
X41393708Y-99539174D02*
X41298470Y-99634412D01*
X41298470Y-99634412D02*
X41250851Y-99729650D01*
X41250851Y-99729650D02*
X41203232Y-99920126D01*
X41203232Y-99920126D02*
X41203232Y-100062983D01*
X41203232Y-100062983D02*
X41250851Y-100253459D01*
X41250851Y-100253459D02*
X41298470Y-100348697D01*
X41298470Y-100348697D02*
X41393708Y-100443936D01*
X41393708Y-100443936D02*
X41536565Y-100491555D01*
X41536565Y-100491555D02*
X41774660Y-100491555D01*
X40346089Y-99491555D02*
X40536565Y-99491555D01*
X40536565Y-99491555D02*
X40631803Y-99539174D01*
X40631803Y-99539174D02*
X40679422Y-99586793D01*
X40679422Y-99586793D02*
X40774660Y-99729650D01*
X40774660Y-99729650D02*
X40822279Y-99920126D01*
X40822279Y-99920126D02*
X40822279Y-100301078D01*
X40822279Y-100301078D02*
X40774660Y-100396316D01*
X40774660Y-100396316D02*
X40727041Y-100443936D01*
X40727041Y-100443936D02*
X40631803Y-100491555D01*
X40631803Y-100491555D02*
X40441327Y-100491555D01*
X40441327Y-100491555D02*
X40346089Y-100443936D01*
X40346089Y-100443936D02*
X40298470Y-100396316D01*
X40298470Y-100396316D02*
X40250851Y-100301078D01*
X40250851Y-100301078D02*
X40250851Y-100062983D01*
X40250851Y-100062983D02*
X40298470Y-99967745D01*
X40298470Y-99967745D02*
X40346089Y-99920126D01*
X40346089Y-99920126D02*
X40441327Y-99872507D01*
X40441327Y-99872507D02*
X40631803Y-99872507D01*
X40631803Y-99872507D02*
X40727041Y-99920126D01*
X40727041Y-99920126D02*
X40774660Y-99967745D01*
X40774660Y-99967745D02*
X40822279Y-100062983D01*
D12*
%TO.C,C20*%
X34482152Y-102558767D02*
X34482152Y-102266233D01*
X35502152Y-102558767D02*
X35502152Y-102266233D01*
%TO.C,C17*%
X30232152Y-98196267D02*
X30232152Y-97903733D01*
X31252152Y-98196267D02*
X31252152Y-97903733D01*
%TO.C,R11*%
X53069216Y-100565000D02*
X52615088Y-100565000D01*
X53069216Y-102035000D02*
X52615088Y-102035000D01*
%TO.C,C22*%
X44752904Y-106315000D02*
X44230400Y-106315000D01*
X44752904Y-107785000D02*
X44230400Y-107785000D01*
%TO.C,L1*%
X54742152Y-94200000D02*
X49742152Y-94200000D01*
X54742152Y-97400000D02*
X49742152Y-97400000D01*
%TO.C,C15*%
X28482152Y-98196267D02*
X28482152Y-97903733D01*
X29502152Y-98196267D02*
X29502152Y-97903733D01*
%TO.C,C18*%
X30982152Y-102558767D02*
X30982152Y-102266233D01*
X32002152Y-102558767D02*
X32002152Y-102266233D01*
%TO.C,R12*%
X52108146Y-108322781D02*
X52108146Y-108776909D01*
X53578146Y-108322781D02*
X53578146Y-108776909D01*
%TO.C,R13*%
X54108146Y-108322781D02*
X54108146Y-108776909D01*
X55578146Y-108322781D02*
X55578146Y-108776909D01*
%TO.C,C16*%
X29232152Y-102558767D02*
X29232152Y-102266233D01*
X30252152Y-102558767D02*
X30252152Y-102266233D01*
%TO.C,C21*%
X53065904Y-98565000D02*
X52543400Y-98565000D01*
X53065904Y-100035000D02*
X52543400Y-100035000D01*
%TO.C,D5*%
X46852152Y-101300000D02*
X42842152Y-101300000D01*
X46852152Y-101300000D02*
X46852152Y-103300000D01*
X46852152Y-103300000D02*
X42842152Y-103300000D01*
%TO.C,C23*%
X33732152Y-98196267D02*
X33732152Y-97903733D01*
X34752152Y-98196267D02*
X34752152Y-97903733D01*
%TO.C,J4*%
X93947652Y-68240732D02*
X93947652Y-68810732D01*
X93947652Y-70430732D02*
X93947652Y-71350732D01*
X93947652Y-72970732D02*
X93947652Y-73890732D01*
X93947652Y-75510732D02*
X93947652Y-76080732D01*
X99247652Y-68240732D02*
X93947652Y-68240732D01*
X99247652Y-68240732D02*
X99247652Y-68810732D01*
X99247652Y-70430732D02*
X99247652Y-71350732D01*
X99247652Y-72970732D02*
X99247652Y-73890732D01*
X99247652Y-75510732D02*
X99247652Y-76080732D01*
X99247652Y-76080732D02*
X93947652Y-76080732D01*
X100637652Y-68810732D02*
X99247652Y-68810732D01*
%TO.C,D7*%
X46852152Y-103800000D02*
X42842152Y-103800000D01*
X46852152Y-103800000D02*
X46852152Y-105800000D01*
X46852152Y-105800000D02*
X42842152Y-105800000D01*
%TO.C,Q2*%
X52144652Y-102940000D02*
X52144652Y-103940000D01*
X52144652Y-105060000D02*
X52144652Y-106060000D01*
X52144652Y-106060000D02*
X53664652Y-106060000D01*
X53664652Y-102940000D02*
X52144652Y-102940000D01*
X53664652Y-102990000D02*
X53664652Y-102940000D01*
X53664652Y-104890000D02*
X53664652Y-104110000D01*
X53664652Y-106060000D02*
X53664652Y-106010000D01*
X54444652Y-104450000D02*
X53964652Y-104450000D01*
X54204652Y-104120000D01*
X54444652Y-104450000D01*
G36*
X54444652Y-104450000D02*
G01*
X53964652Y-104450000D01*
X54204652Y-104120000D01*
X54444652Y-104450000D01*
G37*
%TO.C,C19*%
X32732152Y-102558767D02*
X32732152Y-102266233D01*
X33752152Y-102558767D02*
X33752152Y-102266233D01*
%TO.C,C24*%
X31982152Y-98196267D02*
X31982152Y-97903733D01*
X33002152Y-98196267D02*
X33002152Y-97903733D01*
%TO.C,D6*%
X46852152Y-98800000D02*
X42842152Y-98800000D01*
X46852152Y-98800000D02*
X46852152Y-100800000D01*
X46852152Y-100800000D02*
X42842152Y-100800000D01*
%TD*%
M02*
