M48
; DRILL file {KiCad 9.0.7} date 2026-03-26T18:41:52-0500
; FORMAT={-:-/ absolute / metric / decimal}
; #@! TF.CreationDate,2026-03-26T18:41:52-05:00
; #@! TF.GenerationSoftware,Kicad,Pcbnew,9.0.7
; #@! TF.FileFunction,Plated,1,2,PTH
FMAT,2
METRIC
; #@! TA.AperFunction,Plated,PTH,ViaDrill
T1C0.300
; #@! TA.AperFunction,Plated,PTH,ComponentDrill
T2C0.300
; #@! TA.AperFunction,Plated,PTH,ComponentDrill
T3C0.600
%
G90
G05
T1
X14.45Y-101.956
X14.465Y-106.827
X14.473Y-97.009
X14.492Y-99.723
X14.518Y-104.216
X14.738Y-109.372
X16.239Y-104.328
X16.418Y-101.836
X16.418Y-106.3
X16.55Y-94.534
X16.671Y-99.494
X16.718Y-110.554
X18.85Y-99.345
X18.882Y-110.483
X18.94Y-101.732
X18.999Y-106.91
X19.089Y-109.148
X19.163Y-104.418
X19.171Y-94.683
X19.258Y-96.89
X20.879Y-107.029
X21.476Y-108.685
X21.539Y-110.573
X21.698Y-101.421
X21.745Y-94.66
X21.969Y-99.24
X22.045Y-96.923
X22.499Y-106.99
X23.23Y-109.297
X23.454Y-103.687
X24.242Y-109.3
X24.328Y-101.382
X24.342Y-94.638
X24.401Y-99.345
X24.596Y-96.991
X24.608Y-105.195
X24.608Y-110.55
X24.742Y-108.55
X25.492Y-108.169
X26.304Y-103.179
X26.492Y-100.05
X26.535Y-96.838
X26.58Y-109.364
X26.588Y-108.161
X26.615Y-99.176
X26.647Y-100.931
X26.729Y-105.131
X26.826Y-94.705
X27.935Y-97.15
X28.206Y-105.235
X28.712Y-101.467
X28.968Y-94.516
X28.972Y-96.032
X29.242Y-105.05
X29.748Y-100.429
X30.496Y-104.884
X30.741Y-96.007
X31.176Y-104.368
X31.487Y-100.419
X31.695Y-94.533
X32.365Y-105.195
X32.48Y-96.022
X32.617Y-104.425
X33.226Y-100.459
X33.486Y-104.364
X34.099Y-94.538
X34.234Y-96.082
X34.267Y-105.027
X34.942Y-104.55
X34.995Y-100.424
X35.282Y-97.12
X35.553Y-99.662
X35.884Y-102.535
X36.028Y-101.477
X36.473Y-94.616
X36.531Y-96.711
X38.232Y-98.77
X38.538Y-106.182
X38.809Y-103.102
X39.381Y-96.741
X39.561Y-94.705
X39.756Y-107.153
X39.798Y-100.292
X39.928Y-104.49
X41.604Y-96.622
X41.664Y-98.979
X41.755Y-105.363
X41.811Y-103.029
X41.979Y-94.66
X43.78Y-104.064
X43.917Y-98.994
X44.006Y-96.532
X44.396Y-94.728
X44.961Y-99.77
X45.143Y-105.168
X46.128Y-101.031
X46.662Y-96.696
X46.791Y-94.571
X47.2Y-101.68
X47.241Y-99.823
X48.16Y-103.342
X48.841Y-96.562
X49.119Y-94.616
X49.453Y-99.994
X49.87Y-101.755
X49.885Y-98.248
X49.901Y-103.283
X50.063Y-109.966
X51.565Y-109.574
X51.758Y-98.13
X52.222Y-96.402
X52.234Y-94.559
X52.584Y-103.366
X52.866Y-100.291
X54.94Y-98.289
X54.94Y-100.169
X54.94Y-101.892
X56.038Y-109.536
X56.453Y-103.244
X56.517Y-94.591
X56.731Y-97.55
X57.329Y-110.089
X57.492Y-96.05
X57.962Y-99.52
X58.208Y-101.691
X58.758Y-109.401
X58.812Y-97.259
X58.979Y-94.614
X59.064Y-103.289
X61.028Y-99.542
X61.377Y-103.348
X61.386Y-101.646
X61.399Y-109.64
X61.486Y-94.569
X61.656Y-96.681
X63.849Y-96.703
X63.859Y-94.636
X63.876Y-109.685
X64.005Y-101.736
X64.093Y-103.304
X64.095Y-99.322
X66.205Y-24.671
X66.205Y-19.376
X66.228Y-21.787
X66.276Y-78.342
X66.343Y-72.993
X66.343Y-75.634
X66.357Y-50.406
X66.369Y-55.353
X66.369Y-57.89
X66.377Y-53.006
X66.41Y-80.983
X66.41Y-94.636
X66.422Y-101.646
X66.423Y-99.479
X66.433Y-83.893
X66.441Y-70.509
X66.458Y-109.655
X66.462Y-60.32
X66.481Y-48.204
X66.486Y-68.376
X66.49Y-96.703
X66.495Y-103.304
X66.5Y-89.533
X66.532Y-65.652
X66.542Y-62.608
X66.634Y-86.713
X66.634Y-91.861
X66.703Y-16.914
X67.189Y-27.739
X67.354Y-43.97
X67.368Y-37.833
X67.435Y-32.976
X68.438Y-50.573
X68.563Y-46.947
X68.644Y-29.551
X68.706Y-91.242
X68.729Y-86.34
X68.756Y-35.326
X68.773Y-21.673
X68.832Y-41.643
X68.84Y-83.498
X68.863Y-62.526
X68.885Y-55.318
X68.885Y-72.866
X68.89Y-25.746
X68.908Y-60.534
X68.908Y-78.216
X68.949Y-109.655
X68.972Y-103.244
X68.996Y-101.691
X68.997Y-57.937
X69.019Y-53.058
X69.042Y-94.129
X69.087Y-65.167
X69.087Y-88.847
X69.109Y-67.763
X69.154Y-70.404
X69.158Y-16.298
X69.176Y-75.888
X69.176Y-80.767
X70.049Y-99.3
X70.21Y-23.643
X70.492Y-34.8
X70.762Y-38.713
X70.941Y-43.279
X70.963Y-41.175
X71.146Y-30.027
X71.242Y-33.55
X71.242Y-44.3
X71.302Y-101.669
X71.316Y-48.492
X71.37Y-96.614
X71.39Y-103.289
X71.459Y-83.341
X71.471Y-109.64
X71.51Y-16.042
X71.562Y-45.358
X71.593Y-91.152
X71.615Y-19.278
X71.661Y-80.7
X71.75Y-93.905
X71.974Y-86.005
X72.041Y-88.668
X72.108Y-65.211
X72.108Y-76.671
X72.175Y-73.247
X72.22Y-57.713
X72.238Y-27.289
X72.242Y-25.437
X72.243Y-99.277
X72.265Y-60.556
X72.31Y-67.92
X72.332Y-62.436
X72.332Y-70.494
X72.444Y-54.781
X72.516Y-22.277
X72.847Y-78.395
X73.756Y-48.827
X73.758Y-26.909
X73.765Y-96.793
X73.814Y-109.685
X73.832Y-24.536
X73.876Y-83.14
X73.89Y-51.715
X73.948Y-16.06
X73.98Y-45.671
X73.986Y-103.289
X73.988Y-101.736
X73.992Y-18.55
X74.007Y-43.257
X74.033Y-91.242
X74.056Y-80.946
X74.064Y-38.772
X74.097Y-41.22
X74.116Y-29.326
X74.165Y-32.24
X74.167Y-93.95
X74.338Y-56.728
X74.382Y-59.168
X74.382Y-61.764
X74.382Y-64.204
X74.382Y-74.343
X74.405Y-54.803
X74.405Y-71.724
X74.45Y-69.285
X74.481Y-85.96
X74.494Y-66.688
X74.503Y-88.646
X74.539Y-76.671
X74.746Y-36.341
X74.835Y-22.186
X75.192Y-19.287
X75.787Y-24.387
X75.817Y-29.371
X75.837Y-48.984
X75.921Y-26.76
X75.951Y-32.057
X76.215Y-79.0
X76.316Y-96.681
X76.338Y-99.277
X76.375Y-56.997
X76.38Y-109.64
X76.392Y-16.06
X76.408Y-43.991
X76.427Y-101.624
X76.439Y-37.803
X76.45Y-80.924
X76.464Y-59.078
X76.498Y-17.874
X76.509Y-64.361
X76.562Y-90.929
X76.585Y-83.431
X76.621Y-52.162
X76.629Y-93.682
X76.652Y-85.893
X76.688Y-66.755
X76.688Y-71.814
X76.761Y-103.304
X76.777Y-61.742
X76.777Y-69.285
X76.777Y-74.343
X76.786Y-88.713
X76.912Y-55.161
X77.748Y-41.536
X77.799Y-29.35
X77.829Y-76.805
X77.874Y-26.933
X78.023Y-31.827
X78.17Y-37.236
X78.239Y-23.415
X78.332Y-46.833
X78.355Y-49.116
X78.391Y-35.801
X78.742Y-79.8
X78.765Y-75.016
X78.787Y-16.05
X78.823Y-93.905
X78.842Y-109.714
X78.868Y-83.542
X78.89Y-88.78
X78.89Y-96.681
X78.892Y-69.238
X78.935Y-91.152
X78.957Y-85.96
X79.002Y-80.901
X79.016Y-54.557
X79.045Y-99.504
X79.116Y-44.08
X79.172Y-64.271
X79.192Y-79.0
X79.217Y-57.064
X79.222Y-41.757
X79.317Y-72.058
X79.359Y-101.758
X79.441Y-59.078
X79.446Y-39.318
X79.463Y-61.697
X79.47Y-26.873
X79.486Y-24.549
X79.515Y-29.231
X79.522Y-103.289
X79.69Y-31.18
X80.741Y-30.124
X80.792Y-79.0
X81.104Y-89.298
X81.172Y-91.76
X81.216Y-96.796
X81.239Y-87.015
X81.281Y-76.991
X81.309Y-71.073
X81.354Y-66.933
X81.398Y-16.09
X81.421Y-46.856
X81.424Y-109.744
X81.441Y-81.793
X81.444Y-56.749
X81.444Y-64.381
X81.46Y-41.712
X81.507Y-84.352
X81.511Y-61.897
X81.559Y-28.858
X81.575Y-105.467
X81.578Y-69.417
X81.6Y-44.08
X81.623Y-49.027
X81.623Y-54.152
X81.623Y-59.278
X81.642Y-99.386
X81.69Y-51.847
X81.754Y-94.334
X81.768Y-31.185
X81.798Y-33.871
X82.052Y-26.724
X82.313Y-38.83
X82.365Y-30.17
X83.048Y-22.288
X83.167Y-54.264
X83.423Y-29.208
X83.435Y-37.798
X83.458Y-56.95
X83.548Y-51.713
X83.766Y-79.0
X83.883Y-46.878
X83.883Y-49.273
X83.932Y-34.707
X83.945Y-41.959
X83.946Y-109.834
X83.973Y-44.103
X83.992Y-91.76
X84.037Y-81.659
X84.041Y-77.081
X84.082Y-96.856
X84.082Y-105.31
X84.085Y-64.381
X84.104Y-84.329
X84.107Y-59.323
X84.126Y-33.319
X84.193Y-87.015
X84.194Y-102.535
X84.219Y-61.986
X84.238Y-94.312
X84.264Y-71.073
X84.277Y-27.128
X84.327Y-89.231
X84.353Y-66.575
X84.398Y-69.216
X84.462Y-30.17
X84.623Y-38.805
X84.725Y-16.423
X84.947Y-24.977
X85.252Y-19.263
X85.638Y-36.832
X85.99Y-26.029
X86.342Y-86.881
X86.362Y-41.936
X86.403Y-61.07
X86.432Y-38.815
X86.435Y-44.304
X86.457Y-46.811
X86.477Y-81.771
X86.492Y-64.621
X86.578Y-77.006
X86.582Y-30.182
X86.595Y-27.098
X86.603Y-34.752
X86.633Y-89.276
X86.633Y-91.827
X86.634Y-105.333
X86.646Y-109.207
X86.656Y-94.282
X86.737Y-33.185
X86.745Y-84.419
X86.75Y-79.0
X86.857Y-99.916
X86.947Y-102.423
X87.242Y-22.484
X87.297Y-110.519
X87.421Y-66.182
X87.548Y-29.208
X87.555Y-37.808
X87.772Y-19.254
X88.069Y-44.327
X88.148Y-62.443
X88.372Y-74.493
X88.372Y-76.628
X88.458Y-71.381
X88.488Y-67.287
X88.496Y-68.633
X88.511Y-41.936
X88.596Y-64.666
X88.65Y-79.0
X88.66Y-24.08
X88.893Y-86.478
X88.893Y-89.253
X89.005Y-84.441
X89.035Y-26.59
X89.051Y-81.883
X89.11Y-33.454
X89.208Y-91.753
X89.306Y-110.534
X89.319Y-35.125
X89.431Y-99.782
X89.495Y-29.454
X89.5Y-38.123
X89.543Y-102.289
X89.69Y-22.245
X89.722Y-97.074
X89.846Y-76.693
X89.876Y-70.112
X89.935Y-73.768
X90.336Y-46.026
X90.387Y-62.562
X90.517Y-30.603
X90.537Y-39.211
X90.954Y-66.292
X90.992Y-68.134
X91.198Y-19.263
X91.416Y-79.524
X91.468Y-84.524
X91.51Y-24.065
X91.512Y-86.881
X91.513Y-89.358
X91.57Y-27.378
X91.602Y-29.305
X91.631Y-31.424
X91.676Y-34.438
X91.689Y-41.914
X91.723Y-110.433
X91.748Y-106.891
X91.759Y-76.898
X91.782Y-81.927
X91.844Y-72.171
X91.844Y-74.753
X91.885Y-33.051
X92.095Y-99.737
X92.432Y-39.408
X92.453Y-94.388
X92.61Y-96.962
X92.992Y-22.3
X93.467Y-29.753
X93.703Y-26.363
X93.997Y-86.74
X94.004Y-31.484
X94.008Y-107.047
X94.043Y-76.971
X94.075Y-104.518
X94.077Y-73.434
X94.087Y-84.278
X94.087Y-79.598
X94.174Y-110.5
X94.375Y-41.847
X94.445Y-81.905
X94.492Y-24.05
X94.506Y-19.247
X94.532Y-43.839
X94.948Y-28.553
X94.959Y-32.976
X94.959Y-34.424
X95.452Y-91.388
X95.492Y-30.8
X95.519Y-96.872
X95.631Y-94.298
X96.009Y-27.559
X96.175Y-39.285
X96.287Y-72.126
X96.303Y-84.3
X96.315Y-30.347
X96.425Y-101.855
X96.47Y-107.428
X96.49Y-77.076
X96.493Y-104.361
X96.504Y-79.643
X96.558Y-110.433
X96.57Y-32.335
X96.637Y-74.674
X96.639Y-81.995
X96.809Y-35.453
X97.126Y-19.447
X97.285Y-44.107
X97.492Y-31.55
X98.429Y-94.209
X98.583Y-41.802
X98.583Y-45.338
X98.801Y-36.987
X98.863Y-76.986
X98.876Y-66.796
X98.899Y-88.165
X98.907Y-79.613
X98.91Y-104.496
X98.92Y-39.419
X98.944Y-91.277
X98.988Y-32.141
X98.988Y-34.767
X99.009Y-110.5
X99.044Y-107.428
X99.067Y-99.281
X99.067Y-101.855
X99.101Y-81.704
X99.106Y-73.546
X99.366Y-19.813
X100.158Y-65.217
X100.597Y-46.144
X100.62Y-41.824
X100.743Y-19.062
X100.867Y-60.425
X101.224Y-48.226
X101.23Y-40.229
X101.291Y-44.488
X101.308Y-37.599
X101.319Y-71.321
X101.35Y-74.708
X101.417Y-99.437
X101.444Y-76.956
X101.461Y-96.662
X101.461Y-104.294
X101.503Y-79.464
X101.506Y-107.114
X101.518Y-85.099
X101.527Y-110.433
X101.529Y-101.787
X101.54Y-91.097
X101.652Y-88.143
X101.992Y-39.3
X101.992Y-41.8
X102.012Y-24.633
X102.039Y-26.826
X102.079Y-22.104
X102.08Y-20.03
X102.105Y-64.848
X102.204Y-66.904
X102.308Y-63.051
X102.314Y-69.57
X103.727Y-74.285
X103.742Y-40.945
X103.802Y-71.734
X103.847Y-64.452
X103.847Y-76.822
X103.862Y-69.272
X103.891Y-66.78
X103.901Y-110.503
X103.951Y-62.109
X103.991Y-96.617
X103.992Y-52.8
X104.004Y-19.44
X104.004Y-27.319
X104.01Y-94.279
X104.015Y-58.29
X104.026Y-24.633
X104.056Y-60.259
X104.103Y-107.204
X104.155Y-98.852
X104.204Y-88.121
X104.317Y-21.992
X104.584Y-82.301
X104.696Y-85.077
X106.383Y-91.788
X106.413Y-94.205
X106.53Y-108.002
X106.542Y-96.662
X106.555Y-27.476
X106.584Y-110.522
X106.6Y-19.485
X106.68Y-30.429
X106.823Y-24.688
X106.868Y-22.014
X107.292Y-85.166
X107.472Y-54.793
X107.472Y-58.531
X107.472Y-64.172
X107.492Y-51.3
X107.561Y-61.307
X107.606Y-67.238
X107.673Y-70.327
X107.74Y-73.304
X107.74Y-79.19
X107.763Y-76.258
X107.83Y-82.391
X108.25Y-35.307
X108.257Y-49.762
X108.295Y-31.965
X108.742Y-47.05
X108.83Y-89.475
X108.838Y-19.485
X109.009Y-91.728
X109.009Y-94.22
X109.114Y-110.4
X109.115Y-107.973
X109.161Y-96.617
X109.199Y-25.532
X109.241Y-22.059
X109.421Y-36.557
X109.556Y-43.764
X109.623Y-39.086
X109.667Y-47.166
X109.755Y-52.309
X109.996Y-33.442
X110.269Y-82.324
X110.493Y-67.059
X110.493Y-76.146
X110.54Y-79.132
X110.56Y-73.236
X110.605Y-64.149
X110.695Y-61.307
X110.717Y-53.697
X110.717Y-58.464
X110.717Y-70.215
X110.809Y-42.398
X110.831Y-35.169
X111.337Y-89.311
X111.354Y-96.684
X111.377Y-24.741
X111.458Y-31.83
X111.471Y-86.849
X111.486Y-94.22
X111.569Y-19.463
X111.62Y-91.773
X111.632Y-110.332
X111.735Y-107.433
X111.815Y-22.059
X113.586Y-25.875
X113.859Y-84.357
X113.928Y-107.137
X113.963Y-89.37
X113.996Y-96.796
X114.008Y-19.351
X114.038Y-86.819
X114.082Y-94.235
X114.142Y-56.782
X114.15Y-110.567
X114.157Y-69.122
X114.157Y-74.24
X114.168Y-41.835
X114.172Y-61.795
X114.172Y-66.675
X114.172Y-91.788
X114.187Y-59.184
X114.187Y-76.791
X114.187Y-79.313
X114.217Y-81.835
X114.242Y-40.945
X114.242Y-49.3
X114.242Y-51.8
X114.247Y-54.394
X114.271Y-98.984
X114.276Y-64.183
X114.321Y-71.673
X114.389Y-21.947
X114.437Y-46.938
X114.481Y-44.625
X114.992Y-38.05
X115.003Y-24.517
X115.496Y-42.909
X115.72Y-40.82
X115.742Y-52.8
X116.131Y-110.467
X116.481Y-46.088
X116.492Y-51.55
X116.538Y-21.902
X116.558Y-49.289
X116.585Y-38.403
X116.622Y-99.195
X116.681Y-106.443
X116.768Y-91.758
X116.793Y-96.729
X116.815Y-101.741
X116.888Y-94.205
X116.918Y-84.237
X116.947Y-89.236
X116.977Y-86.744
X116.992Y-20.05
X116.992Y-104.3
X117.156Y-81.805
X117.171Y-79.209
X117.246Y-66.719
X117.246Y-74.225
X117.261Y-76.732
X117.291Y-71.703
X117.335Y-54.335
X117.335Y-64.242
X117.38Y-69.226
X117.395Y-59.348
X117.41Y-56.752
X117.41Y-61.721
X118.137Y-41.611
X118.182Y-40.343
X118.227Y-37.642
X118.242Y-19.032
X118.38Y-45.418
X119.166Y-109.554
X119.503Y-81.861
X119.553Y-74.559
X119.553Y-76.876
X119.553Y-79.394
X119.554Y-20.046
X119.571Y-94.291
X119.571Y-96.859
X119.578Y-61.893
X119.578Y-67.063
X119.589Y-22.11
X119.612Y-64.445
X119.612Y-72.066
X119.622Y-89.305
X119.622Y-99.529
X119.622Y-101.996
X119.622Y-104.514
X119.659Y-106.672
X119.66Y-59.504
X119.704Y-84.48
X119.713Y-69.447
X119.722Y-86.888
X119.722Y-91.823
X119.738Y-24.348
X119.742Y-27.05
X119.742Y-56.8
X119.771Y-47.8
X119.772Y-37.16
X119.785Y-29.129
X119.785Y-31.597
X119.785Y-34.165
X119.792Y-51.749
X119.792Y-54.321
T2
X108.622Y-27.778
X108.622Y-29.478
X109.472Y-26.928
X109.472Y-28.628
X109.472Y-30.328
X110.322Y-27.778
X110.322Y-29.478
X111.172Y-26.928
X111.172Y-28.628
X111.172Y-30.328
X112.022Y-27.778
X112.022Y-29.478
T3
G00X68.567Y-31.23
M15
G01X67.767Y-31.23
M16
G05
G00X68.567Y-39.87
M15
G01X67.767Y-39.87
M16
G05
G00X72.897Y-31.23
M15
G01X71.797Y-31.23
M16
G05
G00X72.897Y-39.87
M15
G01X71.797Y-39.87
M16
G05
M30
